<?xml version="1.0" standalone="no"?>
 <!DOCTYPE svg PUBLIC "-//W3C//DTD SVG 1.1//EN" 
 "http://www.w3.org/Graphics/SVG/1.1/DTD/svg11.dtd"> 
<svg
  xmlns:svg="http://www.w3.org/2000/svg"
  xmlns="http://www.w3.org/2000/svg"
  xmlns:xlink="http://www.w3.org/1999/xlink"
  version="1.1"
  width="297.0022mm" height="210.0072mm" viewBox="0.0000 0.0000 297.0022 210.0072">
<title>SVG Image created as MCU_Data_Logger-B_Silkscreen.svg date 2025/03/12 12:30:11 </title>
  <desc>Image generated by PCBNEW </desc>
<g style="fill:#000000; fill-opacity:1.0000;stroke:#000000; stroke-opacity:1.0000;
stroke-linecap:round; stroke-linejoin:round;"
 transform="translate(0 0) scale(1 1)">
</g>
<g style="fill:none; 
stroke:#000000; stroke-width:0.1500; stroke-opacity:1; 
stroke-linecap:round; stroke-linejoin:round;">
<text x="111.5000" y="86.7801"
transform="scale(-1 1) translate(-223.000000 0)"
textLength="13.3452" font-size="1.3333" lengthAdjust="spacingAndGlyphs"
text-anchor="start" opacity="0" stroke-opacity="0">-- 2MB EEPROM</text>
<g class="stroked-text"><desc>-- 2MB EEPROM</desc>
<path d="M111.1632 86.2690
L110.4013 86.2690
" />
<path d="M109.9251 86.2690
L109.1632 86.2690
" />
<path d="M107.9727 85.7452
L107.9251 85.6975
" />
<path d="M107.9251 85.6975
L107.8299 85.6499
" />
<path d="M107.8299 85.6499
L107.5918 85.6499
" />
<path d="M107.5918 85.6499
L107.4966 85.6975
" />
<path d="M107.4966 85.6975
L107.4489 85.7452
" />
<path d="M107.4489 85.7452
L107.4013 85.8404
" />
<path d="M107.4013 85.8404
L107.4013 85.9356
" />
<path d="M107.4013 85.9356
L107.4489 86.0785
" />
<path d="M107.4489 86.0785
L108.0204 86.6499
" />
<path d="M108.0204 86.6499
L107.4013 86.6499
" />
<path d="M106.9727 86.6499
L106.9727 85.6499
" />
<path d="M106.9727 85.6499
L106.6394 86.3642
" />
<path d="M106.6394 86.3642
L106.3061 85.6499
" />
<path d="M106.3061 85.6499
L106.3061 86.6499
" />
<path d="M105.4966 86.1261
L105.3537 86.1737
" />
<path d="M105.3537 86.1737
L105.3061 86.2214
" />
<path d="M105.3061 86.2214
L105.2585 86.3166
" />
<path d="M105.2585 86.3166
L105.2585 86.4595
" />
<path d="M105.2585 86.4595
L105.3061 86.5547
" />
<path d="M105.3061 86.5547
L105.3537 86.6023
" />
<path d="M105.3537 86.6023
L105.4489 86.6499
" />
<path d="M105.4489 86.6499
L105.8299 86.6499
" />
<path d="M105.8299 86.6499
L105.8299 85.6499
" />
<path d="M105.8299 85.6499
L105.4966 85.6499
" />
<path d="M105.4966 85.6499
L105.4013 85.6975
" />
<path d="M105.4013 85.6975
L105.3537 85.7452
" />
<path d="M105.3537 85.7452
L105.3061 85.8404
" />
<path d="M105.3061 85.8404
L105.3061 85.9356
" />
<path d="M105.3061 85.9356
L105.3537 86.0309
" />
<path d="M105.3537 86.0309
L105.4013 86.0785
" />
<path d="M105.4013 86.0785
L105.4966 86.1261
" />
<path d="M105.4966 86.1261
L105.8299 86.1261
" />
<path d="M104.0680 86.1261
L103.7346 86.1261
" />
<path d="M103.5918 86.6499
L104.0680 86.6499
" />
<path d="M104.0680 86.6499
L104.0680 85.6499
" />
<path d="M104.0680 85.6499
L103.5918 85.6499
" />
<path d="M103.1632 86.1261
L102.8299 86.1261
" />
<path d="M102.6870 86.6499
L103.1632 86.6499
" />
<path d="M103.1632 86.6499
L103.1632 85.6499
" />
<path d="M103.1632 85.6499
L102.6870 85.6499
" />
<path d="M102.2585 86.6499
L102.2585 85.6499
" />
<path d="M102.2585 85.6499
L101.8775 85.6499
" />
<path d="M101.8775 85.6499
L101.7823 85.6975
" />
<path d="M101.7823 85.6975
L101.7346 85.7452
" />
<path d="M101.7346 85.7452
L101.6870 85.8404
" />
<path d="M101.6870 85.8404
L101.6870 85.9833
" />
<path d="M101.6870 85.9833
L101.7346 86.0785
" />
<path d="M101.7346 86.0785
L101.7823 86.1261
" />
<path d="M101.7823 86.1261
L101.8775 86.1737
" />
<path d="M101.8775 86.1737
L102.2585 86.1737
" />
<path d="M100.6870 86.6499
L101.0204 86.1737
" />
<path d="M101.2585 86.6499
L101.2585 85.6499
" />
<path d="M101.2585 85.6499
L100.8775 85.6499
" />
<path d="M100.8775 85.6499
L100.7823 85.6975
" />
<path d="M100.7823 85.6975
L100.7346 85.7452
" />
<path d="M100.7346 85.7452
L100.6870 85.8404
" />
<path d="M100.6870 85.8404
L100.6870 85.9833
" />
<path d="M100.6870 85.9833
L100.7346 86.0785
" />
<path d="M100.7346 86.0785
L100.7823 86.1261
" />
<path d="M100.7823 86.1261
L100.8775 86.1737
" />
<path d="M100.8775 86.1737
L101.2585 86.1737
" />
<path d="M100.0680 85.6499
L99.8775 85.6499
" />
<path d="M99.8775 85.6499
L99.7823 85.6975
" />
<path d="M99.7823 85.6975
L99.6870 85.7928
" />
<path d="M99.6870 85.7928
L99.6394 85.9833
" />
<path d="M99.6394 85.9833
L99.6394 86.3166
" />
<path d="M99.6394 86.3166
L99.6870 86.5071
" />
<path d="M99.6870 86.5071
L99.7823 86.6023
" />
<path d="M99.7823 86.6023
L99.8775 86.6499
" />
<path d="M99.8775 86.6499
L100.0680 86.6499
" />
<path d="M100.0680 86.6499
L100.1632 86.6023
" />
<path d="M100.1632 86.6023
L100.2585 86.5071
" />
<path d="M100.2585 86.5071
L100.3061 86.3166
" />
<path d="M100.3061 86.3166
L100.3061 85.9833
" />
<path d="M100.3061 85.9833
L100.2585 85.7928
" />
<path d="M100.2585 85.7928
L100.1632 85.6975
" />
<path d="M100.1632 85.6975
L100.0680 85.6499
" />
<path d="M99.2108 86.6499
L99.2108 85.6499
" />
<path d="M99.2108 85.6499
L98.8775 86.3642
" />
<path d="M98.8775 86.3642
L98.5442 85.6499
" />
<path d="M98.5442 85.6499
L98.5442 86.6499
" />
</g><text x="111.5000" y="88.3901"
transform="scale(-1 1) translate(-223.000000 0)"
textLength="6.2500" font-size="1.3333" lengthAdjust="spacingAndGlyphs"
text-anchor="start" opacity="0" stroke-opacity="0">-- RTC</text>
<g class="stroked-text"><desc>-- RTC</desc>
<path d="M111.1632 87.8789
L110.4013 87.8789
" />
<path d="M109.9251 87.8789
L109.1632 87.8789
" />
<path d="M107.3537 88.2599
L107.6870 87.7837
" />
<path d="M107.9251 88.2599
L107.9251 87.2599
" />
<path d="M107.9251 87.2599
L107.5442 87.2599
" />
<path d="M107.5442 87.2599
L107.4489 87.3075
" />
<path d="M107.4489 87.3075
L107.4013 87.3551
" />
<path d="M107.4013 87.3551
L107.3537 87.4504
" />
<path d="M107.3537 87.4504
L107.3537 87.5932
" />
<path d="M107.3537 87.5932
L107.4013 87.6884
" />
<path d="M107.4013 87.6884
L107.4489 87.7361
" />
<path d="M107.4489 87.7361
L107.5442 87.7837
" />
<path d="M107.5442 87.7837
L107.9251 87.7837
" />
<path d="M107.0680 87.2599
L106.4966 87.2599
" />
<path d="M106.7823 88.2599
L106.7823 87.2599
" />
<path d="M105.5918 88.1646
L105.6394 88.2123
" />
<path d="M105.6394 88.2123
L105.7823 88.2599
" />
<path d="M105.7823 88.2599
L105.8775 88.2599
" />
<path d="M105.8775 88.2599
L106.0204 88.2123
" />
<path d="M106.0204 88.2123
L106.1156 88.1170
" />
<path d="M106.1156 88.1170
L106.1632 88.0218
" />
<path d="M106.1632 88.0218
L106.2108 87.8313
" />
<path d="M106.2108 87.8313
L106.2108 87.6884
" />
<path d="M106.2108 87.6884
L106.1632 87.4980
" />
<path d="M106.1632 87.4980
L106.1156 87.4027
" />
<path d="M106.1156 87.4027
L106.0204 87.3075
" />
<path d="M106.0204 87.3075
L105.8775 87.2599
" />
<path d="M105.8775 87.2599
L105.7823 87.2599
" />
<path d="M105.7823 87.2599
L105.6394 87.3075
" />
<path d="M105.6394 87.3075
L105.5918 87.3551
" />
</g><text x="111.5000" y="90.0000"
transform="scale(-1 1) translate(-223.000000 0)"
textLength="15.2500" font-size="1.3333" lengthAdjust="spacingAndGlyphs"
text-anchor="start" opacity="0" stroke-opacity="0">-- I2C, SPI, UART </text>
<g class="stroked-text"><desc>-- I2C, SPI, UART </desc>
<path d="M111.1632 89.4889
L110.4013 89.4889
" />
<path d="M109.9251 89.4889
L109.1632 89.4889
" />
<path d="M107.9251 89.8698
L107.9251 88.8698
" />
<path d="M107.4966 88.9651
L107.4489 88.9174
" />
<path d="M107.4489 88.9174
L107.3537 88.8698
" />
<path d="M107.3537 88.8698
L107.1156 88.8698
" />
<path d="M107.1156 88.8698
L107.0204 88.9174
" />
<path d="M107.0204 88.9174
L106.9727 88.9651
" />
<path d="M106.9727 88.9651
L106.9251 89.0603
" />
<path d="M106.9251 89.0603
L106.9251 89.1555
" />
<path d="M106.9251 89.1555
L106.9727 89.2984
" />
<path d="M106.9727 89.2984
L107.5442 89.8698
" />
<path d="M107.5442 89.8698
L106.9251 89.8698
" />
<path d="M105.9251 89.7746
L105.9727 89.8222
" />
<path d="M105.9727 89.8222
L106.1156 89.8698
" />
<path d="M106.1156 89.8698
L106.2108 89.8698
" />
<path d="M106.2108 89.8698
L106.3537 89.8222
" />
<path d="M106.3537 89.8222
L106.4489 89.7270
" />
<path d="M106.4489 89.7270
L106.4966 89.6317
" />
<path d="M106.4966 89.6317
L106.5442 89.4412
" />
<path d="M106.5442 89.4412
L106.5442 89.2984
" />
<path d="M106.5442 89.2984
L106.4966 89.1079
" />
<path d="M106.4966 89.1079
L106.4489 89.0127
" />
<path d="M106.4489 89.0127
L106.3537 88.9174
" />
<path d="M106.3537 88.9174
L106.2108 88.8698
" />
<path d="M106.2108 88.8698
L106.1156 88.8698
" />
<path d="M106.1156 88.8698
L105.9727 88.9174
" />
<path d="M105.9727 88.9174
L105.9251 88.9651
" />
<path d="M105.4489 89.8222
L105.4489 89.8698
" />
<path d="M105.4489 89.8698
L105.4966 89.9651
" />
<path d="M105.4966 89.9651
L105.5442 90.0127
" />
<path d="M104.3061 89.8222
L104.1632 89.8698
" />
<path d="M104.1632 89.8698
L103.9251 89.8698
" />
<path d="M103.9251 89.8698
L103.8299 89.8222
" />
<path d="M103.8299 89.8222
L103.7823 89.7746
" />
<path d="M103.7823 89.7746
L103.7347 89.6793
" />
<path d="M103.7347 89.6793
L103.7347 89.5841
" />
<path d="M103.7347 89.5841
L103.7823 89.4889
" />
<path d="M103.7823 89.4889
L103.8299 89.4412
" />
<path d="M103.8299 89.4412
L103.9251 89.3936
" />
<path d="M103.9251 89.3936
L104.1156 89.3460
" />
<path d="M104.1156 89.3460
L104.2108 89.2984
" />
<path d="M104.2108 89.2984
L104.2585 89.2508
" />
<path d="M104.2585 89.2508
L104.3061 89.1555
" />
<path d="M104.3061 89.1555
L104.3061 89.0603
" />
<path d="M104.3061 89.0603
L104.2585 88.9651
" />
<path d="M104.2585 88.9651
L104.2108 88.9174
" />
<path d="M104.2108 88.9174
L104.1156 88.8698
" />
<path d="M104.1156 88.8698
L103.8775 88.8698
" />
<path d="M103.8775 88.8698
L103.7347 88.9174
" />
<path d="M103.3061 89.8698
L103.3061 88.8698
" />
<path d="M103.3061 88.8698
L102.9251 88.8698
" />
<path d="M102.9251 88.8698
L102.8299 88.9174
" />
<path d="M102.8299 88.9174
L102.7823 88.9651
" />
<path d="M102.7823 88.9651
L102.7347 89.0603
" />
<path d="M102.7347 89.0603
L102.7347 89.2032
" />
<path d="M102.7347 89.2032
L102.7823 89.2984
" />
<path d="M102.7823 89.2984
L102.8299 89.3460
" />
<path d="M102.8299 89.3460
L102.9251 89.3936
" />
<path d="M102.9251 89.3936
L103.3061 89.3936
" />
<path d="M102.3061 89.8698
L102.3061 88.8698
" />
<path d="M101.7823 89.8222
L101.7823 89.8698
" />
<path d="M101.7823 89.8698
L101.8299 89.9651
" />
<path d="M101.8299 89.9651
L101.8775 90.0127
" />
<path d="M100.5918 88.8698
L100.5918 89.6793
" />
<path d="M100.5918 89.6793
L100.5442 89.7746
" />
<path d="M100.5442 89.7746
L100.4966 89.8222
" />
<path d="M100.4966 89.8222
L100.4013 89.8698
" />
<path d="M100.4013 89.8698
L100.2108 89.8698
" />
<path d="M100.2108 89.8698
L100.1156 89.8222
" />
<path d="M100.1156 89.8222
L100.0680 89.7746
" />
<path d="M100.0680 89.7746
L100.0204 89.6793
" />
<path d="M100.0204 89.6793
L100.0204 88.8698
" />
<path d="M99.5918 89.5841
L99.1156 89.5841
" />
<path d="M99.6870 89.8698
L99.3537 88.8698
" />
<path d="M99.3537 88.8698
L99.0204 89.8698
" />
<path d="M98.1156 89.8698
L98.4489 89.3936
" />
<path d="M98.6870 89.8698
L98.6870 88.8698
" />
<path d="M98.6870 88.8698
L98.3061 88.8698
" />
<path d="M98.3061 88.8698
L98.2108 88.9174
" />
<path d="M98.2108 88.9174
L98.1632 88.9651
" />
<path d="M98.1632 88.9651
L98.1156 89.0603
" />
<path d="M98.1156 89.0603
L98.1156 89.2032
" />
<path d="M98.1156 89.2032
L98.1632 89.2984
" />
<path d="M98.1632 89.2984
L98.2108 89.3460
" />
<path d="M98.2108 89.3460
L98.3061 89.3936
" />
<path d="M98.3061 89.3936
L98.6870 89.3936
" />
<path d="M97.8299 88.8698
L97.2585 88.8698
" />
<path d="M97.5442 89.8698
L97.5442 88.8698
" />
</g></g>
<g style="fill:none; 
stroke:#000000; stroke-width:0.1000; stroke-opacity:1; 
stroke-linecap:round; stroke-linejoin:round;">
<text x="143.5000" y="104.5000"
transform="scale(-1 1) translate(-287.000000 0)"
textLength="12.0638" font-size="1.0667" lengthAdjust="spacingAndGlyphs"
text-anchor="start" opacity="0" stroke-opacity="0">Designed by Vishwa</text>
<g class="stroked-text"><desc>Designed by Vishwa</desc>
<path d="M143.2437 104.3969
L143.2437 103.5969
" />
<path d="M143.2437 103.5969
L143.0533 103.5969
" />
<path d="M143.0533 103.5969
L142.9390 103.6350
" />
<path d="M142.9390 103.6350
L142.8628 103.7112
" />
<path d="M142.8628 103.7112
L142.8247 103.7874
" />
<path d="M142.8247 103.7874
L142.7866 103.9398
" />
<path d="M142.7866 103.9398
L142.7866 104.0540
" />
<path d="M142.7866 104.0540
L142.8247 104.2064
" />
<path d="M142.8247 104.2064
L142.8628 104.2826
" />
<path d="M142.8628 104.2826
L142.9390 104.3588
" />
<path d="M142.9390 104.3588
L143.0533 104.3969
" />
<path d="M143.0533 104.3969
L143.2437 104.3969
" />
<path d="M142.1390 104.3588
L142.2152 104.3969
" />
<path d="M142.2152 104.3969
L142.3675 104.3969
" />
<path d="M142.3675 104.3969
L142.4437 104.3588
" />
<path d="M142.4437 104.3588
L142.4818 104.2826
" />
<path d="M142.4818 104.2826
L142.4818 103.9778
" />
<path d="M142.4818 103.9778
L142.4437 103.9017
" />
<path d="M142.4437 103.9017
L142.3675 103.8636
" />
<path d="M142.3675 103.8636
L142.2152 103.8636
" />
<path d="M142.2152 103.8636
L142.1390 103.9017
" />
<path d="M142.1390 103.9017
L142.1009 103.9778
" />
<path d="M142.1009 103.9778
L142.1009 104.0540
" />
<path d="M142.1009 104.0540
L142.4818 104.1302
" />
<path d="M141.7961 104.3588
L141.7199 104.3969
" />
<path d="M141.7199 104.3969
L141.5675 104.3969
" />
<path d="M141.5675 104.3969
L141.4914 104.3588
" />
<path d="M141.4914 104.3588
L141.4533 104.2826
" />
<path d="M141.4533 104.2826
L141.4533 104.2445
" />
<path d="M141.4533 104.2445
L141.4914 104.1683
" />
<path d="M141.4914 104.1683
L141.5675 104.1302
" />
<path d="M141.5675 104.1302
L141.6818 104.1302
" />
<path d="M141.6818 104.1302
L141.7580 104.0921
" />
<path d="M141.7580 104.0921
L141.7961 104.0159
" />
<path d="M141.7961 104.0159
L141.7961 103.9778
" />
<path d="M141.7961 103.9778
L141.7580 103.9017
" />
<path d="M141.7580 103.9017
L141.6818 103.8636
" />
<path d="M141.6818 103.8636
L141.5675 103.8636
" />
<path d="M141.5675 103.8636
L141.4914 103.9017
" />
<path d="M141.1104 104.3969
L141.1104 103.8636
" />
<path d="M141.1104 103.5969
L141.1485 103.6350
" />
<path d="M141.1485 103.6350
L141.1104 103.6731
" />
<path d="M141.1104 103.6731
L141.0723 103.6350
" />
<path d="M141.0723 103.6350
L141.1104 103.5969
" />
<path d="M141.1104 103.5969
L141.1104 103.6731
" />
<path d="M140.3866 103.8636
L140.3866 104.5112
" />
<path d="M140.3866 104.5112
L140.4247 104.5874
" />
<path d="M140.4247 104.5874
L140.4628 104.6255
" />
<path d="M140.4628 104.6255
L140.5390 104.6636
" />
<path d="M140.5390 104.6636
L140.6533 104.6636
" />
<path d="M140.6533 104.6636
L140.7294 104.6255
" />
<path d="M140.3866 104.3588
L140.4628 104.3969
" />
<path d="M140.4628 104.3969
L140.6152 104.3969
" />
<path d="M140.6152 104.3969
L140.6914 104.3588
" />
<path d="M140.6914 104.3588
L140.7294 104.3207
" />
<path d="M140.7294 104.3207
L140.7675 104.2445
" />
<path d="M140.7675 104.2445
L140.7675 104.0159
" />
<path d="M140.7675 104.0159
L140.7294 103.9398
" />
<path d="M140.7294 103.9398
L140.6914 103.9017
" />
<path d="M140.6914 103.9017
L140.6152 103.8636
" />
<path d="M140.6152 103.8636
L140.4628 103.8636
" />
<path d="M140.4628 103.8636
L140.3866 103.9017
" />
<path d="M140.0056 103.8636
L140.0056 104.3969
" />
<path d="M140.0056 103.9398
L139.9675 103.9017
" />
<path d="M139.9675 103.9017
L139.8914 103.8636
" />
<path d="M139.8914 103.8636
L139.7771 103.8636
" />
<path d="M139.7771 103.8636
L139.7009 103.9017
" />
<path d="M139.7009 103.9017
L139.6628 103.9778
" />
<path d="M139.6628 103.9778
L139.6628 104.3969
" />
<path d="M138.9771 104.3588
L139.0533 104.3969
" />
<path d="M139.0533 104.3969
L139.2056 104.3969
" />
<path d="M139.2056 104.3969
L139.2818 104.3588
" />
<path d="M139.2818 104.3588
L139.3199 104.2826
" />
<path d="M139.3199 104.2826
L139.3199 103.9778
" />
<path d="M139.3199 103.9778
L139.2818 103.9017
" />
<path d="M139.2818 103.9017
L139.2056 103.8636
" />
<path d="M139.2056 103.8636
L139.0533 103.8636
" />
<path d="M139.0533 103.8636
L138.9771 103.9017
" />
<path d="M138.9771 103.9017
L138.9390 103.9778
" />
<path d="M138.9390 103.9778
L138.9390 104.0540
" />
<path d="M138.9390 104.0540
L139.3199 104.1302
" />
<path d="M138.2533 104.3969
L138.2533 103.5969
" />
<path d="M138.2533 104.3588
L138.3294 104.3969
" />
<path d="M138.3294 104.3969
L138.4818 104.3969
" />
<path d="M138.4818 104.3969
L138.5580 104.3588
" />
<path d="M138.5580 104.3588
L138.5961 104.3207
" />
<path d="M138.5961 104.3207
L138.6342 104.2445
" />
<path d="M138.6342 104.2445
L138.6342 104.0159
" />
<path d="M138.6342 104.0159
L138.5961 103.9398
" />
<path d="M138.5961 103.9398
L138.5580 103.9017
" />
<path d="M138.5580 103.9017
L138.4818 103.8636
" />
<path d="M138.4818 103.8636
L138.3294 103.8636
" />
<path d="M138.3294 103.8636
L138.2533 103.9017
" />
<path d="M137.2628 104.3969
L137.2628 103.5969
" />
<path d="M137.2628 103.9017
L137.1866 103.8636
" />
<path d="M137.1866 103.8636
L137.0342 103.8636
" />
<path d="M137.0342 103.8636
L136.9580 103.9017
" />
<path d="M136.9580 103.9017
L136.9199 103.9398
" />
<path d="M136.9199 103.9398
L136.8818 104.0159
" />
<path d="M136.8818 104.0159
L136.8818 104.2445
" />
<path d="M136.8818 104.2445
L136.9199 104.3207
" />
<path d="M136.9199 104.3207
L136.9580 104.3588
" />
<path d="M136.9580 104.3588
L137.0342 104.3969
" />
<path d="M137.0342 104.3969
L137.1866 104.3969
" />
<path d="M137.1866 104.3969
L137.2628 104.3588
" />
<path d="M136.6152 103.8636
L136.4247 104.3969
" />
<path d="M136.2342 103.8636
L136.4247 104.3969
" />
<path d="M136.4247 104.3969
L136.5009 104.5874
" />
<path d="M136.5009 104.5874
L136.5390 104.6255
" />
<path d="M136.5390 104.6255
L136.6152 104.6636
" />
<path d="M135.4342 103.5969
L135.1675 104.3969
" />
<path d="M135.1675 104.3969
L134.9009 103.5969
" />
<path d="M134.6342 104.3969
L134.6342 103.8636
" />
<path d="M134.6342 103.5969
L134.6723 103.6350
" />
<path d="M134.6723 103.6350
L134.6342 103.6731
" />
<path d="M134.6342 103.6731
L134.5961 103.6350
" />
<path d="M134.5961 103.6350
L134.6342 103.5969
" />
<path d="M134.6342 103.5969
L134.6342 103.6731
" />
<path d="M134.2914 104.3588
L134.2152 104.3969
" />
<path d="M134.2152 104.3969
L134.0628 104.3969
" />
<path d="M134.0628 104.3969
L133.9866 104.3588
" />
<path d="M133.9866 104.3588
L133.9485 104.2826
" />
<path d="M133.9485 104.2826
L133.9485 104.2445
" />
<path d="M133.9485 104.2445
L133.9866 104.1683
" />
<path d="M133.9866 104.1683
L134.0628 104.1302
" />
<path d="M134.0628 104.1302
L134.1771 104.1302
" />
<path d="M134.1771 104.1302
L134.2533 104.0921
" />
<path d="M134.2533 104.0921
L134.2914 104.0159
" />
<path d="M134.2914 104.0159
L134.2914 103.9778
" />
<path d="M134.2914 103.9778
L134.2533 103.9017
" />
<path d="M134.2533 103.9017
L134.1771 103.8636
" />
<path d="M134.1771 103.8636
L134.0628 103.8636
" />
<path d="M134.0628 103.8636
L133.9866 103.9017
" />
<path d="M133.6056 104.3969
L133.6056 103.5969
" />
<path d="M133.2628 104.3969
L133.2628 103.9778
" />
<path d="M133.2628 103.9778
L133.3009 103.9017
" />
<path d="M133.3009 103.9017
L133.3771 103.8636
" />
<path d="M133.3771 103.8636
L133.4914 103.8636
" />
<path d="M133.4914 103.8636
L133.5675 103.9017
" />
<path d="M133.5675 103.9017
L133.6056 103.9398
" />
<path d="M132.9580 103.8636
L132.8056 104.3969
" />
<path d="M132.8056 104.3969
L132.6533 104.0159
" />
<path d="M132.6533 104.0159
L132.5009 104.3969
" />
<path d="M132.5009 104.3969
L132.3485 103.8636
" />
<path d="M131.7009 104.3969
L131.7009 103.9778
" />
<path d="M131.7009 103.9778
L131.7390 103.9017
" />
<path d="M131.7390 103.9017
L131.8152 103.8636
" />
<path d="M131.8152 103.8636
L131.9675 103.8636
" />
<path d="M131.9675 103.8636
L132.0437 103.9017
" />
<path d="M131.7009 104.3588
L131.7771 104.3969
" />
<path d="M131.7771 104.3969
L131.9675 104.3969
" />
<path d="M131.9675 104.3969
L132.0437 104.3588
" />
<path d="M132.0437 104.3588
L132.0818 104.2826
" />
<path d="M132.0818 104.2826
L132.0818 104.2064
" />
<path d="M132.0818 104.2064
L132.0437 104.1302
" />
<path d="M132.0437 104.1302
L131.9675 104.0921
" />
<path d="M131.9675 104.0921
L131.7771 104.0921
" />
<path d="M131.7771 104.0921
L131.7009 104.0540
" />
</g></g>
<g style="fill:none; 
stroke:#000000; stroke-width:0.1500; stroke-opacity:1; 
stroke-linecap:round; stroke-linejoin:round;">
<text x="110.4392" y="77.9429"
transform="scale(-1 1) translate(-220.878400 0)"
textLength="13.1548" font-size="1.3333" lengthAdjust="spacingAndGlyphs"
text-anchor="start" opacity="0" stroke-opacity="0">Data Logger with</text>
<g class="stroked-text"><desc>Data Logger with</desc>
<path d="M110.1024 77.8127
L110.1024 76.8127
" />
<path d="M110.1024 76.8127
L109.8643 76.8127
" />
<path d="M109.8643 76.8127
L109.7215 76.8603
" />
<path d="M109.7215 76.8603
L109.6262 76.9555
" />
<path d="M109.6262 76.9555
L109.5786 77.0508
" />
<path d="M109.5786 77.0508
L109.5310 77.2412
" />
<path d="M109.5310 77.2412
L109.5310 77.3841
" />
<path d="M109.5310 77.3841
L109.5786 77.5746
" />
<path d="M109.5786 77.5746
L109.6262 77.6698
" />
<path d="M109.6262 77.6698
L109.7215 77.7651
" />
<path d="M109.7215 77.7651
L109.8643 77.8127
" />
<path d="M109.8643 77.8127
L110.1024 77.8127
" />
<path d="M108.6738 77.8127
L108.6738 77.2889
" />
<path d="M108.6738 77.2889
L108.7215 77.1936
" />
<path d="M108.7215 77.1936
L108.8167 77.1460
" />
<path d="M108.8167 77.1460
L109.0072 77.1460
" />
<path d="M109.0072 77.1460
L109.1024 77.1936
" />
<path d="M108.6738 77.7651
L108.7691 77.8127
" />
<path d="M108.7691 77.8127
L109.0072 77.8127
" />
<path d="M109.0072 77.8127
L109.1024 77.7651
" />
<path d="M109.1024 77.7651
L109.1500 77.6698
" />
<path d="M109.1500 77.6698
L109.1500 77.5746
" />
<path d="M109.1500 77.5746
L109.1024 77.4793
" />
<path d="M109.1024 77.4793
L109.0072 77.4317
" />
<path d="M109.0072 77.4317
L108.7691 77.4317
" />
<path d="M108.7691 77.4317
L108.6738 77.3841
" />
<path d="M108.3405 77.1460
L107.9596 77.1460
" />
<path d="M108.1977 76.8127
L108.1977 77.6698
" />
<path d="M108.1977 77.6698
L108.1500 77.7651
" />
<path d="M108.1500 77.7651
L108.0548 77.8127
" />
<path d="M108.0548 77.8127
L107.9596 77.8127
" />
<path d="M107.1977 77.8127
L107.1977 77.2889
" />
<path d="M107.1977 77.2889
L107.2453 77.1936
" />
<path d="M107.2453 77.1936
L107.3405 77.1460
" />
<path d="M107.3405 77.1460
L107.5310 77.1460
" />
<path d="M107.5310 77.1460
L107.6262 77.1936
" />
<path d="M107.1977 77.7651
L107.2929 77.8127
" />
<path d="M107.2929 77.8127
L107.5310 77.8127
" />
<path d="M107.5310 77.8127
L107.6262 77.7651
" />
<path d="M107.6262 77.7651
L107.6738 77.6698
" />
<path d="M107.6738 77.6698
L107.6738 77.5746
" />
<path d="M107.6738 77.5746
L107.6262 77.4793
" />
<path d="M107.6262 77.4793
L107.5310 77.4317
" />
<path d="M107.5310 77.4317
L107.2929 77.4317
" />
<path d="M107.2929 77.4317
L107.1977 77.3841
" />
<path d="M105.4834 77.8127
L105.9596 77.8127
" />
<path d="M105.9596 77.8127
L105.9596 76.8127
" />
<path d="M105.0072 77.8127
L105.1024 77.7651
" />
<path d="M105.1024 77.7651
L105.1500 77.7174
" />
<path d="M105.1500 77.7174
L105.1977 77.6222
" />
<path d="M105.1977 77.6222
L105.1977 77.3365
" />
<path d="M105.1977 77.3365
L105.1500 77.2412
" />
<path d="M105.1500 77.2412
L105.1024 77.1936
" />
<path d="M105.1024 77.1936
L105.0072 77.1460
" />
<path d="M105.0072 77.1460
L104.8643 77.1460
" />
<path d="M104.8643 77.1460
L104.7691 77.1936
" />
<path d="M104.7691 77.1936
L104.7215 77.2412
" />
<path d="M104.7215 77.2412
L104.6738 77.3365
" />
<path d="M104.6738 77.3365
L104.6738 77.6222
" />
<path d="M104.6738 77.6222
L104.7215 77.7174
" />
<path d="M104.7215 77.7174
L104.7691 77.7651
" />
<path d="M104.7691 77.7651
L104.8643 77.8127
" />
<path d="M104.8643 77.8127
L105.0072 77.8127
" />
<path d="M103.8167 77.1460
L103.8167 77.9555
" />
<path d="M103.8167 77.9555
L103.8643 78.0508
" />
<path d="M103.8643 78.0508
L103.9119 78.0984
" />
<path d="M103.9119 78.0984
L104.0072 78.1460
" />
<path d="M104.0072 78.1460
L104.1500 78.1460
" />
<path d="M104.1500 78.1460
L104.2453 78.0984
" />
<path d="M103.8167 77.7651
L103.9119 77.8127
" />
<path d="M103.9119 77.8127
L104.1024 77.8127
" />
<path d="M104.1024 77.8127
L104.1977 77.7651
" />
<path d="M104.1977 77.7651
L104.2453 77.7174
" />
<path d="M104.2453 77.7174
L104.2929 77.6222
" />
<path d="M104.2929 77.6222
L104.2929 77.3365
" />
<path d="M104.2929 77.3365
L104.2453 77.2412
" />
<path d="M104.2453 77.2412
L104.1977 77.1936
" />
<path d="M104.1977 77.1936
L104.1024 77.1460
" />
<path d="M104.1024 77.1460
L103.9119 77.1460
" />
<path d="M103.9119 77.1460
L103.8167 77.1936
" />
<path d="M102.9119 77.1460
L102.9119 77.9555
" />
<path d="M102.9119 77.9555
L102.9596 78.0508
" />
<path d="M102.9596 78.0508
L103.0072 78.0984
" />
<path d="M103.0072 78.0984
L103.1024 78.1460
" />
<path d="M103.1024 78.1460
L103.2453 78.1460
" />
<path d="M103.2453 78.1460
L103.3405 78.0984
" />
<path d="M102.9119 77.7651
L103.0072 77.8127
" />
<path d="M103.0072 77.8127
L103.1977 77.8127
" />
<path d="M103.1977 77.8127
L103.2929 77.7651
" />
<path d="M103.2929 77.7651
L103.3405 77.7174
" />
<path d="M103.3405 77.7174
L103.3881 77.6222
" />
<path d="M103.3881 77.6222
L103.3881 77.3365
" />
<path d="M103.3881 77.3365
L103.3405 77.2412
" />
<path d="M103.3405 77.2412
L103.2929 77.1936
" />
<path d="M103.2929 77.1936
L103.1977 77.1460
" />
<path d="M103.1977 77.1460
L103.0072 77.1460
" />
<path d="M103.0072 77.1460
L102.9119 77.1936
" />
<path d="M102.0548 77.7651
L102.1500 77.8127
" />
<path d="M102.1500 77.8127
L102.3405 77.8127
" />
<path d="M102.3405 77.8127
L102.4358 77.7651
" />
<path d="M102.4358 77.7651
L102.4834 77.6698
" />
<path d="M102.4834 77.6698
L102.4834 77.2889
" />
<path d="M102.4834 77.2889
L102.4358 77.1936
" />
<path d="M102.4358 77.1936
L102.3405 77.1460
" />
<path d="M102.3405 77.1460
L102.1500 77.1460
" />
<path d="M102.1500 77.1460
L102.0548 77.1936
" />
<path d="M102.0548 77.1936
L102.0072 77.2889
" />
<path d="M102.0072 77.2889
L102.0072 77.3841
" />
<path d="M102.0072 77.3841
L102.4834 77.4793
" />
<path d="M101.5786 77.8127
L101.5786 77.1460
" />
<path d="M101.5786 77.3365
L101.5310 77.2412
" />
<path d="M101.5310 77.2412
L101.4834 77.1936
" />
<path d="M101.4834 77.1936
L101.3881 77.1460
" />
<path d="M101.3881 77.1460
L101.2929 77.1460
" />
<path d="M100.2929 77.1460
L100.1024 77.8127
" />
<path d="M100.1024 77.8127
L99.9119 77.3365
" />
<path d="M99.9119 77.3365
L99.7215 77.8127
" />
<path d="M99.7215 77.8127
L99.5310 77.1460
" />
<path d="M99.1500 77.8127
L99.1500 77.1460
" />
<path d="M99.1500 76.8127
L99.1977 76.8603
" />
<path d="M99.1977 76.8603
L99.1500 76.9079
" />
<path d="M99.1500 76.9079
L99.1024 76.8603
" />
<path d="M99.1024 76.8603
L99.1500 76.8127
" />
<path d="M99.1500 76.8127
L99.1500 76.9079
" />
<path d="M98.8167 77.1460
L98.4358 77.1460
" />
<path d="M98.6738 76.8127
L98.6738 77.6698
" />
<path d="M98.6738 77.6698
L98.6262 77.7651
" />
<path d="M98.6262 77.7651
L98.5310 77.8127
" />
<path d="M98.5310 77.8127
L98.4358 77.8127
" />
<path d="M98.1024 77.8127
L98.1024 76.8127
" />
<path d="M97.6738 77.8127
L97.6738 77.2889
" />
<path d="M97.6738 77.2889
L97.7215 77.1936
" />
<path d="M97.7215 77.1936
L97.8167 77.1460
" />
<path d="M97.8167 77.1460
L97.9596 77.1460
" />
<path d="M97.9596 77.1460
L98.0548 77.1936
" />
<path d="M98.0548 77.1936
L98.1024 77.2412
" />
</g><text x="110.4392" y="79.5528"
transform="scale(-1 1) translate(-220.878400 0)"
textLength="12.6310" font-size="1.3333" lengthAdjust="spacingAndGlyphs"
text-anchor="start" opacity="0" stroke-opacity="0">the ATMega328P</text>
<g class="stroked-text"><desc>the ATMega328P</desc>
<path d="M110.2453 78.7560
L109.8643 78.7560
" />
<path d="M110.1024 78.4226
L110.1024 79.2798
" />
<path d="M110.1024 79.2798
L110.0548 79.3750
" />
<path d="M110.0548 79.3750
L109.9596 79.4226
" />
<path d="M109.9596 79.4226
L109.8643 79.4226
" />
<path d="M109.5310 79.4226
L109.5310 78.4226
" />
<path d="M109.1024 79.4226
L109.1024 78.8988
" />
<path d="M109.1024 78.8988
L109.1500 78.8036
" />
<path d="M109.1500 78.8036
L109.2453 78.7560
" />
<path d="M109.2453 78.7560
L109.3881 78.7560
" />
<path d="M109.3881 78.7560
L109.4834 78.8036
" />
<path d="M109.4834 78.8036
L109.5310 78.8512
" />
<path d="M108.2453 79.3750
L108.3405 79.4226
" />
<path d="M108.3405 79.4226
L108.5310 79.4226
" />
<path d="M108.5310 79.4226
L108.6262 79.3750
" />
<path d="M108.6262 79.3750
L108.6738 79.2798
" />
<path d="M108.6738 79.2798
L108.6738 78.8988
" />
<path d="M108.6738 78.8988
L108.6262 78.8036
" />
<path d="M108.6262 78.8036
L108.5310 78.7560
" />
<path d="M108.5310 78.7560
L108.3405 78.7560
" />
<path d="M108.3405 78.7560
L108.2453 78.8036
" />
<path d="M108.2453 78.8036
L108.1977 78.8988
" />
<path d="M108.1977 78.8988
L108.1977 78.9940
" />
<path d="M108.1977 78.9940
L108.6738 79.0893
" />
<path d="M107.0548 79.1369
L106.5786 79.1369
" />
<path d="M107.1500 79.4226
L106.8167 78.4226
" />
<path d="M106.8167 78.4226
L106.4834 79.4226
" />
<path d="M106.2929 78.4226
L105.7215 78.4226
" />
<path d="M106.0072 79.4226
L106.0072 78.4226
" />
<path d="M105.3881 79.4226
L105.3881 78.4226
" />
<path d="M105.3881 78.4226
L105.0548 79.1369
" />
<path d="M105.0548 79.1369
L104.7215 78.4226
" />
<path d="M104.7215 78.4226
L104.7215 79.4226
" />
<path d="M103.8643 79.3750
L103.9596 79.4226
" />
<path d="M103.9596 79.4226
L104.1500 79.4226
" />
<path d="M104.1500 79.4226
L104.2453 79.3750
" />
<path d="M104.2453 79.3750
L104.2929 79.2798
" />
<path d="M104.2929 79.2798
L104.2929 78.8988
" />
<path d="M104.2929 78.8988
L104.2453 78.8036
" />
<path d="M104.2453 78.8036
L104.1500 78.7560
" />
<path d="M104.1500 78.7560
L103.9596 78.7560
" />
<path d="M103.9596 78.7560
L103.8643 78.8036
" />
<path d="M103.8643 78.8036
L103.8167 78.8988
" />
<path d="M103.8167 78.8988
L103.8167 78.9940
" />
<path d="M103.8167 78.9940
L104.2929 79.0893
" />
<path d="M102.9596 78.7560
L102.9596 79.5655
" />
<path d="M102.9596 79.5655
L103.0072 79.6607
" />
<path d="M103.0072 79.6607
L103.0548 79.7083
" />
<path d="M103.0548 79.7083
L103.1500 79.7560
" />
<path d="M103.1500 79.7560
L103.2929 79.7560
" />
<path d="M103.2929 79.7560
L103.3881 79.7083
" />
<path d="M102.9596 79.3750
L103.0548 79.4226
" />
<path d="M103.0548 79.4226
L103.2453 79.4226
" />
<path d="M103.2453 79.4226
L103.3405 79.3750
" />
<path d="M103.3405 79.3750
L103.3881 79.3274
" />
<path d="M103.3881 79.3274
L103.4358 79.2321
" />
<path d="M103.4358 79.2321
L103.4358 78.9464
" />
<path d="M103.4358 78.9464
L103.3881 78.8512
" />
<path d="M103.3881 78.8512
L103.3405 78.8036
" />
<path d="M103.3405 78.8036
L103.2453 78.7560
" />
<path d="M103.2453 78.7560
L103.0548 78.7560
" />
<path d="M103.0548 78.7560
L102.9596 78.8036
" />
<path d="M102.0548 79.4226
L102.0548 78.8988
" />
<path d="M102.0548 78.8988
L102.1024 78.8036
" />
<path d="M102.1024 78.8036
L102.1977 78.7560
" />
<path d="M102.1977 78.7560
L102.3881 78.7560
" />
<path d="M102.3881 78.7560
L102.4834 78.8036
" />
<path d="M102.0548 79.3750
L102.1500 79.4226
" />
<path d="M102.1500 79.4226
L102.3881 79.4226
" />
<path d="M102.3881 79.4226
L102.4834 79.3750
" />
<path d="M102.4834 79.3750
L102.5310 79.2798
" />
<path d="M102.5310 79.2798
L102.5310 79.1845
" />
<path d="M102.5310 79.1845
L102.4834 79.0893
" />
<path d="M102.4834 79.0893
L102.3881 79.0417
" />
<path d="M102.3881 79.0417
L102.1500 79.0417
" />
<path d="M102.1500 79.0417
L102.0548 78.9940
" />
<path d="M101.6738 78.4226
L101.0548 78.4226
" />
<path d="M101.0548 78.4226
L101.3881 78.8036
" />
<path d="M101.3881 78.8036
L101.2453 78.8036
" />
<path d="M101.2453 78.8036
L101.1500 78.8512
" />
<path d="M101.1500 78.8512
L101.1024 78.8988
" />
<path d="M101.1024 78.8988
L101.0548 78.9940
" />
<path d="M101.0548 78.9940
L101.0548 79.2321
" />
<path d="M101.0548 79.2321
L101.1024 79.3274
" />
<path d="M101.1024 79.3274
L101.1500 79.3750
" />
<path d="M101.1500 79.3750
L101.2453 79.4226
" />
<path d="M101.2453 79.4226
L101.5310 79.4226
" />
<path d="M101.5310 79.4226
L101.6262 79.3750
" />
<path d="M101.6262 79.3750
L101.6738 79.3274
" />
<path d="M100.6738 78.5179
L100.6262 78.4702
" />
<path d="M100.6262 78.4702
L100.5310 78.4226
" />
<path d="M100.5310 78.4226
L100.2929 78.4226
" />
<path d="M100.2929 78.4226
L100.1977 78.4702
" />
<path d="M100.1977 78.4702
L100.1500 78.5179
" />
<path d="M100.1500 78.5179
L100.1024 78.6131
" />
<path d="M100.1024 78.6131
L100.1024 78.7083
" />
<path d="M100.1024 78.7083
L100.1500 78.8512
" />
<path d="M100.1500 78.8512
L100.7215 79.4226
" />
<path d="M100.7215 79.4226
L100.1024 79.4226
" />
<path d="M99.5310 78.8512
L99.6262 78.8036
" />
<path d="M99.6262 78.8036
L99.6738 78.7560
" />
<path d="M99.6738 78.7560
L99.7215 78.6607
" />
<path d="M99.7215 78.6607
L99.7215 78.6131
" />
<path d="M99.7215 78.6131
L99.6738 78.5179
" />
<path d="M99.6738 78.5179
L99.6262 78.4702
" />
<path d="M99.6262 78.4702
L99.5310 78.4226
" />
<path d="M99.5310 78.4226
L99.3405 78.4226
" />
<path d="M99.3405 78.4226
L99.2453 78.4702
" />
<path d="M99.2453 78.4702
L99.1977 78.5179
" />
<path d="M99.1977 78.5179
L99.1500 78.6131
" />
<path d="M99.1500 78.6131
L99.1500 78.6607
" />
<path d="M99.1500 78.6607
L99.1977 78.7560
" />
<path d="M99.1977 78.7560
L99.2453 78.8036
" />
<path d="M99.2453 78.8036
L99.3405 78.8512
" />
<path d="M99.3405 78.8512
L99.5310 78.8512
" />
<path d="M99.5310 78.8512
L99.6262 78.8988
" />
<path d="M99.6262 78.8988
L99.6738 78.9464
" />
<path d="M99.6738 78.9464
L99.7215 79.0417
" />
<path d="M99.7215 79.0417
L99.7215 79.2321
" />
<path d="M99.7215 79.2321
L99.6738 79.3274
" />
<path d="M99.6738 79.3274
L99.6262 79.3750
" />
<path d="M99.6262 79.3750
L99.5310 79.4226
" />
<path d="M99.5310 79.4226
L99.3405 79.4226
" />
<path d="M99.3405 79.4226
L99.2453 79.3750
" />
<path d="M99.2453 79.3750
L99.1977 79.3274
" />
<path d="M99.1977 79.3274
L99.1500 79.2321
" />
<path d="M99.1500 79.2321
L99.1500 79.0417
" />
<path d="M99.1500 79.0417
L99.1977 78.9464
" />
<path d="M99.1977 78.9464
L99.2453 78.8988
" />
<path d="M99.2453 78.8988
L99.3405 78.8512
" />
<path d="M98.7215 79.4226
L98.7215 78.4226
" />
<path d="M98.7215 78.4226
L98.3405 78.4226
" />
<path d="M98.3405 78.4226
L98.2453 78.4702
" />
<path d="M98.2453 78.4702
L98.1977 78.5179
" />
<path d="M98.1977 78.5179
L98.1500 78.6131
" />
<path d="M98.1500 78.6131
L98.1500 78.7560
" />
<path d="M98.1500 78.7560
L98.1977 78.8512
" />
<path d="M98.1977 78.8512
L98.2453 78.8988
" />
<path d="M98.2453 78.8988
L98.3405 78.9464
" />
<path d="M98.3405 78.9464
L98.7215 78.9464
" />
</g><path style="fill:#000000; fill-opacity:1.0000; 
stroke:#000000; stroke-width:0.0100; stroke-opacity:1; 
stroke-linecap:round; stroke-linejoin:round;fill-rule:evenodd;"
d="M 100.8082,105.4497
100.8339,105.4654
100.8606,105.4870
100.8606,106.1345
100.8339,106.1561
100.8026,106.1735
100.7668,106.1744
100.7353,106.1539
100.7315,106.1492
100.7260,106.1397
100.7218,106.1261
100.7187,106.1055
100.7165,106.0756
100.7151,106.0335
100.7143,105.9767
100.7139,105.9026
100.7138,105.8086
100.7138,105.4870
100.7405,105.4654
100.7642,105.4507
100.7872,105.4439
Z" /> 
<path style="fill:#000000; fill-opacity:1.0000; 
stroke:#000000; stroke-width:0.0100; stroke-opacity:1; 
stroke-linecap:round; stroke-linejoin:round;fill-rule:evenodd;"
d="M 107.9389,105.4483
107.9731,105.4716
108.0008,105.4993
108.0008,105.8123
108.0008,105.8964
108.0005,105.9706
107.9998,106.0273
107.9986,106.0693
107.9965,106.0992
107.9934,106.1197
107.9891,106.1334
107.9835,106.1431
107.9763,106.1515
107.9448,106.1730
107.9096,106.1747
107.8766,106.1551
107.8713,106.1492
107.8659,106.1401
107.8617,106.1268
107.8586,106.1066
107.8565,106.0768
107.8552,106.0350
107.8544,105.9785
107.8541,105.9046
107.8540,105.8108
107.8541,105.7351
107.8543,105.6572
107.8550,105.5972
107.8562,105.5524
107.8581,105.5204
107.8610,105.4984
107.8649,105.4838
107.8700,105.4740
107.8766,105.4664
107.9058,105.4474
Z" /> 
<path style="fill:#000000; fill-opacity:1.0000; 
stroke:#000000; stroke-width:0.0100; stroke-opacity:1; 
stroke-linecap:round; stroke-linejoin:round;fill-rule:evenodd;"
d="M 107.4074,100.2077
107.4901,100.2349
107.5652,100.2803
107.6371,100.3461
107.6756,100.3904
107.7151,100.4488
107.7402,100.5094
107.7537,100.5787
107.7577,100.6630
107.7575,100.7091
107.7553,100.7502
107.7497,100.7824
107.7394,100.8129
107.7229,100.8493
107.7090,100.8765
107.6505,100.9622
107.5784,101.0314
107.4947,101.0825
107.4013,101.1140
107.3682,101.1210
107.3278,101.1279
107.2948,101.1297
107.2605,101.1267
107.2160,101.1192
107.1647,101.1068
107.0742,101.0689
106.9951,101.0146
106.9293,100.9466
106.8786,100.8673
106.8449,100.7795
106.8301,100.6856
106.8359,100.5883
106.8622,100.4920
106.9072,100.4033
106.9682,100.3282
107.0430,100.2684
107.1296,100.2256
107.2258,100.2014
107.3297,100.1974
Z" /> 
<path style="fill:#000000; fill-opacity:1.0000; 
stroke:#000000; stroke-width:0.0100; stroke-opacity:1; 
stroke-linecap:round; stroke-linejoin:round;fill-rule:evenodd;"
d="M 100.1086,105.4439
100.2027,105.4440
100.2772,105.4443
100.3346,105.4450
100.3774,105.4463
100.4081,105.4483
100.4292,105.4512
100.4432,105.4551
100.4526,105.4601
100.4598,105.4664
100.4786,105.4992
100.4801,105.5367
100.4637,105.5700
100.4624,105.5714
100.4512,105.5798
100.4341,105.5853
100.4069,105.5886
100.3655,105.5902
100.3057,105.5906
100.1663,105.5906
100.1663,105.8544
100.1662,105.9302
100.1658,105.9969
100.1648,106.0467
100.1630,106.0826
100.1602,106.1076
100.1561,106.1249
100.1504,106.1373
100.1429,106.1479
100.1406,106.1507
100.1094,106.1733
100.0751,106.1749
100.0421,106.1551
100.0352,106.1470
100.0297,106.1364
100.0257,106.1205
100.0229,106.0966
100.0211,106.0616
100.0201,106.0127
100.0197,105.9470
100.0196,105.8616
100.0196,105.5906
99.8736,105.5906
99.8625,105.5906
99.8060,105.5904
99.7672,105.5893
99.7418,105.5865
99.7256,105.5812
99.7145,105.5729
99.7041,105.5606
99.6882,105.5299
99.6913,105.4962
99.7170,105.4636
99.7219,105.4599
99.7321,105.4551
99.7476,105.4513
99.7707,105.4485
99.8040,105.4465
99.8499,105.4451
99.9110,105.4443
99.9897,105.4440
100.0885,105.4439
Z" /> 
<path style="fill:#000000; fill-opacity:1.0000; 
stroke:#000000; stroke-width:0.0100; stroke-opacity:1; 
stroke-linecap:round; stroke-linejoin:round;fill-rule:evenodd;"
d="M 99.4325,105.4664
99.4382,105.4726
99.4433,105.4808
99.4473,105.4926
99.4505,105.5101
99.4529,105.5353
99.4545,105.5705
99.4556,105.6177
99.4561,105.6790
99.4562,105.7565
99.4559,105.8524
99.4554,105.9688
99.4554,105.9830
99.4548,106.0447
99.4534,106.0884
99.4509,106.1178
99.4466,106.1367
99.4402,106.1488
99.4311,106.1579
99.3976,106.1753
99.3627,106.1724
99.3318,106.1479
99.3227,106.1347
99.3153,106.1162
99.3109,106.0901
99.3089,106.0516
99.3084,105.9955
99.3084,105.8728
98.8116,105.8728
98.8116,106.0077
98.8116,106.0435
98.8108,106.0898
98.8086,106.1203
98.8043,106.1394
98.7972,106.1512
98.7866,106.1601
98.7543,106.1751
98.7190,106.1725
98.6883,106.1479
98.6836,106.1416
98.6777,106.1311
98.6732,106.1172
98.6698,106.0971
98.6676,106.0682
98.6661,106.0276
98.6653,105.9726
98.6650,105.9006
98.6649,105.8087
98.6649,105.4993
98.6926,105.4716
98.7240,105.4493
98.7572,105.4466
98.7891,105.4664
98.7974,105.4762
98.8048,105.4921
98.8091,105.5161
98.8111,105.5529
98.8116,105.6076
98.8116,105.7261
99.3084,105.7261
99.3084,105.6106
99.3088,105.5589
99.3108,105.5244
99.3153,105.5018
99.3234,105.4859
99.3361,105.4716
99.3674,105.4493
99.4007,105.4466
Z" /> 
<path style="fill:#000000; fill-opacity:1.0000; 
stroke:#000000; stroke-width:0.0100; stroke-opacity:1; 
stroke-linecap:round; stroke-linejoin:round;fill-rule:evenodd;"
d="M 104.1379,106.0552
104.1360,106.0880
104.1330,106.1109
104.1290,106.1267
104.1235,106.1381
104.1166,106.1479
104.0932,106.1776
103.9275,106.1771
103.8927,106.1768
103.7942,106.1733
103.7133,106.1656
103.6462,106.1531
103.5893,106.1350
103.5390,106.1109
103.5356,106.1089
103.4778,106.0722
103.4354,106.0353
103.4026,105.9918
103.3734,105.9355
103.3691,105.9259
103.3466,105.8627
103.3408,105.8171
103.4901,105.8171
103.4957,105.8419
103.5014,105.8577
103.5343,105.9176
103.5817,105.9634
103.6455,105.9965
103.7277,106.0186
103.7305,106.0191
103.7767,106.0251
103.8331,106.0293
103.8881,106.0309
103.9820,106.0309
103.9820,105.5906
103.8945,105.5911
103.8275,105.5935
103.7351,105.6048
103.6558,105.6243
103.5939,105.6513
103.5629,105.6720
103.5348,105.7018
103.5115,105.7442
103.5043,105.7602
103.4925,105.7927
103.4901,105.8171
103.3408,105.8171
103.3396,105.8073
103.3482,105.7523
103.3723,105.6902
103.3731,105.6885
103.4136,105.6190
103.4643,105.5624
103.5270,105.5179
103.6036,105.4845
103.6958,105.4617
103.8055,105.4484
103.9345,105.4441
103.9381,105.4441
103.9981,105.4442
104.0400,105.4452
104.0681,105.4478
104.0867,105.4527
104.1000,105.4603
104.1123,105.4716
104.1400,105.4993
104.1400,105.8087
104.1400,105.8703
104.1397,105.9491
104.1391,106.0098
104.1386,106.0309
Z" /> 
<path style="fill:#000000; fill-opacity:1.0000; 
stroke:#000000; stroke-width:0.0100; stroke-opacity:1; 
stroke-linecap:round; stroke-linejoin:round;fill-rule:evenodd;"
d="M 111.2296,105.6292
111.2297,105.7098
111.2294,105.8108
111.2294,105.8864
111.2291,105.9643
111.2285,106.0243
111.2273,106.0691
111.2253,106.1011
111.2225,106.1231
111.2186,106.1377
111.2134,106.1475
111.2068,106.1551
111.1999,106.1613
111.1869,106.1686
111.1677,106.1734
111.1383,106.1761
111.0946,106.1773
111.0323,106.1776
110.9834,106.1773
110.8765,106.1728
110.7873,106.1628
110.7125,106.1462
110.6489,106.1222
110.5934,106.0901
110.5427,106.0490
110.5367,106.0431
110.4998,105.9946
110.4687,105.9338
110.4472,105.8696
110.4419,105.8308
110.5892,105.8308
110.6074,105.8818
110.6371,105.9277
110.6838,105.9701
110.7452,105.9999
110.8243,106.0190
110.8258,106.0193
110.8748,106.0251
110.9335,106.0292
110.9895,106.0308
111.0827,106.0309
111.0827,105.5906
111.0065,105.5906
111.0034,105.5906
110.9523,105.5926
110.8922,105.5973
110.8355,105.6038
110.7856,105.6131
110.7108,105.6394
110.6533,105.6787
110.6118,105.7317
110.5906,105.7830
110.5892,105.8308
110.4419,105.8308
110.4392,105.8108
110.4405,105.7895
110.4528,105.7321
110.4753,105.6722
110.5045,105.6182
110.5370,105.5783
110.5565,105.5613
110.6112,105.5221
110.6715,105.4920
110.7407,105.4700
110.8221,105.4553
110.9190,105.4471
111.0347,105.4443
111.0742,105.4439
111.1199,105.4435
111.1557,105.4453
111.1828,105.4515
111.2024,105.4646
111.2156,105.4866
111.2238,105.5199
111.2281,105.5667
111.2287,105.5906
Z" /> 
<path style="fill:#000000; fill-opacity:1.0000; 
stroke:#000000; stroke-width:0.0100; stroke-opacity:1; 
stroke-linecap:round; stroke-linejoin:round;fill-rule:evenodd;"
d="M 106.2847,105.4427
106.2961,105.4488
106.3066,105.4595
106.3179,105.4736
106.3224,105.4796
106.3284,105.4901
106.3330,105.5039
106.3363,105.5238
106.3386,105.5525
106.3401,105.5928
106.3409,105.6475
106.3413,105.7192
106.3413,105.8108
106.3413,105.8693
106.3411,105.9484
106.3405,106.0093
106.3393,106.0549
106.3373,106.0878
106.3344,106.1108
106.3303,106.1266
106.3249,106.1381
106.3179,106.1479
106.2875,106.1723
106.2526,106.1752
106.2156,106.1561
106.2114,106.1526
106.2032,106.1441
106.1972,106.1325
106.1928,106.1147
106.1896,106.0873
106.1873,106.0472
106.1853,105.9909
106.1833,105.9154
106.1776,105.6963
105.9124,105.9369
105.8385,106.0037
105.7733,106.0618
105.7211,106.1067
105.6801,106.1397
105.6483,106.1617
105.6238,106.1739
105.6049,106.1774
105.5897,106.1734
105.5762,106.1630
105.5627,106.1473
105.5565,106.1388
105.5508,106.1282
105.5466,106.1141
105.5437,106.0936
105.5418,106.0641
105.5409,106.0230
105.5408,105.9673
105.5412,105.8946
105.5422,105.8020
105.5455,105.4870
105.5721,105.4654
105.5982,105.4492
105.6310,105.4465
105.6656,105.4654
105.6699,105.4690
105.6780,105.4775
105.6840,105.4891
105.6884,105.5070
105.6915,105.5345
105.6939,105.5748
105.6958,105.6312
105.6979,105.7068
105.7035,105.9267
105.8841,105.7629
105.9709,105.6843
106.0466,105.6159
106.1088,105.5605
106.1589,105.5171
106.1985,105.4847
106.2293,105.4621
106.2529,105.4482
106.2708,105.4421
Z" /> 
<path style="fill:#000000; fill-opacity:1.0000; 
stroke:#000000; stroke-width:0.0100; stroke-opacity:1; 
stroke-linecap:round; stroke-linejoin:round;fill-rule:evenodd;"
d="M 107.0819,105.4490
107.1880,105.4653
107.2818,105.4933
107.3606,105.5323
107.4215,105.5811
107.4476,105.6140
107.4771,105.6632
107.5024,105.7171
107.5200,105.7682
107.5267,105.8093
107.5251,105.8291
107.5122,105.8804
107.4890,105.9369
107.4591,105.9908
107.4260,106.0343
107.4158,106.0447
107.3487,106.0965
107.2686,106.1364
107.1824,106.1608
107.1274,106.1689
107.0339,106.1755
106.9442,106.1734
106.8617,106.1631
106.7901,106.1453
106.7330,106.1203
106.6941,106.0888
106.6927,106.0868
106.6856,106.0616
106.6814,106.0143
106.6800,105.9449
106.6809,105.8826
106.6856,105.8353
106.6973,105.8032
106.7190,105.7836
106.7540,105.7739
106.8053,105.7712
106.8759,105.7730
106.9245,105.7760
106.9747,105.7842
107.0072,105.7982
107.0247,105.8195
107.0298,105.8492
107.0297,105.8537
107.0210,105.8885
106.9970,105.9119
106.9557,105.9251
106.8952,105.9293
106.8268,105.9293
106.8268,105.9676
106.8268,105.9768
106.8290,105.9940
106.8383,106.0043
106.8597,106.0113
106.8982,106.0184
106.9037,106.0194
107.0007,106.0293
107.0907,106.0264
107.1716,106.0116
107.2413,105.9861
107.2976,105.9508
107.3385,105.9067
107.3619,105.8548
107.3655,105.7962
107.3599,105.7673
107.3333,105.7114
107.2871,105.6657
107.2221,105.6309
107.1390,105.6075
107.1144,105.6030
107.0250,105.5925
106.9452,105.5938
106.8671,105.6067
106.8320,105.6135
106.7865,105.6145
106.7552,105.6020
106.7351,105.5752
106.7287,105.5469
106.7382,105.5157
106.7475,105.5023
106.7817,105.4788
106.8344,105.4609
106.9029,105.4494
106.9848,105.4450
Z" /> 
<path style="fill:#000000; fill-opacity:1.0000; 
stroke:#000000; stroke-width:0.0100; stroke-opacity:1; 
stroke-linecap:round; stroke-linejoin:round;fill-rule:evenodd;"
d="M 105.1326,105.4736
105.1376,105.4803
105.1434,105.4909
105.1479,105.5050
105.1511,105.5253
105.1534,105.5546
105.1548,105.5955
105.1556,105.6509
105.1559,105.7234
105.1560,105.8158
105.1560,105.8817
105.1557,105.9600
105.1551,106.0203
105.1539,106.0652
105.1520,106.0974
105.1491,106.1196
105.1451,106.1345
105.1398,106.1447
105.1330,106.1529
105.1285,106.1576
105.1202,106.1641
105.1089,106.1690
105.0916,106.1725
105.0657,106.1750
105.0282,106.1765
104.9766,106.1773
104.9079,106.1776
104.8194,106.1776
104.7997,106.1776
104.7127,106.1774
104.6451,106.1766
104.5941,106.1752
104.5572,106.1730
104.5316,106.1698
104.5147,106.1656
104.5038,106.1601
104.4933,106.1501
104.4800,106.1190
104.4812,106.0831
104.4973,106.0515
104.4995,106.0493
104.5082,106.0430
104.5216,106.0383
104.5426,106.0350
104.5742,106.0329
104.6194,106.0316
104.6812,106.0310
104.7626,106.0309
105.0092,106.0309
105.0092,105.8728
104.8468,105.8728
104.8111,105.8728
104.7554,105.8720
104.7162,105.8700
104.6898,105.8663
104.6721,105.8606
104.6591,105.8524
104.6555,105.8492
104.6371,105.8182
104.6364,105.7819
104.6540,105.7483
104.6540,105.7482
104.6637,105.7396
104.6770,105.7335
104.6977,105.7296
104.7296,105.7274
104.7765,105.7263
104.8422,105.7261
105.0104,105.7261
105.0070,105.6612
105.0036,105.5963
104.7615,105.5932
104.7365,105.5929
104.6549,105.5914
104.5926,105.5890
104.5470,105.5850
104.5155,105.5787
104.4955,105.5694
104.4844,105.5563
104.4797,105.5388
104.4787,105.5161
104.4787,105.5138
104.4798,105.4937
104.4846,105.4779
104.4954,105.4659
104.5146,105.4571
104.5445,105.4510
104.5876,105.4471
104.6461,105.4450
104.7225,105.4441
104.8190,105.4439
105.1092,105.4439
Z" /> 
<path style="fill:#000000; fill-opacity:1.0000; 
stroke:#000000; stroke-width:0.0100; stroke-opacity:1; 
stroke-linecap:round; stroke-linejoin:round;fill-rule:evenodd;"
d="M 109.8095,105.4439
109.8866,105.4441
109.9456,105.4447
109.9892,105.4459
110.0202,105.4479
110.0414,105.4509
110.0557,105.4552
110.0657,105.4610
110.0744,105.4684
110.0762,105.4701
110.0834,105.4776
110.0891,105.4866
110.0933,105.4998
110.0964,105.5197
110.0984,105.5490
110.0996,105.5903
110.1003,105.6462
110.1005,105.7195
110.1005,105.8127
110.1005,105.8855
110.1002,105.9637
110.0996,106.0239
110.0984,106.0688
110.0965,106.1010
110.0936,106.1230
110.0897,106.1377
110.0846,106.1475
110.0780,106.1551
110.0746,106.1582
110.0661,106.1644
110.0541,106.1690
110.0359,106.1725
110.0087,106.1748
109.9699,106.1764
109.9167,106.1772
109.8464,106.1776
109.7562,106.1776
109.7141,106.1776
109.6330,106.1775
109.5705,106.1769
109.5239,106.1758
109.4905,106.1739
109.4676,106.1711
109.4525,106.1671
109.4423,106.1619
109.4345,106.1551
109.4198,106.1335
109.4119,106.1043
109.4174,106.0804
109.4345,106.0535
109.4395,106.0489
109.4492,106.0426
109.4634,106.0379
109.4849,106.0347
109.5168,106.0327
109.5621,106.0315
109.6240,106.0310
109.7054,106.0309
109.9538,106.0309
109.9538,105.8728
109.7926,105.8728
109.7568,105.8727
109.6912,105.8710
109.6439,105.8665
109.6122,105.8584
109.5931,105.8457
109.5837,105.8274
109.5812,105.8025
109.5820,105.7823
109.5873,105.7605
109.6001,105.7451
109.6234,105.7351
109.6603,105.7294
109.7138,105.7267
109.7868,105.7261
109.9549,105.7261
109.9515,105.6612
109.9481,105.5963
109.7004,105.5932
109.6378,105.5923
109.5694,105.5909
109.5185,105.5890
109.4822,105.5863
109.4577,105.5827
109.4420,105.5779
109.4323,105.5717
109.4263,105.5653
109.4133,105.5336
109.4168,105.4979
109.4366,105.4669
109.4399,105.4640
109.4488,105.4576
109.4610,105.4528
109.4790,105.4492
109.5056,105.4467
109.5438,105.4452
109.5962,105.4443
109.6656,105.4439
109.7548,105.4439
Z" /> 
<path style="fill:#000000; fill-opacity:1.0000; 
stroke:#000000; stroke-width:0.0100; stroke-opacity:1; 
stroke-linecap:round; stroke-linejoin:round;fill-rule:evenodd;"
d="M 101.2425,105.4533
101.2605,105.4718
101.2811,105.5029
101.3059,105.5486
101.3365,105.6109
101.3746,105.6919
101.3893,105.7233
101.4190,105.7864
101.4451,105.8410
101.4661,105.8841
101.4805,105.9126
101.4870,105.9236
101.4883,105.9230
101.4983,105.9090
101.5156,105.8795
101.5382,105.8379
101.5641,105.7877
101.5801,105.7562
101.6091,105.7009
101.6315,105.6618
101.6498,105.6364
101.6659,105.6216
101.6821,105.6148
101.7007,105.6132
101.7112,105.6137
101.7273,105.6179
101.7426,105.6287
101.7592,105.6490
101.7792,105.6815
101.8046,105.7288
101.8376,105.7938
101.8473,105.8131
101.8717,105.8597
101.8920,105.8959
101.9061,105.9183
101.9123,105.9236
101.9136,105.9204
101.9230,105.8995
101.9399,105.8625
101.9628,105.8127
101.9903,105.7530
102.0211,105.6867
102.0478,105.6295
102.0774,105.5675
102.1005,105.5217
102.1184,105.4897
102.1328,105.4688
102.1450,105.4565
102.1564,105.4503
102.1658,105.4474
102.1909,105.4472
102.2181,105.4626
102.2194,105.4636
102.2415,105.4862
102.2525,105.5084
102.2526,105.5091
102.2480,105.5267
102.2352,105.5613
102.2154,105.6096
102.1902,105.6686
102.1609,105.7352
102.1290,105.8061
102.0960,105.8783
102.0632,105.9487
102.0321,106.0141
102.0041,106.0714
101.9806,106.1175
101.9631,106.1492
101.9530,106.1635
101.9185,106.1769
101.8768,106.1705
101.8715,106.1658
101.8557,106.1437
101.8334,106.1069
101.8070,106.0592
101.7786,106.0042
101.6988,105.8449
101.6256,105.9915
101.6159,106.0108
101.5889,106.0632
101.5649,106.1080
101.5461,106.1410
101.5349,106.1579
101.5338,106.1591
101.5057,106.1744
101.4706,106.1761
101.4396,106.1635
101.4371,106.1607
101.4249,106.1401
101.4052,106.1025
101.3792,106.0507
101.3485,105.9872
101.3142,105.9148
101.2776,105.8360
101.2574,105.7919
101.2206,105.7112
101.1922,105.6475
101.1711,105.5986
101.1567,105.5621
101.1478,105.5357
101.1438,105.5172
101.1437,105.5042
101.1465,105.4944
101.1612,105.4735
101.1878,105.4532
101.1885,105.4528
101.2081,105.4458
101.2256,105.4453
Z" /> 
<path style="fill:#000000; fill-opacity:1.0000; 
stroke:#000000; stroke-width:0.0100; stroke-opacity:1; 
stroke-linecap:round; stroke-linejoin:round;fill-rule:evenodd;"
d="M 108.7937,105.4447
108.8599,105.4502
108.9152,105.4598
108.9661,105.4746
109.0374,105.5078
109.0886,105.5504
109.1194,105.6025
109.1297,105.6638
109.1288,105.6950
109.1230,105.7198
109.1082,105.7415
109.0802,105.7688
109.0722,105.7762
109.0485,105.7971
109.0261,105.8141
109.0021,105.8280
108.9734,105.8399
108.9373,105.8505
108.8906,105.8609
108.8304,105.8719
108.7539,105.8845
108.6580,105.8996
108.6396,105.9026
108.5773,105.9163
108.5321,105.9320
108.5058,105.9491
108.5002,105.9667
108.5029,105.9710
108.5208,105.9860
108.5489,106.0027
108.5617,106.0087
108.5830,106.0159
108.6094,106.0206
108.6453,106.0234
108.6949,106.0248
108.7628,106.0250
108.7806,106.0250
108.8482,106.0239
108.9131,106.0216
108.9688,106.0186
109.0085,106.0149
109.0440,106.0109
109.0732,106.0101
109.0921,106.0147
109.1072,106.0254
109.1109,106.0289
109.1272,106.0607
109.1259,106.0964
109.1069,106.1270
109.0866,106.1386
109.0506,106.1513
109.0082,106.1613
109.0047,106.1619
108.9621,106.1672
108.9047,106.1715
108.8396,106.1746
108.7741,106.1760
108.7579,106.1760
108.6595,106.1735
108.5795,106.1655
108.5143,106.1510
108.4606,106.1289
108.4150,106.0984
108.3741,106.0583
108.3540,106.0321
108.3424,106.0025
108.3395,105.9628
108.3396,105.9508
108.3435,105.9181
108.3559,105.8916
108.3810,105.8608
108.4022,105.8386
108.4286,105.8161
108.4584,105.7977
108.4946,105.7825
108.5405,105.7692
108.5993,105.7570
108.6743,105.7447
108.7684,105.7312
108.8138,105.7242
108.8817,105.7096
108.9308,105.6931
108.9604,105.6752
108.9697,105.6565
108.9578,105.6374
108.9242,105.6186
108.9212,105.6174
108.8748,105.6053
108.8122,105.5971
108.7387,105.5929
108.6600,105.5930
108.5815,105.5974
108.5088,105.6063
108.5049,105.6070
108.4561,105.6147
108.4238,105.6183
108.4028,105.6177
108.3878,105.6128
108.3733,105.6034
108.3722,105.6025
108.3476,105.5722
108.3429,105.5366
108.3587,105.5021
108.3632,105.4976
108.3928,105.4825
108.4398,105.4693
108.5001,105.4585
108.5697,105.4504
108.6445,105.4452
108.7205,105.4432
Z" /> 
<path style="fill:#000000; fill-opacity:1.0000; 
stroke:#000000; stroke-width:0.0100; stroke-opacity:1; 
stroke-linecap:round; stroke-linejoin:round;fill-rule:evenodd;"
d="M 104.9415,101.1368
105.0371,101.1543
105.2014,101.1994
105.3554,101.2625
105.5013,101.3447
105.6413,101.4473
105.7774,101.5712
105.8213,101.6165
105.9336,101.7487
106.0268,101.8866
106.1035,102.0345
106.1664,102.1966
106.1702,102.2082
106.2203,102.3942
106.2537,102.5903
106.2704,102.7924
106.2704,102.9961
106.2536,103.1974
106.2201,103.3919
106.1698,103.5756
106.1260,103.6929
106.0481,103.8558
105.9546,104.0097
105.8476,104.1515
105.7293,104.2780
105.6019,104.3862
105.5244,104.4389
105.3975,104.5085
105.2600,104.5673
105.1185,104.6124
104.9795,104.6412
104.9654,104.6429
104.9220,104.6462
104.8645,104.6491
104.7989,104.6512
104.7310,104.6523
104.6042,104.6499
104.4565,104.6369
104.3186,104.6119
104.1848,104.5741
104.1614,104.5657
104.1134,104.5462
104.0569,104.5213
103.9952,104.4925
103.9314,104.4616
103.8687,104.4301
103.8105,104.3997
103.7599,104.3721
103.7202,104.3488
103.6947,104.3315
103.6864,104.3219
103.6879,104.3188
103.6990,104.2989
103.7199,104.2632
103.7491,104.2143
103.7850,104.1544
103.8262,104.0862
103.8713,104.0121
104.0526,103.7148
104.0991,103.7593
104.1905,103.8377
104.3041,103.9122
104.4219,103.9663
104.5424,103.9991
104.6639,104.0100
104.7054,104.0087
104.8229,103.9904
104.9329,103.9514
105.0342,103.8925
105.1257,103.8144
105.2062,103.7179
105.2744,103.6038
105.2907,103.5695
105.3368,103.4460
105.3719,103.3077
105.3960,103.1584
105.4090,103.0018
105.4107,102.8418
105.4012,102.6821
105.3804,102.5266
105.3481,102.3792
105.3042,102.2435
105.2668,102.1569
105.2020,102.0435
105.1266,101.9499
105.0402,101.8758
104.9426,101.8209
104.8334,101.7850
104.7122,101.7679
104.6428,101.7667
104.5200,101.7809
104.4045,101.8160
104.2978,101.8715
104.2013,101.9468
104.1855,101.9612
104.1549,101.9878
104.1326,102.0049
104.1225,102.0096
104.1205,102.0074
104.1060,101.9885
104.0822,101.9552
104.0508,101.9102
104.0138,101.8562
103.9729,101.7961
103.9300,101.7325
103.8870,101.6683
103.8457,101.6061
103.8079,101.5488
103.7755,101.4991
103.7504,101.4597
103.7343,101.4334
103.7292,101.4229
103.7338,101.4187
103.7531,101.4137
103.7626,101.4112
103.7906,101.4000
103.8322,101.3816
103.8838,101.3575
103.9415,101.3295
103.9528,101.3240
104.1305,101.2447
104.3003,101.1852
104.4642,101.1450
104.6244,101.1239
104.7828,101.1213
Z" /> 
<path style="fill:#000000; fill-opacity:1.0000; 
stroke:#000000; stroke-width:0.0100; stroke-opacity:1; 
stroke-linecap:round; stroke-linejoin:round;fill-rule:evenodd;"
d="M 101.1388,103.4175
101.1381,103.4950
101.1295,103.6464
101.1106,103.7831
101.0806,103.9091
101.0386,104.0284
100.9838,104.1452
100.9170,104.2560
100.8262,104.3695
100.7225,104.4650
100.6067,104.5419
100.4794,104.5996
100.3413,104.6377
100.3036,104.6435
100.2246,104.6492
100.1364,104.6494
100.0470,104.6443
99.9642,104.6344
99.8957,104.6198
99.8648,104.6102
99.7875,104.5799
99.7105,104.5424
99.6410,104.5014
99.5864,104.4607
99.5637,104.4413
99.5410,104.4235
99.5296,104.4166
99.5283,104.4182
99.5255,104.4360
99.5236,104.4692
99.5228,104.5125
99.5228,104.6085
98.6647,104.6085
98.6990,104.5478
98.7042,104.5387
98.7125,104.5240
98.7201,104.5100
98.7269,104.4953
98.7330,104.4790
98.7385,104.4600
98.7433,104.4371
98.7475,104.4092
98.7512,104.3753
98.7543,104.3342
98.7570,104.2848
98.7593,104.2261
98.7611,104.1569
98.7626,104.0761
98.7638,103.9827
98.7646,103.8755
98.7653,103.7534
98.7657,103.6154
98.7660,103.4603
98.7662,103.2870
98.7662,103.0944
98.7663,102.8815
98.7663,102.7453
99.5680,102.7453
99.5680,103.8955
99.6386,103.9419
99.6792,103.9656
99.7333,103.9914
99.7825,104.0096
99.8460,104.0254
99.9421,104.0363
100.0267,104.0282
100.1000,104.0006
100.1624,103.9534
100.2143,103.8865
100.2560,103.7994
100.2878,103.6921
100.2903,103.6798
100.2988,103.6186
100.3045,103.5415
100.3074,103.4538
100.3076,103.3607
100.3051,103.2675
100.3001,103.1794
100.2924,103.1016
100.2822,103.0393
100.2810,103.0335
100.2519,102.9229
100.2174,102.8324
100.1763,102.7598
100.1273,102.7030
100.0694,102.6600
100.0374,102.6444
99.9646,102.6255
99.8832,102.6223
99.7981,102.6342
99.7139,102.6608
99.6354,102.7018
99.5680,102.7453
98.7663,102.7453
98.7663,102.6470
98.7665,100.9622
99.6718,100.9622
99.6474,100.9989
99.6411,101.0084
99.6150,101.0548
99.5973,101.1019
99.5857,101.1571
99.5781,101.2275
99.5776,101.2344
99.5759,101.2724
99.5742,101.3264
99.5728,101.3935
99.5715,101.4711
99.5705,101.5563
99.5696,101.6465
99.5690,101.7389
99.5686,101.8307
99.5685,101.9192
99.5686,102.0017
99.5690,102.0753
99.5697,102.1373
99.5706,102.1851
99.5719,102.2157
99.5735,102.2265
99.5818,102.2221
99.6034,102.2072
99.6328,102.1852
99.6817,102.1510
99.7699,102.1045
99.8687,102.0708
99.9813,102.0490
100.1110,102.0381
100.2035,102.0370
100.3248,102.0468
100.4349,102.0710
100.5382,102.1106
100.6391,102.1667
100.6843,102.1977
100.7897,102.2889
100.8813,102.3979
100.9591,102.5245
101.0230,102.6686
101.0730,102.8301
101.1090,103.0089
101.1309,103.2047
101.1367,103.3607
Z" /> 
<path style="fill:#000000; fill-opacity:1.0000; 
stroke:#000000; stroke-width:0.0100; stroke-opacity:1; 
stroke-linecap:round; stroke-linejoin:round;fill-rule:evenodd;"
d="M 103.6806,103.8183
103.6801,103.8522
103.6764,103.9270
103.6688,103.9892
103.6565,104.0458
103.6121,104.1719
103.5492,104.2865
103.4690,104.3874
103.3725,104.4737
103.2606,104.5447
103.1342,104.5996
102.9942,104.6374
102.9579,104.6432
102.8790,104.6491
102.7906,104.6494
102.7009,104.6445
102.6175,104.6345
102.5485,104.6198
102.4620,104.5895
102.3521,104.5349
102.2548,104.4673
102.1927,104.4164
102.1894,104.5124
102.1861,104.6085
101.7632,104.6085
101.7523,104.6085
101.6579,104.6082
101.5711,104.6074
101.4946,104.6063
101.4308,104.6047
101.3822,104.6029
101.3512,104.6009
101.3404,104.5987
101.3404,104.5983
101.3474,104.5827
101.3632,104.5599
101.3675,104.5544
101.3786,104.5404
101.3881,104.5270
101.3963,104.5125
101.4032,104.4954
101.4089,104.4738
101.4137,104.4463
101.4175,104.4111
101.4206,104.3666
101.4231,104.3110
101.4251,104.2429
101.4267,104.1604
101.4280,104.0620
101.4292,103.9460
101.4304,103.8108
101.4314,103.6994
102.2322,103.6994
102.2322,103.8953
102.2768,103.9518
102.2896,103.9670
102.3364,104.0096
102.3971,104.0455
102.4077,104.0506
102.4465,104.0675
102.4815,104.0777
102.5215,104.0831
102.5753,104.0858
102.5934,104.0862
102.6688,104.0833
102.7295,104.0714
102.7813,104.0488
102.8295,104.0140
102.8346,104.0096
102.8831,103.9540
102.9113,103.8901
102.9206,103.8151
102.9133,103.7435
102.8886,103.6804
102.8440,103.6226
102.7891,103.5756
102.7167,103.5358
102.6301,103.5081
102.5275,103.4919
102.4067,103.4866
102.3978,103.4867
102.3425,103.4875
102.2955,103.4893
102.2618,103.4919
102.2458,103.4951
102.2417,103.5015
102.2374,103.5237
102.2344,103.5628
102.2327,103.6207
102.2322,103.6994
101.4314,103.6994
101.4318,103.6546
101.4330,103.5118
101.4345,103.3667
101.4360,103.2408
101.4377,103.1322
101.4399,103.0391
101.4425,102.9597
101.4457,102.8921
101.4497,102.8344
101.4545,102.7850
101.4604,102.7418
101.4674,102.7032
101.4757,102.6672
101.4854,102.6321
101.4966,102.5959
101.5094,102.5570
101.5249,102.5139
101.5678,102.4217
101.6215,102.3419
101.6904,102.2678
101.7680,102.2042
101.8726,102.1425
101.9920,102.0950
102.1273,102.0614
102.2792,102.0414
102.4487,102.0347
102.5067,102.0351
102.5722,102.0371
102.6335,102.0415
102.6949,102.0488
102.7607,102.0598
102.8353,102.0749
102.9230,102.0950
103.0280,102.1206
103.0566,102.1276
103.1319,102.1456
103.2022,102.1616
103.2634,102.1748
103.3112,102.1843
103.3413,102.1890
103.3696,102.1927
103.3959,102.1980
103.4059,102.2027
103.4028,102.2116
103.3920,102.2389
103.3747,102.2817
103.3519,102.3372
103.3249,102.4026
103.2949,102.4749
103.2883,102.4907
103.2497,102.5813
103.2186,102.6510
103.1947,102.7002
103.1780,102.7292
103.1683,102.7383
103.1606,102.7362
103.1342,102.7266
103.0958,102.7110
103.0506,102.6916
102.9561,102.6536
102.8193,102.6126
102.6781,102.5874
102.6401,102.5834
102.5369,102.5812
102.4498,102.5944
102.3779,102.6236
102.3205,102.6693
102.2767,102.7322
102.2456,102.8129
102.2263,102.9120
102.2188,102.9710
102.3807,102.9642
102.5073,102.9626
102.6588,102.9690
102.8072,102.9836
102.9434,103.0057
103.0080,103.0206
103.1403,103.0635
103.2626,103.1201
103.3725,103.1888
103.4677,103.2680
103.5458,103.3560
103.6044,103.4513
103.6284,103.5037
103.6540,103.5744
103.6703,103.6456
103.6786,103.7245
103.6805,103.8151
Z" /> 
<path style="fill:#000000; fill-opacity:1.0000; 
stroke:#000000; stroke-width:0.0100; stroke-opacity:1; 
stroke-linecap:round; stroke-linejoin:round;fill-rule:evenodd;"
d="M 111.2284,101.2866
111.2289,101.4178
111.2292,101.5650
111.2293,101.7291
111.2294,101.9112
111.2295,102.1120
111.2295,102.3325
111.2294,102.5738
111.2294,102.8367
111.2294,102.8788
111.2294,103.1395
111.2295,103.3786
111.2295,103.5972
111.2295,103.7961
111.2294,103.9763
111.2292,104.1388
111.2289,104.2845
111.2284,104.4142
111.2277,104.5290
111.2268,104.6298
111.2256,104.7175
111.2242,104.7931
111.2224,104.8574
111.2203,104.9115
111.2179,104.9562
111.2150,104.9925
111.2117,105.0213
111.2080,105.0435
111.2038,105.0602
111.1990,105.0722
111.1937,105.0804
111.1879,105.0859
111.1814,105.0894
111.1743,105.0921
111.1665,105.0947
111.1581,105.0983
111.1537,105.0999
111.1452,105.1019
111.1325,105.1037
111.1147,105.1054
111.0908,105.1068
111.0601,105.1082
111.0214,105.1094
110.9740,105.1105
110.9168,105.1115
110.8491,105.1123
110.7698,105.1131
110.6780,105.1137
110.5728,105.1142
110.4534,105.1147
110.3187,105.1151
110.1679,105.1154
110.0000,105.1157
109.8141,105.1159
109.6094,105.1160
109.3848,105.1161
109.1395,105.1162
108.8725,105.1162
108.8341,105.1162
108.5687,105.1163
108.3248,105.1163
108.1016,105.1163
107.8980,105.1163
107.7132,105.1162
107.5462,105.1160
107.3961,105.1157
107.2620,105.1153
107.1430,105.1147
107.0381,105.1139
106.9464,105.1129
106.8670,105.1116
106.7990,105.1101
106.7415,105.1084
106.6935,105.1063
106.6540,105.1038
106.6223,105.1011
106.5973,105.0979
106.5782,105.0944
106.5639,105.0904
106.5537,105.0860
106.5465,105.0811
106.5414,105.0757
106.5376,105.0698
106.5341,105.0633
106.5299,105.0563
106.5288,105.0545
106.5266,105.0490
106.5246,105.0407
106.5227,105.0286
106.5211,105.0119
106.5195,104.9895
106.5182,104.9605
106.5170,104.9241
106.5159,104.8792
106.5149,104.8249
106.5141,104.7602
106.5134,104.6843
106.5128,104.5961
106.5127,104.5873
106.8042,104.5873
106.8081,104.5886
106.8313,104.5906
106.8737,104.5924
106.9329,104.5940
107.0069,104.5953
107.0934,104.5963
107.1903,104.5970
107.2952,104.5972
107.9935,104.5972
109.1479,104.5972
109.1473,104.5210
109.1484,104.4790
109.1541,104.4431
109.1667,104.4056
109.1884,104.3574
109.1916,104.3507
109.2170,104.3012
109.2438,104.2532
109.2667,104.2163
109.2713,104.2096
109.2933,104.1784
109.3255,104.1335
109.3663,104.0769
109.4140,104.0110
109.4673,103.9378
109.5245,103.8593
109.5840,103.7779
109.6442,103.6955
109.7037,103.6143
109.7609,103.5365
109.8142,103.4642
109.8620,103.3995
109.9028,103.3446
109.9350,103.3015
109.9570,103.2724
109.9674,103.2595
109.9718,103.2552
109.9760,103.2531
109.9794,103.2557
109.9821,103.2648
109.9841,103.2821
109.9855,103.3094
109.9864,103.3486
109.9868,103.4013
109.9867,103.4695
109.9863,103.5549
109.9855,103.6592
109.9845,103.7844
109.9841,103.8291
109.9830,103.9502
109.9818,104.0515
109.9804,104.1351
109.9789,104.2030
109.9770,104.2574
109.9748,104.3003
109.9720,104.3339
109.9688,104.3602
109.9649,104.3812
109.9603,104.3992
109.9520,104.4256
109.9284,104.4876
109.9025,104.5404
109.8773,104.5774
109.8761,104.5789
109.8740,104.5832
109.8761,104.5868
109.8844,104.5898
109.9007,104.5921
109.9268,104.5939
109.9646,104.5952
110.0158,104.5961
110.0822,104.5967
110.1658,104.5970
110.2683,104.5972
110.3915,104.5972
110.9231,104.5972
110.8843,104.5396
110.8782,104.5307
110.8678,104.5159
110.8584,104.5022
110.8500,104.4886
110.8425,104.4737
110.8360,104.4565
110.8302,104.4357
110.8253,104.4101
110.8211,104.3786
110.8175,104.3399
110.8145,104.2929
110.8121,104.2364
110.8102,104.1692
110.8088,104.0901
110.8077,103.9980
110.8069,103.8915
110.8064,103.7697
110.8062,103.6311
110.8060,103.4748
110.8060,103.2994
110.8061,103.1039
110.8061,102.8869
110.8061,102.7643
110.8060,102.5592
110.8060,102.3749
110.8061,102.2101
110.8063,102.0637
110.8067,101.9345
110.8073,101.8212
110.8082,101.7228
110.8095,101.6379
110.8113,101.5655
110.8135,101.5044
110.8162,101.4533
110.8195,101.4111
110.8235,101.3765
110.8281,101.3485
110.8335,101.3258
110.8398,101.3072
110.8469,101.2915
110.8549,101.2776
110.8640,101.2642
110.8740,101.2503
110.8852,101.2345
110.9250,101.1767
109.8651,101.1767
109.9031,101.2398
109.9178,101.2648
109.9323,101.2924
109.9444,101.3205
109.9543,101.3514
109.9623,101.3871
109.9686,101.4301
109.9734,101.4824
109.9770,101.5462
109.9797,101.6238
109.9817,101.7174
109.9832,101.8291
109.9845,101.9612
109.9854,102.0812
109.9858,102.1979
109.9856,102.2933
109.9847,102.3674
109.9831,102.4197
109.9809,102.4499
109.9780,102.4580
109.9750,102.4547
109.9568,102.4332
109.9271,102.3967
109.8874,102.3472
109.8396,102.2870
109.7851,102.2181
109.7258,102.1427
109.6633,102.0630
109.5992,101.9810
109.5353,101.8990
109.4731,101.8190
109.4145,101.7432
109.3609,101.6738
109.3142,101.6128
109.2760,101.5625
109.2480,101.5249
109.2317,101.5023
109.1864,101.4300
109.1465,101.3503
109.1249,101.2820
109.1216,101.2246
109.1269,101.1767
107.9952,101.1769
108.0347,101.2075
108.0440,101.2149
108.1070,101.2692
108.1758,101.3371
108.2524,101.4203
108.3387,101.5210
108.3559,101.5416
108.3966,101.5912
108.4464,101.6521
108.5038,101.7227
108.5674,101.8012
108.6359,101.8860
108.7079,101.9753
108.7821,102.0675
108.7973,102.0865
108.8570,102.1609
108.9315,102.2536
109.0039,102.3442
109.0731,102.4308
109.1376,102.5117
109.1961,102.5853
109.2473,102.6498
109.2896,102.7036
109.3219,102.7450
109.3427,102.7721
109.3507,102.7835
109.3489,102.7876
109.3360,102.8081
109.3117,102.8444
109.2770,102.8946
109.2333,102.9573
109.1816,103.0307
109.1231,103.1133
109.0590,103.2034
108.9904,103.2994
108.9186,103.3997
108.8447,103.5026
108.7699,103.6064
108.6953,103.7097
108.6222,103.8107
108.5516,103.9078
108.4848,103.9994
108.4229,104.0838
108.3672,104.1595
108.3187,104.2247
108.2786,104.2779
108.2482,104.3175
108.2277,104.3428
108.1817,104.3971
108.1314,104.4536
108.0846,104.5035
107.9935,104.5972
107.2952,104.5972
107.3642,104.5971
107.4624,104.5969
107.5518,104.5964
107.6301,104.5958
107.6950,104.5950
107.7442,104.5941
107.7754,104.5931
107.7863,104.5921
107.7851,104.5888
107.7750,104.5713
107.7578,104.5450
107.7493,104.5325
107.7401,104.5184
107.7320,104.5042
107.7250,104.4883
107.7189,104.4694
107.7138,104.4461
107.7095,104.4171
107.7059,104.3808
107.7031,104.3360
107.7009,104.2811
107.6993,104.2149
107.6982,104.1359
107.6976,104.0427
107.6973,103.9339
107.6973,103.8081
107.6976,103.6639
107.6980,103.5000
107.6985,103.3149
107.6991,103.1360
107.6996,102.9772
107.7001,102.8381
107.7007,102.7175
107.7014,102.6138
107.7022,102.5258
107.7031,102.4520
107.7042,102.3911
107.7055,102.3416
107.7070,102.3021
107.7088,102.2713
107.7109,102.2477
107.7133,102.2301
107.7160,102.2169
107.7192,102.2067
107.7227,102.1983
107.7266,102.1902
107.7462,102.1533
107.7650,102.1232
107.7661,102.1217
107.7804,102.0995
107.7863,102.0865
107.7853,102.0860
107.7681,102.0846
107.7315,102.0833
107.6778,102.0821
107.6094,102.0811
107.5289,102.0804
107.4385,102.0799
107.3407,102.0798
106.8950,102.0798
106.8919,103.2566
106.8888,104.4335
106.8622,104.4924
106.8503,104.5170
106.8330,104.5472
106.8199,104.5644
106.8119,104.5724
106.8042,104.5873
106.5127,104.5873
106.5123,104.4948
106.5118,104.3794
106.5115,104.2490
106.5112,104.1025
106.5110,103.9391
106.5109,103.7579
106.5108,103.5578
106.5107,103.3380
106.5107,103.0975
106.5107,102.8354
106.5107,100.6438
106.5490,100.6054
106.5762,100.5817
106.6031,100.5699
106.6394,100.5671
106.6913,100.5671
106.6913,100.6550
106.6932,100.7049
106.7120,100.8153
106.7490,100.9168
106.8022,101.0080
106.8693,101.0875
106.9484,101.1540
107.0373,101.2062
107.1339,101.2427
107.2361,101.2622
107.3417,101.2634
107.4488,101.2448
107.5550,101.2052
107.6520,101.1473
107.7371,101.0725
107.8058,100.9844
107.8567,100.8854
107.8883,100.7778
107.8992,100.6639
107.8992,100.5671
109.5196,100.5671
109.7307,100.5671
109.9348,100.5671
110.1185,100.5672
110.2828,100.5674
110.4288,100.5676
110.5577,100.5680
110.6705,100.5684
110.7683,100.5689
110.8522,100.5696
110.9233,100.5704
110.9827,100.5713
111.0316,100.5724
111.0709,100.5737
111.1018,100.5751
111.1253,100.5768
111.1427,100.5787
111.1549,100.5808
111.1631,100.5831
111.1683,100.5857
111.1743,100.5892
111.1811,100.5928
111.1873,100.5963
111.1929,100.6007
111.1980,100.6070
111.2027,100.6161
111.2068,100.6289
111.2105,100.6465
111.2138,100.6696
111.2167,100.6993
111.2192,100.7366
111.2213,100.7822
111.2232,100.8373
111.2247,100.9027
111.2260,100.9794
111.2270,101.0683
111.2278,101.1704
111.2278,101.1767
Z" /> 
</g> 
</svg>
