<?xml version="1.0" standalone="no"?>
 <!DOCTYPE svg PUBLIC "-//W3C//DTD SVG 1.1//EN" 
 "http://www.w3.org/Graphics/SVG/1.1/DTD/svg11.dtd"> 
<svg
  xmlns:svg="http://www.w3.org/2000/svg"
  xmlns="http://www.w3.org/2000/svg"
  xmlns:xlink="http://www.w3.org/1999/xlink"
  version="1.1"
  width="297.0022mm" height="210.0072mm" viewBox="0.0000 0.0000 297.0022 210.0072">
<title>SVG Image created as MCU_Data_Logger-B_Mask.svg date 2025/03/12 12:30:11 </title>
  <desc>Image generated by PCBNEW </desc>
<g style="fill:#000000; fill-opacity:1.0000;stroke:#000000; stroke-opacity:1.0000;
stroke-linecap:round; stroke-linejoin:round;"
 transform="translate(0 0) scale(1 1)">
<path style="fill:#000000; fill-opacity:1.0000; stroke:none;fill-rule:evenodd;"
d="M 138.1388,97.4716
138.1388,95.7716
139.8388,95.7716
139.8388,97.4716
Z" /> 
</g>
<g style="fill:#000000; fill-opacity:1.0000; stroke:none;">
<circle cx="141.5288" cy="96.6216" r="0.8500" /> 
<circle cx="138.9888" cy="99.1616" r="0.8500" /> 
<circle cx="141.5288" cy="99.1616" r="0.8500" /> 
<circle cx="138.9888" cy="101.7016" r="0.8500" /> 
<circle cx="141.5288" cy="101.7016" r="0.8500" /> 
<circle cx="96.5200" cy="108.5850" r="1.1000" /> 
</g>
<g style="fill:#000000; fill-opacity:1.0000; stroke:none;">
<circle cx="144.1450" cy="108.5850" r="1.1000" /> 
</g>
<g style="fill:#000000; fill-opacity:1.0000; stroke:none;">
<circle cx="96.5200" cy="73.6600" r="1.1000" /> 
<path style="fill:#000000; fill-opacity:1.0000; stroke:none;fill-rule:evenodd;"
d="M 119.2820,75.0960
120.9820,75.0960
120.9820,76.7960
119.2820,76.7960
Z" /> 
</g>
<g style="fill:#000000; fill-opacity:1.0000; stroke:none;">
<circle cx="117.5920" cy="75.9460" r="0.8500" /> 
<circle cx="115.0520" cy="75.9460" r="0.8500" /> 
<circle cx="112.5120" cy="75.9460" r="0.8500" /> 
<path style="fill:#000000; fill-opacity:1.0000; stroke:none;fill-rule:evenodd;"
d="M 116.0300,106.8950
114.3300,106.8950
114.3300,105.1950
116.0300,105.1950
Z" /> 
<circle cx="117.7200" cy="106.0450" r="0.8500" /> 
<circle cx="120.2600" cy="106.0450" r="0.8500" /> 
<circle cx="122.8000" cy="106.0450" r="0.8500" /> 
<circle cx="125.3400" cy="106.0450" r="0.8500" /> 
<circle cx="127.8800" cy="106.0450" r="0.8500" /> 
<circle cx="130.4200" cy="106.0450" r="0.8500" /> 
<circle cx="132.9600" cy="106.0450" r="0.8500" /> 
<circle cx="135.5000" cy="106.0450" r="0.8500" /> 
<path style="fill:#000000; fill-opacity:1.0000; stroke:none;fill-rule:evenodd;"
d="M 140.2724,81.2664
140.2724,79.5664
141.9724,79.5664
141.9724,81.2664
Z" /> 
<circle cx="141.1224" cy="82.9564" r="0.8500" /> 
<circle cx="144.1450" cy="73.6600" r="1.1000" /> 
<path style="fill:#000000; fill-opacity:1.0000; stroke:none;fill-rule:evenodd;"
d="M 132.2460,75.0960
133.9460,75.0960
133.9460,76.7960
132.2460,76.7960
Z" /> 
</g>
<g style="fill:#000000; fill-opacity:1.0000; stroke:none;">
<circle cx="130.5560" cy="75.9460" r="0.8500" /> 
<circle cx="128.0160" cy="75.9460" r="0.8500" /> 
<circle cx="125.4760" cy="75.9460" r="0.8500" /> 
</g> 
</svg>
