<?xml version="1.0" standalone="no"?>
 <!DOCTYPE svg PUBLIC "-//W3C//DTD SVG 1.1//EN" 
 "http://www.w3.org/Graphics/SVG/1.1/DTD/svg11.dtd"> 
<svg
  xmlns:svg="http://www.w3.org/2000/svg"
  xmlns="http://www.w3.org/2000/svg"
  xmlns:xlink="http://www.w3.org/1999/xlink"
  version="1.1"
  width="297.0022mm" height="210.0072mm" viewBox="0.0000 0.0000 297.0022 210.0072">
<title>SVG Image created as MCU_Data_Logger-User_4.svg date 2025/03/12 12:30:11 </title>
  <desc>Image generated by PCBNEW </desc>
<g style="fill:#000000; fill-opacity:1.0000;stroke:#000000; stroke-opacity:1.0000;
stroke-linecap:round; stroke-linejoin:round;"
 transform="translate(0 0) scale(1 1)">
</g>
<g style="fill:none; 
stroke:#000000; stroke-width:0.1500; stroke-opacity:1; 
stroke-linecap:round; stroke-linejoin:round;">
<g transform="rotate(-89.999997 88.4879 91.1225)">
<text x="88.4879" y="91.6225"
textLength="9.8690" font-size="1.3333" lengthAdjust="spacingAndGlyphs"
text-anchor="middle" opacity="0" stroke-opacity="0">39.8250 mm</text>
</g>
<g class="stroked-text"><desc>39.8250 mm</desc>
<path d="M87.9428 95.7892
L87.9428 95.1701
" />
<path d="M87.9428 95.1701
L88.3237 95.5035
" />
<path d="M88.3237 95.5035
L88.3237 95.3606
" />
<path d="M88.3237 95.3606
L88.3713 95.2654
" />
<path d="M88.3713 95.2654
L88.4189 95.2177
" />
<path d="M88.4189 95.2177
L88.5142 95.1701
" />
<path d="M88.5142 95.1701
L88.7523 95.1701
" />
<path d="M88.7523 95.1701
L88.8475 95.2177
" />
<path d="M88.8475 95.2177
L88.8951 95.2654
" />
<path d="M88.8951 95.2654
L88.9428 95.3606
" />
<path d="M88.9428 95.3606
L88.9428 95.6463
" />
<path d="M88.9428 95.6463
L88.8951 95.7415
" />
<path d="M88.8951 95.7415
L88.8475 95.7892
" />
<path d="M88.9428 94.6939
L88.9428 94.5035
" />
<path d="M88.9428 94.5035
L88.8951 94.4082
" />
<path d="M88.8951 94.4082
L88.8475 94.3606
" />
<path d="M88.8475 94.3606
L88.7047 94.2654
" />
<path d="M88.7047 94.2654
L88.5142 94.2177
" />
<path d="M88.5142 94.2177
L88.1332 94.2177
" />
<path d="M88.1332 94.2177
L88.0380 94.2654
" />
<path d="M88.0380 94.2654
L87.9904 94.3130
" />
<path d="M87.9904 94.3130
L87.9428 94.4082
" />
<path d="M87.9428 94.4082
L87.9428 94.5987
" />
<path d="M87.9428 94.5987
L87.9904 94.6939
" />
<path d="M87.9904 94.6939
L88.0380 94.7415
" />
<path d="M88.0380 94.7415
L88.1332 94.7892
" />
<path d="M88.1332 94.7892
L88.3713 94.7892
" />
<path d="M88.3713 94.7892
L88.4666 94.7415
" />
<path d="M88.4666 94.7415
L88.5142 94.6939
" />
<path d="M88.5142 94.6939
L88.5618 94.5987
" />
<path d="M88.5618 94.5987
L88.5618 94.4082
" />
<path d="M88.5618 94.4082
L88.5142 94.3130
" />
<path d="M88.5142 94.3130
L88.4666 94.2654
" />
<path d="M88.4666 94.2654
L88.3713 94.2177
" />
<path d="M88.8475 93.7892
L88.8951 93.7415
" />
<path d="M88.8951 93.7415
L88.9428 93.7892
" />
<path d="M88.9428 93.7892
L88.8951 93.8368
" />
<path d="M88.8951 93.8368
L88.8475 93.7892
" />
<path d="M88.8475 93.7892
L88.9428 93.7892
" />
<path d="M88.3713 93.1701
L88.3237 93.2654
" />
<path d="M88.3237 93.2654
L88.2761 93.3130
" />
<path d="M88.2761 93.3130
L88.1809 93.3606
" />
<path d="M88.1809 93.3606
L88.1332 93.3606
" />
<path d="M88.1332 93.3606
L88.0380 93.3130
" />
<path d="M88.0380 93.3130
L87.9904 93.2654
" />
<path d="M87.9904 93.2654
L87.9428 93.1701
" />
<path d="M87.9428 93.1701
L87.9428 92.9796
" />
<path d="M87.9428 92.9796
L87.9904 92.8844
" />
<path d="M87.9904 92.8844
L88.0380 92.8368
" />
<path d="M88.0380 92.8368
L88.1332 92.7892
" />
<path d="M88.1332 92.7892
L88.1809 92.7892
" />
<path d="M88.1809 92.7892
L88.2761 92.8368
" />
<path d="M88.2761 92.8368
L88.3237 92.8844
" />
<path d="M88.3237 92.8844
L88.3713 92.9796
" />
<path d="M88.3713 92.9796
L88.3713 93.1701
" />
<path d="M88.3713 93.1701
L88.4189 93.2654
" />
<path d="M88.4189 93.2654
L88.4666 93.3130
" />
<path d="M88.4666 93.3130
L88.5618 93.3606
" />
<path d="M88.5618 93.3606
L88.7523 93.3606
" />
<path d="M88.7523 93.3606
L88.8475 93.3130
" />
<path d="M88.8475 93.3130
L88.8951 93.2654
" />
<path d="M88.8951 93.2654
L88.9428 93.1701
" />
<path d="M88.9428 93.1701
L88.9428 92.9796
" />
<path d="M88.9428 92.9796
L88.8951 92.8844
" />
<path d="M88.8951 92.8844
L88.8475 92.8368
" />
<path d="M88.8475 92.8368
L88.7523 92.7892
" />
<path d="M88.7523 92.7892
L88.5618 92.7892
" />
<path d="M88.5618 92.7892
L88.4666 92.8368
" />
<path d="M88.4666 92.8368
L88.4189 92.8844
" />
<path d="M88.4189 92.8844
L88.3713 92.9796
" />
<path d="M88.0380 92.4082
L87.9904 92.3606
" />
<path d="M87.9904 92.3606
L87.9428 92.2654
" />
<path d="M87.9428 92.2654
L87.9428 92.0273
" />
<path d="M87.9428 92.0273
L87.9904 91.9320
" />
<path d="M87.9904 91.9320
L88.0380 91.8844
" />
<path d="M88.0380 91.8844
L88.1332 91.8368
" />
<path d="M88.1332 91.8368
L88.2285 91.8368
" />
<path d="M88.2285 91.8368
L88.3713 91.8844
" />
<path d="M88.3713 91.8844
L88.9428 92.4558
" />
<path d="M88.9428 92.4558
L88.9428 91.8368
" />
<path d="M87.9428 90.9320
L87.9428 91.4082
" />
<path d="M87.9428 91.4082
L88.4189 91.4558
" />
<path d="M88.4189 91.4558
L88.3713 91.4082
" />
<path d="M88.3713 91.4082
L88.3237 91.3130
" />
<path d="M88.3237 91.3130
L88.3237 91.0749
" />
<path d="M88.3237 91.0749
L88.3713 90.9796
" />
<path d="M88.3713 90.9796
L88.4189 90.9320
" />
<path d="M88.4189 90.9320
L88.5142 90.8844
" />
<path d="M88.5142 90.8844
L88.7523 90.8844
" />
<path d="M88.7523 90.8844
L88.8475 90.9320
" />
<path d="M88.8475 90.9320
L88.8951 90.9796
" />
<path d="M88.8951 90.9796
L88.9428 91.0749
" />
<path d="M88.9428 91.0749
L88.9428 91.3130
" />
<path d="M88.9428 91.3130
L88.8951 91.4082
" />
<path d="M88.8951 91.4082
L88.8475 91.4558
" />
<path d="M87.9428 90.2654
L87.9428 90.1701
" />
<path d="M87.9428 90.1701
L87.9904 90.0749
" />
<path d="M87.9904 90.0749
L88.0380 90.0273
" />
<path d="M88.0380 90.0273
L88.1332 89.9796
" />
<path d="M88.1332 89.9796
L88.3237 89.9320
" />
<path d="M88.3237 89.9320
L88.5618 89.9320
" />
<path d="M88.5618 89.9320
L88.7523 89.9796
" />
<path d="M88.7523 89.9796
L88.8475 90.0273
" />
<path d="M88.8475 90.0273
L88.8951 90.0749
" />
<path d="M88.8951 90.0749
L88.9428 90.1701
" />
<path d="M88.9428 90.1701
L88.9428 90.2654
" />
<path d="M88.9428 90.2654
L88.8951 90.3606
" />
<path d="M88.8951 90.3606
L88.8475 90.4082
" />
<path d="M88.8475 90.4082
L88.7523 90.4558
" />
<path d="M88.7523 90.4558
L88.5618 90.5035
" />
<path d="M88.5618 90.5035
L88.3237 90.5035
" />
<path d="M88.3237 90.5035
L88.1332 90.4558
" />
<path d="M88.1332 90.4558
L88.0380 90.4082
" />
<path d="M88.0380 90.4082
L87.9904 90.3606
" />
<path d="M87.9904 90.3606
L87.9428 90.2654
" />
<path d="M88.9428 88.7415
L88.2761 88.7415
" />
<path d="M88.3713 88.7415
L88.3237 88.6939
" />
<path d="M88.3237 88.6939
L88.2761 88.5987
" />
<path d="M88.2761 88.5987
L88.2761 88.4558
" />
<path d="M88.2761 88.4558
L88.3237 88.3606
" />
<path d="M88.3237 88.3606
L88.4189 88.3130
" />
<path d="M88.4189 88.3130
L88.9428 88.3130
" />
<path d="M88.4189 88.3130
L88.3237 88.2654
" />
<path d="M88.3237 88.2654
L88.2761 88.1701
" />
<path d="M88.2761 88.1701
L88.2761 88.0273
" />
<path d="M88.2761 88.0273
L88.3237 87.9320
" />
<path d="M88.3237 87.9320
L88.4189 87.8844
" />
<path d="M88.4189 87.8844
L88.9428 87.8844
" />
<path d="M88.9428 87.4082
L88.2761 87.4082
" />
<path d="M88.3713 87.4082
L88.3237 87.3606
" />
<path d="M88.3237 87.3606
L88.2761 87.2654
" />
<path d="M88.2761 87.2654
L88.2761 87.1225
" />
<path d="M88.2761 87.1225
L88.3237 87.0273
" />
<path d="M88.3237 87.0273
L88.4189 86.9796
" />
<path d="M88.4189 86.9796
L88.9428 86.9796
" />
<path d="M88.4189 86.9796
L88.3237 86.9320
" />
<path d="M88.3237 86.9320
L88.2761 86.8368
" />
<path d="M88.2761 86.8368
L88.2761 86.6939
" />
<path d="M88.2761 86.6939
L88.3237 86.5987
" />
<path d="M88.3237 86.5987
L88.4189 86.5511
" />
<path d="M88.4189 86.5511
L88.9428 86.5511
" />
</g></g>
<g style="fill:none; 
stroke:#000000; stroke-width:0.1000; stroke-opacity:1; 
stroke-linecap:round; stroke-linejoin:round;">
<path d="M96.0200 71.2100
L89.0515 71.2100
" />
<path d="M96.0200 111.0350
L89.0515 111.0350
" />
<path d="M89.6379 71.2100
L89.6379 111.0350
" />
<path d="M89.6379 71.2100
L89.6379 111.0350
" />
<path d="M89.6379 71.2100
L90.2244 72.3365
" />
<path d="M89.6379 71.2100
L89.0515 72.3365
" />
<path d="M89.6379 111.0350
L89.0515 109.9085
" />
<path d="M89.6379 111.0350
L90.2244 109.9085
" />
</g>
<g style="fill:none; 
stroke:#000000; stroke-width:0.1500; stroke-opacity:1; 
stroke-linecap:round; stroke-linejoin:round;">
<text x="120.3325" y="112.4308"
textLength="9.8690" font-size="1.3333" lengthAdjust="spacingAndGlyphs"
text-anchor="middle" opacity="0" stroke-opacity="0">52.5250 mm</text>
<g class="stroked-text"><desc>52.5250 mm</desc>
<path d="M116.2373 111.3856
L115.7611 111.3856
" />
<path d="M115.7611 111.3856
L115.7135 111.8618
" />
<path d="M115.7135 111.8618
L115.7611 111.8142
" />
<path d="M115.7611 111.8142
L115.8563 111.7666
" />
<path d="M115.8563 111.7666
L116.0944 111.7666
" />
<path d="M116.0944 111.7666
L116.1896 111.8142
" />
<path d="M116.1896 111.8142
L116.2373 111.8618
" />
<path d="M116.2373 111.8618
L116.2849 111.9570
" />
<path d="M116.2849 111.9570
L116.2849 112.1951
" />
<path d="M116.2849 112.1951
L116.2373 112.2904
" />
<path d="M116.2373 112.2904
L116.1896 112.3380
" />
<path d="M116.1896 112.3380
L116.0944 112.3856
" />
<path d="M116.0944 112.3856
L115.8563 112.3856
" />
<path d="M115.8563 112.3856
L115.7611 112.3380
" />
<path d="M115.7611 112.3380
L115.7135 112.2904
" />
<path d="M116.6658 111.4809
L116.7135 111.4332
" />
<path d="M116.7135 111.4332
L116.8087 111.3856
" />
<path d="M116.8087 111.3856
L117.0468 111.3856
" />
<path d="M117.0468 111.3856
L117.1420 111.4332
" />
<path d="M117.1420 111.4332
L117.1896 111.4809
" />
<path d="M117.1896 111.4809
L117.2373 111.5761
" />
<path d="M117.2373 111.5761
L117.2373 111.6713
" />
<path d="M117.2373 111.6713
L117.1896 111.8142
" />
<path d="M117.1896 111.8142
L116.6182 112.3856
" />
<path d="M116.6182 112.3856
L117.2373 112.3856
" />
<path d="M117.6658 112.2904
L117.7135 112.3380
" />
<path d="M117.7135 112.3380
L117.6658 112.3856
" />
<path d="M117.6658 112.3856
L117.6182 112.3380
" />
<path d="M117.6182 112.3380
L117.6658 112.2904
" />
<path d="M117.6658 112.2904
L117.6658 112.3856
" />
<path d="M118.6182 111.3856
L118.1420 111.3856
" />
<path d="M118.1420 111.3856
L118.0944 111.8618
" />
<path d="M118.0944 111.8618
L118.1420 111.8142
" />
<path d="M118.1420 111.8142
L118.2373 111.7666
" />
<path d="M118.2373 111.7666
L118.4754 111.7666
" />
<path d="M118.4754 111.7666
L118.5706 111.8142
" />
<path d="M118.5706 111.8142
L118.6182 111.8618
" />
<path d="M118.6182 111.8618
L118.6658 111.9570
" />
<path d="M118.6658 111.9570
L118.6658 112.1951
" />
<path d="M118.6658 112.1951
L118.6182 112.2904
" />
<path d="M118.6182 112.2904
L118.5706 112.3380
" />
<path d="M118.5706 112.3380
L118.4754 112.3856
" />
<path d="M118.4754 112.3856
L118.2373 112.3856
" />
<path d="M118.2373 112.3856
L118.1420 112.3380
" />
<path d="M118.1420 112.3380
L118.0944 112.2904
" />
<path d="M119.0468 111.4809
L119.0944 111.4332
" />
<path d="M119.0944 111.4332
L119.1896 111.3856
" />
<path d="M119.1896 111.3856
L119.4277 111.3856
" />
<path d="M119.4277 111.3856
L119.5230 111.4332
" />
<path d="M119.5230 111.4332
L119.5706 111.4809
" />
<path d="M119.5706 111.4809
L119.6182 111.5761
" />
<path d="M119.6182 111.5761
L119.6182 111.6713
" />
<path d="M119.6182 111.6713
L119.5706 111.8142
" />
<path d="M119.5706 111.8142
L118.9992 112.3856
" />
<path d="M118.9992 112.3856
L119.6182 112.3856
" />
<path d="M120.5230 111.3856
L120.0468 111.3856
" />
<path d="M120.0468 111.3856
L119.9992 111.8618
" />
<path d="M119.9992 111.8618
L120.0468 111.8142
" />
<path d="M120.0468 111.8142
L120.1420 111.7666
" />
<path d="M120.1420 111.7666
L120.3801 111.7666
" />
<path d="M120.3801 111.7666
L120.4754 111.8142
" />
<path d="M120.4754 111.8142
L120.5230 111.8618
" />
<path d="M120.5230 111.8618
L120.5706 111.9570
" />
<path d="M120.5706 111.9570
L120.5706 112.1951
" />
<path d="M120.5706 112.1951
L120.5230 112.2904
" />
<path d="M120.5230 112.2904
L120.4754 112.3380
" />
<path d="M120.4754 112.3380
L120.3801 112.3856
" />
<path d="M120.3801 112.3856
L120.1420 112.3856
" />
<path d="M120.1420 112.3856
L120.0468 112.3380
" />
<path d="M120.0468 112.3380
L119.9992 112.2904
" />
<path d="M121.1896 111.3856
L121.2849 111.3856
" />
<path d="M121.2849 111.3856
L121.3801 111.4332
" />
<path d="M121.3801 111.4332
L121.4277 111.4809
" />
<path d="M121.4277 111.4809
L121.4754 111.5761
" />
<path d="M121.4754 111.5761
L121.5230 111.7666
" />
<path d="M121.5230 111.7666
L121.5230 112.0047
" />
<path d="M121.5230 112.0047
L121.4754 112.1951
" />
<path d="M121.4754 112.1951
L121.4277 112.2904
" />
<path d="M121.4277 112.2904
L121.3801 112.3380
" />
<path d="M121.3801 112.3380
L121.2849 112.3856
" />
<path d="M121.2849 112.3856
L121.1896 112.3856
" />
<path d="M121.1896 112.3856
L121.0944 112.3380
" />
<path d="M121.0944 112.3380
L121.0468 112.2904
" />
<path d="M121.0468 112.2904
L120.9992 112.1951
" />
<path d="M120.9992 112.1951
L120.9515 112.0047
" />
<path d="M120.9515 112.0047
L120.9515 111.7666
" />
<path d="M120.9515 111.7666
L120.9992 111.5761
" />
<path d="M120.9992 111.5761
L121.0468 111.4809
" />
<path d="M121.0468 111.4809
L121.0944 111.4332
" />
<path d="M121.0944 111.4332
L121.1896 111.3856
" />
<path d="M122.7135 112.3856
L122.7135 111.7190
" />
<path d="M122.7135 111.8142
L122.7611 111.7666
" />
<path d="M122.7611 111.7666
L122.8563 111.7190
" />
<path d="M122.8563 111.7190
L122.9992 111.7190
" />
<path d="M122.9992 111.7190
L123.0944 111.7666
" />
<path d="M123.0944 111.7666
L123.1420 111.8618
" />
<path d="M123.1420 111.8618
L123.1420 112.3856
" />
<path d="M123.1420 111.8618
L123.1896 111.7666
" />
<path d="M123.1896 111.7666
L123.2849 111.7190
" />
<path d="M123.2849 111.7190
L123.4277 111.7190
" />
<path d="M123.4277 111.7190
L123.5230 111.7666
" />
<path d="M123.5230 111.7666
L123.5706 111.8618
" />
<path d="M123.5706 111.8618
L123.5706 112.3856
" />
<path d="M124.0468 112.3856
L124.0468 111.7190
" />
<path d="M124.0468 111.8142
L124.0944 111.7666
" />
<path d="M124.0944 111.7666
L124.1896 111.7190
" />
<path d="M124.1896 111.7190
L124.3325 111.7190
" />
<path d="M124.3325 111.7190
L124.4277 111.7666
" />
<path d="M124.4277 111.7666
L124.4754 111.8618
" />
<path d="M124.4754 111.8618
L124.4754 112.3856
" />
<path d="M124.4754 111.8618
L124.5230 111.7666
" />
<path d="M124.5230 111.7666
L124.6182 111.7190
" />
<path d="M124.6182 111.7190
L124.7611 111.7190
" />
<path d="M124.7611 111.7190
L124.8563 111.7666
" />
<path d="M124.8563 111.7666
L124.9039 111.8618
" />
<path d="M124.9039 111.8618
L124.9039 112.3856
" />
</g></g>
<g style="fill:none; 
stroke:#000000; stroke-width:0.1000; stroke-opacity:1; 
stroke-linecap:round; stroke-linejoin:round;">
<path d="M94.0700 109.0850
L94.0700 113.6672
" />
<path d="M146.5950 109.0850
L146.5950 113.6672
" />
<path d="M94.0700 113.0808
L146.5950 113.0808
" />
<path d="M94.0700 113.0808
L146.5950 113.0808
" />
<path d="M94.0700 113.0808
L95.1965 112.4944
" />
<path d="M94.0700 113.0808
L95.1965 113.6672
" />
<path d="M146.5950 113.0808
L145.4685 113.6672
" />
<path d="M146.5950 113.0808
L145.4685 112.4944
" />
</g> 
</svg>
