<?xml version="1.0" standalone="no"?>
 <!DOCTYPE svg PUBLIC "-//W3C//DTD SVG 1.1//EN" 
 "http://www.w3.org/Graphics/SVG/1.1/DTD/svg11.dtd"> 
<svg
  xmlns:svg="http://www.w3.org/2000/svg"
  xmlns="http://www.w3.org/2000/svg"
  xmlns:xlink="http://www.w3.org/1999/xlink"
  version="1.1"
  width="297.0022mm" height="210.0072mm" viewBox="0.0000 0.0000 297.0022 210.0072">
<title>SVG Image created as MCU_Data_Logger-B_Cu.svg date 2025/03/12 12:30:11 </title>
  <desc>Image generated by PCBNEW </desc>
<g style="fill:#000000; fill-opacity:1.0000;stroke:#000000; stroke-opacity:1.0000;
stroke-linecap:round; stroke-linejoin:round;"
 transform="translate(0 0) scale(1 1)">
<path style="fill:#000000; fill-opacity:1.0000; stroke:none;fill-rule:evenodd;"
d="M 138.1388,97.4716
138.1388,95.7716
139.8388,95.7716
139.8388,97.4716
Z" /> 
</g>
<g style="fill:#000000; fill-opacity:1.0000; stroke:none;">
<circle cx="141.5288" cy="96.6216" r="0.8500" /> 
<circle cx="138.9888" cy="99.1616" r="0.8500" /> 
<circle cx="141.5288" cy="99.1616" r="0.8500" /> 
<circle cx="138.9888" cy="101.7016" r="0.8500" /> 
<circle cx="141.5288" cy="101.7016" r="0.8500" /> 
<path style="fill:#000000; fill-opacity:1.0000; stroke:none;fill-rule:evenodd;"
d="M 119.2820,75.0960
120.9820,75.0960
120.9820,76.7960
119.2820,76.7960
Z" /> 
<circle cx="117.5920" cy="75.9460" r="0.8500" /> 
<circle cx="115.0520" cy="75.9460" r="0.8500" /> 
<circle cx="112.5120" cy="75.9460" r="0.8500" /> 
<path style="fill:#000000; fill-opacity:1.0000; stroke:none;fill-rule:evenodd;"
d="M 116.0300,106.8950
114.3300,106.8950
114.3300,105.1950
116.0300,105.1950
Z" /> 
<circle cx="117.7200" cy="106.0450" r="0.8500" /> 
<circle cx="120.2600" cy="106.0450" r="0.8500" /> 
<circle cx="122.8000" cy="106.0450" r="0.8500" /> 
<circle cx="125.3400" cy="106.0450" r="0.8500" /> 
<circle cx="127.8800" cy="106.0450" r="0.8500" /> 
<circle cx="130.4200" cy="106.0450" r="0.8500" /> 
<circle cx="132.9600" cy="106.0450" r="0.8500" /> 
<circle cx="135.5000" cy="106.0450" r="0.8500" /> 
<path style="fill:#000000; fill-opacity:1.0000; stroke:none;fill-rule:evenodd;"
d="M 140.2724,81.2664
140.2724,79.5664
141.9724,79.5664
141.9724,81.2664
Z" /> 
<circle cx="141.1224" cy="82.9564" r="0.8500" /> 
<path style="fill:#000000; fill-opacity:1.0000; stroke:none;fill-rule:evenodd;"
d="M 132.2460,75.0960
133.9460,75.0960
133.9460,76.7960
132.2460,76.7960
Z" /> 
<circle cx="130.5560" cy="75.9460" r="0.8500" /> 
<circle cx="128.0160" cy="75.9460" r="0.8500" /> 
<circle cx="125.4760" cy="75.9460" r="0.8500" /> 
<circle cx="141.5288" cy="86.5124" r="0.3000" /> 
</g>
<g style="fill:#000000; fill-opacity:1.0000; stroke:none;">
<circle cx="115.5700" cy="93.5990" r="0.2500" /> 
</g>
<g style="fill:#000000; fill-opacity:1.0000; stroke:none;">
<circle cx="127.8636" cy="101.3460" r="0.3000" /> 
</g>
<g style="fill:#000000; fill-opacity:1.0000; stroke:none;">
<circle cx="138.2776" cy="88.9508" r="0.3000" /> 
</g>
<g style="fill:#000000; fill-opacity:1.0000; stroke:none;">
<circle cx="113.7920" cy="83.1850" r="0.2500" /> 
</g>
<g style="fill:#000000; fill-opacity:1.0000; stroke:none;">
<circle cx="132.7800" cy="89.6000" r="0.2500" /> 
</g>
<g style="fill:#000000; fill-opacity:1.0000; stroke:none;">
<circle cx="124.4600" cy="90.4240" r="0.2500" /> 
</g>
<g style="fill:#000000; fill-opacity:1.0000; stroke:none;">
<circle cx="103.2764" cy="85.6996" r="0.3000" /> 
</g>
<g style="fill:#000000; fill-opacity:1.0000; stroke:none;">
<circle cx="142.5448" cy="100.4316" r="0.3000" /> 
</g>
<g style="fill:#000000; fill-opacity:1.0000; stroke:none;">
<circle cx="103.2510" cy="83.1850" r="0.2500" /> 
</g>
<g style="fill:#000000; fill-opacity:1.0000; stroke:none;">
<circle cx="103.7300" cy="101.6700" r="0.3000" /> 
</g>
<g style="fill:#000000; fill-opacity:1.0000; stroke:none;">
<circle cx="115.5500" cy="95.2700" r="0.2500" /> 
</g>
<g style="fill:#000000; fill-opacity:1.0000; stroke:none;">
<circle cx="103.3780" cy="92.8370" r="0.2500" /> 
</g>
<g style="fill:#000000; fill-opacity:1.0000; stroke:none;">
<circle cx="110.7440" cy="90.2970" r="0.2500" /> 
</g>
<g style="fill:#000000; fill-opacity:1.0000; stroke:none;">
<circle cx="124.4600" cy="88.7730" r="0.2500" /> 
</g>
<g style="fill:#000000; fill-opacity:1.0000; stroke:none;">
<circle cx="142.5956" cy="97.9424" r="0.3000" /> 
</g>
<g style="fill:#000000; fill-opacity:1.0000; stroke:none;">
<circle cx="112.2680" cy="99.9490" r="0.2500" /> 
</g>
<g style="fill:#000000; fill-opacity:1.0000; stroke:none;">
<circle cx="123.4440" cy="103.3780" r="0.3000" /> 
</g>
<g style="fill:#000000; fill-opacity:1.0000; stroke:none;">
<circle cx="105.5624" cy="94.3356" r="0.4500" /> 
</g>
<g style="fill:#000000; fill-opacity:1.0000; stroke:none;">
<circle cx="110.2868" cy="88.9508" r="0.4500" /> 
</g>
<g style="fill:#000000; fill-opacity:1.0000; stroke:none;">
<circle cx="122.9360" cy="95.2500" r="0.4500" /> 
</g>
<g style="fill:#000000; fill-opacity:1.0000; stroke:none;">
<circle cx="108.1532" cy="88.9508" r="0.4500" /> 
</g>
<g style="fill:#000000; fill-opacity:1.0000; stroke:none;">
<circle cx="129.6000" cy="79.3080" r="0.4500" /> 
</g>
<g style="fill:#000000; fill-opacity:1.0000; stroke:none;">
<circle cx="108.6612" cy="95.4024" r="0.4500" /> 
</g>
<g style="fill:#000000; fill-opacity:1.0000; stroke:none;">
<circle cx="126.4920" cy="79.7560" r="0.4500" /> 
</g>
<g style="fill:#000000; fill-opacity:1.0000; stroke:none;">
<circle cx="128.2700" cy="91.1352" r="0.4500" /> 
</g>
<g style="fill:#000000; fill-opacity:1.0000; stroke:none;">
<circle cx="125.4252" cy="91.1860" r="0.4500" /> 
</g>
<g style="fill:#000000; fill-opacity:1.0000; stroke:none;">
<circle cx="128.1430" cy="82.9310" r="0.3000" /> 
</g>
<g style="fill:#000000; fill-opacity:1.0000; stroke:none;">
<circle cx="114.1730" cy="85.7250" r="0.3000" /> 
</g>
<g style="fill:#000000; fill-opacity:1.0000; stroke:none;">
<circle cx="113.9190" cy="92.8370" r="0.3000" /> 
</g>
<g style="fill:#000000; fill-opacity:1.0000; stroke:none;">
<circle cx="116.9416" cy="86.1060" r="0.3000" /> 
</g>
<g style="fill:#000000; fill-opacity:1.0000; stroke:none;">
<circle cx="117.9576" cy="85.4456" r="0.3000" /> 
</g>
<g style="fill:#000000; fill-opacity:1.0000; stroke:none;">
<circle cx="119.1260" cy="100.3300" r="0.3000" /> 
</g>
<g style="fill:#000000; fill-opacity:1.0000; stroke:none;">
<circle cx="121.4120" cy="88.0872" r="0.3000" /> 
</g>
<g style="fill:#000000; fill-opacity:1.0000; stroke:none;">
<circle cx="116.5860" cy="100.3300" r="0.3000" /> 
</g>
<g style="fill:#000000; fill-opacity:1.0000; stroke:none;">
<circle cx="124.3584" cy="87.2236" r="0.3000" /> 
</g>
<g style="fill:#000000; fill-opacity:1.0000; stroke:none;">
<circle cx="120.6500" cy="87.2000" r="0.3000" /> 
</g>
<g style="fill:#000000; fill-opacity:1.0000; stroke:none;">
<circle cx="117.7200" cy="101.4640" r="0.3000" /> 
</g>
<g style="fill:#000000; fill-opacity:1.0000; stroke:none;">
<circle cx="126.6190" cy="87.7570" r="0.3000" /> 
</g>
<g style="fill:#000000; fill-opacity:1.0000; stroke:none;">
<circle cx="139.3444" cy="93.0148" r="0.3000" /> 
</g>
<g style="fill:#000000; fill-opacity:1.0000; stroke:none;">
<circle cx="132.2070" cy="84.3280" r="0.3000" /> 
</g>
<g style="fill:#000000; fill-opacity:1.0000; stroke:none;">
<circle cx="136.9568" cy="87.3252" r="0.3000" /> 
</g>
<g style="fill:#000000; fill-opacity:1.0000; stroke:none;">
<circle cx="106.4000" cy="99.8000" r="0.3000" /> 
</g>
<g style="fill:#000000; fill-opacity:1.0000; stroke:none;">
<circle cx="107.0000" cy="98.0000" r="0.3000" /> 
</g>
<g style="fill:none; 
stroke:#000000; stroke-width:0.2000; stroke-opacity:1; 
stroke-linecap:round; stroke-linejoin:round;">
<path d="M141.5288 99.1616
L141.5288 98.7552
" />
</g>
<g style="fill:none; 
stroke:#000000; stroke-width:0.2500; stroke-opacity:1; 
stroke-linecap:round; stroke-linejoin:round;">
<path d="M122.9360 94.2340
L125.4252 91.7448
" />
</g>
<g style="fill:none; 
stroke:#000000; stroke-width:0.3500; stroke-opacity:1; 
stroke-linecap:round; stroke-linejoin:round;">
<path d="M107.8992 95.4024
L108.6612 95.4024
" />
<path d="M106.8324 94.3356
L107.8992 95.4024
" />
<path d="M127.8220 79.7560
L128.2700 79.3080
" />
</g>
<g style="fill:none; 
stroke:#000000; stroke-width:0.2500; stroke-opacity:1; 
stroke-linecap:round; stroke-linejoin:round;">
<path d="M125.4252 91.1860
L128.2192 91.1860
" />
</g>
<g style="fill:none; 
stroke:#000000; stroke-width:0.2000; stroke-opacity:1; 
stroke-linecap:round; stroke-linejoin:round;">
<path d="M128.2192 91.1860
L128.2700 91.1352
" />
</g>
<g style="fill:none; 
stroke:#000000; stroke-width:0.2500; stroke-opacity:1; 
stroke-linecap:round; stroke-linejoin:round;">
<path d="M125.4252 91.7448
L125.4252 91.1860
" />
</g>
<g style="fill:none; 
stroke:#000000; stroke-width:0.2000; stroke-opacity:1; 
stroke-linecap:round; stroke-linejoin:round;">
<path d="M122.9360 95.2500
L122.9360 94.2340
" />
<path d="M110.4392 88.9508
L110.4900 89.0016
" />
</g>
<g style="fill:none; 
stroke:#000000; stroke-width:0.3500; stroke-opacity:1; 
stroke-linecap:round; stroke-linejoin:round;">
<path d="M126.4920 79.7560
L127.8220 79.7560
" />
</g>
<g style="fill:none; 
stroke:#000000; stroke-width:0.2000; stroke-opacity:1; 
stroke-linecap:round; stroke-linejoin:round;">
<path d="M108.1532 88.9508
L110.4392 88.9508
" />
</g>
<g style="fill:none; 
stroke:#000000; stroke-width:0.3500; stroke-opacity:1; 
stroke-linecap:round; stroke-linejoin:round;">
<path d="M105.5624 94.3356
L106.8324 94.3356
" />
<path d="M128.2700 79.3080
L129.6000 79.3080
" />
</g>
<g style="fill:none; 
stroke:#000000; stroke-width:0.2000; stroke-opacity:1; 
stroke-linecap:round; stroke-linejoin:round;">
<path d="M115.0366 85.7250
L114.1730 85.7250
" />
<path d="M116.1796 86.8680
L115.0366 85.7250
" />
<path d="M127.3810 82.1690
L128.1430 82.9310
" />
<path d="M123.0630 82.1690
L127.3810 82.1690
" />
<path d="M116.0780 86.8680
L118.3640 86.8680
" />
<path d="M118.3640 86.8680
L123.0630 82.1690
" />
<path d="M113.9190 92.8370
L113.9190 89.0270
" />
<path d="M113.9190 89.0270
L116.0780 86.8680
" />
<path d="M112.5120 75.9460
L112.5120 80.2540
" />
<path d="M116.9416 84.6836
L116.9416 86.1060
" />
<path d="M112.5120 80.2540
L116.9416 84.6836
" />
<path d="M117.9576 82.7532
L115.0520 79.8476
" />
<path d="M115.0520 79.8476
L115.0520 75.9460
" />
<path d="M117.9576 85.4456
L117.9576 82.7532
" />
<path d="M121.4120 88.0872
L121.4120 89.1540
" />
<path d="M121.4120 89.1540
L119.1260 91.4400
" />
<path d="M119.1260 91.4400
L119.1260 100.3300
" />
<path d="M123.2408 86.1060
L120.6500 86.1060
" />
<path d="M120.6500 86.1060
L116.5860 90.1700
" />
<path d="M116.5860 90.1700
L116.5860 100.3300
" />
<path d="M124.3584 87.2236
L123.2408 86.1060
" />
<path d="M120.6500 87.2000
L120.6500 88.1380
" />
<path d="M120.6500 88.1380
L118.1100 90.6780
" />
<path d="M118.1100 101.0740
L117.7200 101.4640
" />
<path d="M118.1100 90.6780
L118.1100 101.0740
" />
<path d="M137.6680 99.1616
L138.9888 99.1616
" />
<path d="M135.9408 87.3252
L136.9568 87.3252
" />
<path d="M139.3444 93.7768
L137.1092 96.0120
" />
<path d="M137.1092 98.6028
L137.6680 99.1616
" />
<path d="M132.2070 84.9630
L129.4130 87.7570
" />
<path d="M132.9436 84.3280
L135.9408 87.3252
" />
<path d="M137.1092 96.0120
L137.1092 98.6028
" />
<path d="M139.3444 93.0148
L139.3444 93.7768
" />
<path d="M129.4130 87.7570
L126.6190 87.7570
" />
<path d="M132.2070 84.3280
L132.9436 84.3280
" />
<path d="M132.2070 84.3280
L132.2070 84.9630
" />
<path d="M106.4000 99.8000
L106.4000 98.6000
" />
<path d="M106.4000 98.6000
L107.0000 98.0000
" />
<path style="fill:#000000; fill-opacity:1.0000; stroke:none;fill-rule:evenodd;"
d="M 96.7947,71.5115
96.8107,71.5136
97.0728,71.5657
97.0884,71.5699
97.3414,71.6558
97.3564,71.6620
97.5814,71.7730
97.5960,71.7802
97.6100,71.7883
97.8321,71.9367
97.8450,71.9466
98.0458,72.1227
98.0573,72.1342
98.2334,72.3350
98.2433,72.3479
98.3917,72.5700
98.3998,72.5840
98.5180,72.8236
98.5242,72.8386
98.6101,73.0916
98.6143,73.1072
98.6664,73.3692
98.6685,73.3853
98.6862,73.6559
98.6865,73.6641
98.6865,73.7259
98.6973,73.7663
98.7206,73.8532
98.7536,73.9102
98.7865,73.9673
98.8797,74.0605
98.9938,74.1264
99.1211,74.1605
99.1211,74.1605
141.5439,74.1605
141.5439,74.1605
141.6712,74.1264
141.7853,74.0605
141.8785,73.9673
141.9444,73.8532
141.9785,73.7259
141.9785,73.6641
141.9788,73.6560
141.9855,73.5537
142.7945,73.5537
142.7945,73.7663
142.8263,73.9673
142.8278,73.9762
142.8765,74.1264
142.8934,74.1784
142.9900,74.3678
143.1149,74.5398
143.2652,74.6901
143.4372,74.8150
143.4372,74.8150
143.4372,74.8151
143.6266,74.9116
143.8288,74.9772
144.0387,75.0105
144.0387,75.0105
144.2513,75.0105
144.2513,75.0105
144.4612,74.9772
144.6634,74.9116
144.8528,74.8151
144.8748,74.7991
145.0248,74.6901
145.0248,74.6901
145.0248,74.6901
145.1751,74.5398
145.1751,74.5398
145.1751,74.5398
145.3000,74.3678
145.3000,74.3678
145.3001,74.3678
145.3966,74.1784
145.4622,73.9762
145.4955,73.7663
145.4955,73.5537
145.4622,73.3438
145.3966,73.1416
145.3001,72.9522
145.3000,72.9522
145.3000,72.9522
145.1751,72.7802
145.0248,72.6299
144.8528,72.5050
144.6634,72.4084
144.6634,72.4084
144.6634,72.4084
144.4612,72.3428
144.4612,72.3428
144.4612,72.3428
144.3000,72.3172
144.2513,72.3095
144.0387,72.3095
143.9900,72.3172
143.8288,72.3428
143.6266,72.4084
143.4372,72.5050
143.2652,72.6299
143.1149,72.7802
142.9900,72.9522
142.8934,73.1416
142.8278,73.3438
142.7945,73.5537
141.9855,73.5537
141.9965,73.3853
141.9986,73.3693
142.0507,73.1072
142.0549,73.0916
142.1408,72.8386
142.1470,72.8236
142.2652,72.5840
142.2733,72.5700
142.4217,72.3479
142.4315,72.3350
142.6077,72.1342
142.6192,72.1227
142.8200,71.9465
142.8329,71.9367
143.0550,71.7883
143.0690,71.7802
143.3086,71.6620
143.3236,71.6558
143.5766,71.5699
143.5922,71.5657
143.8543,71.5136
143.8703,71.5115
144.1369,71.4940
144.1531,71.4940
144.4197,71.5115
144.4357,71.5136
144.6978,71.5657
144.7134,71.5699
144.9664,71.6558
144.9814,71.6620
145.2064,71.7730
145.2210,71.7802
145.2350,71.7883
145.4571,71.9367
145.4700,71.9466
145.6708,72.1227
145.6823,72.1342
145.8584,72.3350
145.8683,72.3479
146.0167,72.5700
146.0248,72.5840
146.1430,72.8236
146.1492,72.8386
146.2351,73.0916
146.2393,73.1072
146.2914,73.3692
146.2935,73.3853
146.3110,73.6519
146.3110,73.6681
146.2935,73.9347
146.2914,73.9508
146.2393,74.2128
146.2351,74.2284
146.1492,74.4814
146.1430,74.4964
146.0248,74.7360
146.0167,74.7500
145.8683,74.9721
145.8584,74.9850
145.6823,75.1858
145.6708,75.1973
145.4700,75.3734
145.4571,75.3833
145.2350,75.5317
145.2210,75.5398
144.9814,75.6580
144.9664,75.6642
144.7134,75.7501
144.6978,75.7543
144.4358,75.8064
144.4197,75.8085
144.1491,75.8262
144.1409,75.8265
144.0791,75.8265
143.9518,75.8606
143.8377,75.9265
143.8377,75.9265
143.7445,76.0197
143.7445,76.0197
143.6786,76.1338
143.6445,76.2611
143.6445,105.9839
143.6786,106.1112
143.7116,106.1683
143.7445,106.2253
143.8377,106.3185
143.9518,106.3844
144.0791,106.4185
144.1409,106.4185
144.1490,106.4188
144.4197,106.4365
144.4357,106.4386
144.6978,106.4907
144.7134,106.4949
144.9664,106.5808
144.9814,106.5870
145.1837,106.6868
145.2210,106.7052
145.2350,106.7133
145.4571,106.8617
145.4700,106.8716
145.5937,106.9801
145.6708,107.0477
145.6823,107.0592
145.7509,107.1373
145.8225,107.2190
145.8584,107.2600
145.8683,107.2729
146.0167,107.4950
146.0248,107.5090
146.1430,107.7486
146.1492,107.7636
146.2351,108.0166
146.2393,108.0322
146.2914,108.2942
146.2935,108.3103
146.3110,108.5769
146.3110,108.5931
146.2935,108.8597
146.2914,108.8758
146.2393,109.1378
146.2351,109.1534
146.1492,109.4064
146.1430,109.4214
146.0248,109.6610
146.0167,109.6750
145.8683,109.8971
145.8584,109.9100
145.6823,110.1108
145.6708,110.1223
145.4700,110.2984
145.4571,110.3083
145.2350,110.4567
145.2210,110.4648
144.9814,110.5830
144.9664,110.5892
144.7134,110.6751
144.6978,110.6793
144.4358,110.7314
144.4197,110.7335
144.1531,110.7510
144.1369,110.7510
143.8703,110.7335
143.8542,110.7314
143.5922,110.6793
143.5766,110.6751
143.3236,110.5892
143.3086,110.5830
143.0690,110.4648
143.0550,110.4567
142.8329,110.3083
142.8200,110.2984
142.6192,110.1223
142.6077,110.1108
142.5401,110.0337
142.4316,109.9100
142.4217,109.8971
142.2733,109.6750
142.2652,109.6610
142.1684,109.4648
142.1470,109.4214
142.1408,109.4064
142.0549,109.1534
142.0507,109.1378
142.0440,109.1041
141.9986,108.8757
141.9965,108.8597
141.9788,108.5890
141.9785,108.5809
141.9785,108.5191
141.9785,108.5191
141.9677,108.4787
142.7945,108.4787
142.7945,108.6913
142.8278,108.9012
142.8934,109.1034
142.9900,109.2928
143.1149,109.4648
143.2652,109.6151
143.4372,109.7400
143.4372,109.7400
143.4372,109.7401
143.6266,109.8366
143.8288,109.9022
144.0387,109.9355
144.0387,109.9355
144.2513,109.9355
144.2513,109.9355
144.4612,109.9022
144.6634,109.8366
144.8528,109.7401
144.8748,109.7241
145.0248,109.6151
145.0248,109.6151
145.0248,109.6151
145.1751,109.4648
145.1751,109.4648
145.1751,109.4648
145.3000,109.2928
145.3000,109.2928
145.3001,109.2928
145.3966,109.1034
145.4622,108.9012
145.4955,108.6913
145.4955,108.4787
145.4622,108.2688
145.3966,108.0666
145.3001,107.8772
145.3000,107.8772
145.3000,107.8772
145.1751,107.7052
145.0248,107.5549
144.8528,107.4300
144.6634,107.3334
144.6634,107.3334
144.6634,107.3334
144.4612,107.2678
144.4612,107.2678
144.4612,107.2678
144.3000,107.2422
144.2513,107.2345
144.0387,107.2345
143.9900,107.2422
143.8288,107.2678
143.8288,107.2678
143.6713,107.3189
143.6266,107.3334
143.4372,107.4300
143.2652,107.5549
143.1149,107.7052
142.9900,107.8772
142.8934,108.0666
142.8278,108.2688
142.7945,108.4787
141.9677,108.4787
141.9444,108.3918
141.8785,108.2777
141.7853,108.1845
141.7283,108.1516
141.6712,108.1186
141.6075,108.1016
141.5439,108.0845
99.2529,108.0845
99.1211,108.0845
98.9938,108.1186
98.8797,108.1845
98.8797,108.1845
98.7865,108.2777
98.7865,108.2777
98.7206,108.3918
98.6865,108.5191
98.6865,108.5809
98.6862,108.5891
98.6685,108.8597
98.6664,108.8758
98.6143,109.1378
98.6101,109.1534
98.5242,109.4064
98.5180,109.4214
98.3998,109.6610
98.3917,109.6750
98.2433,109.8971
98.2334,109.9100
98.0573,110.1108
98.0458,110.1223
97.8450,110.2984
97.8321,110.3083
97.6100,110.4567
97.5960,110.4648
97.3564,110.5830
97.3414,110.5892
97.0884,110.6751
97.0728,110.6793
96.8108,110.7314
96.7947,110.7335
96.5281,110.7510
96.5119,110.7510
96.2453,110.7335
96.2292,110.7314
95.9672,110.6793
95.9516,110.6751
95.6986,110.5892
95.6836,110.5830
95.4440,110.4648
95.4300,110.4567
95.2079,110.3083
95.1950,110.2984
94.9942,110.1223
94.9827,110.1108
94.9151,110.0337
94.8066,109.9100
94.7967,109.8971
94.6483,109.6750
94.6402,109.6610
94.5434,109.4648
94.5220,109.4214
94.5158,109.4064
94.4299,109.1534
94.4257,109.1378
94.4190,109.1041
94.3736,108.8757
94.3715,108.8597
94.3540,108.5931
94.3540,108.5769
94.3605,108.4787
95.1695,108.4787
95.1695,108.6913
95.2028,108.9012
95.2684,109.1034
95.3649,109.2928
95.4899,109.4648
95.6402,109.6151
95.8122,109.7400
95.8122,109.7400
95.8122,109.7401
96.0016,109.8366
96.2038,109.9022
96.4137,109.9355
96.4137,109.9355
96.6263,109.9355
96.6263,109.9355
96.8362,109.9022
97.0384,109.8366
97.2278,109.7401
97.2498,109.7241
97.3998,109.6151
97.3998,109.6151
97.3998,109.6151
97.5501,109.4648
97.5501,109.4648
97.5501,109.4648
97.6750,109.2928
97.6750,109.2928
97.6750,109.2928
97.7716,109.1034
97.8372,108.9012
97.8705,108.6913
97.8705,108.4787
97.8372,108.2688
97.7716,108.0666
97.6750,107.8772
97.6750,107.8772
97.6750,107.8772
97.5501,107.7052
97.3998,107.5549
97.2278,107.4300
97.0384,107.3334
97.0384,107.3334
97.0384,107.3334
96.8362,107.2678
96.8362,107.2678
96.8362,107.2678
96.6750,107.2422
96.6263,107.2345
96.4137,107.2345
96.3650,107.2422
96.2038,107.2678
96.2038,107.2678
96.0463,107.3189
96.0016,107.3334
95.8122,107.4300
95.6402,107.5549
95.4899,107.7052
95.3649,107.8772
95.2684,108.0666
95.2028,108.2688
95.1695,108.4787
94.3605,108.4787
94.3715,108.3103
94.3736,108.2943
94.4257,108.0322
94.4299,108.0166
94.5158,107.7636
94.5220,107.7486
94.6402,107.5090
94.6483,107.4950
94.7147,107.3955
94.7967,107.2729
94.8065,107.2600
94.9827,107.0592
94.9942,107.0477
95.1950,106.8715
95.2079,106.8617
95.4037,106.7308
95.4300,106.7133
95.4440,106.7052
95.6836,106.5870
95.6986,106.5808
95.9516,106.4949
95.9672,106.4907
96.2293,106.4386
96.2453,106.4365
96.5160,106.4188
96.5241,106.4185
96.5859,106.4185
96.5859,106.4185
96.7132,106.3844
96.8273,106.3185
96.9205,106.2253
96.9864,106.1112
97.0205,105.9839
97.0205,105.8521
97.0205,105.1471
113.8295,105.1471
113.8295,106.9429
113.8295,106.9429
113.8359,107.0025
113.8862,107.1373
113.8862,107.1373
113.9725,107.2525
113.9725,107.2525
114.0877,107.3388
114.0877,107.3388
114.2225,107.3891
114.2225,107.3891
114.2294,107.3898
114.2821,107.3955
116.0779,107.3955
116.1375,107.3891
116.2723,107.3388
116.3875,107.2525
116.4738,107.1373
116.5228,107.0059
116.5647,106.9500
116.6301,106.9256
116.6984,106.9404
116.7267,106.9616
116.8486,107.0835
116.9454,107.1513
117.0422,107.2190
117.0422,107.2190
117.0422,107.2190
117.2563,107.3189
117.4846,107.3801
117.6610,107.3955
117.7200,107.4007
117.7200,107.4007
117.7200,107.4007
117.7790,107.3955
117.9554,107.3801
118.1837,107.3189
118.3978,107.2190
118.5914,107.0835
118.7585,106.9164
118.8884,106.7308
118.9430,106.6872
119.0125,106.6800
119.0749,106.7115
119.0916,106.7308
119.2215,106.9164
119.2215,106.9164
119.3886,107.0835
119.4854,107.1513
119.5822,107.2190
119.5822,107.2190
119.5822,107.2190
119.7963,107.3189
120.0246,107.3801
120.2010,107.3955
120.2600,107.4007
120.2600,107.4007
120.2600,107.4007
120.3190,107.3955
120.4954,107.3801
120.7237,107.3189
120.9378,107.2190
121.1314,107.0835
121.2985,106.9164
121.4284,106.7308
121.4830,106.6872
121.5525,106.6800
121.6149,106.7115
121.6316,106.7308
121.7615,106.9164
121.7615,106.9164
121.9286,107.0835
122.0254,107.1513
122.1222,107.2190
122.1222,107.2190
122.1222,107.2190
122.3363,107.3189
122.5646,107.3801
122.7410,107.3955
122.8000,107.4007
122.8000,107.4007
122.8000,107.4007
122.8590,107.3955
123.0354,107.3801
123.2637,107.3189
123.4778,107.2190
123.6714,107.0835
123.8385,106.9164
123.9684,106.7308
124.0230,106.6872
124.0925,106.6800
124.1549,106.7115
124.1716,106.7308
124.3015,106.9164
124.3015,106.9164
124.4686,107.0835
124.5654,107.1513
124.6622,107.2190
124.6622,107.2190
124.6622,107.2190
124.8763,107.3189
125.1046,107.3801
125.2810,107.3955
125.3400,107.4007
125.3400,107.4007
125.3400,107.4007
125.3990,107.3955
125.5754,107.3801
125.8037,107.3189
126.0178,107.2190
126.2114,107.0835
126.3785,106.9164
126.5084,106.7308
126.5630,106.6872
126.6325,106.6800
126.6949,106.7115
126.7116,106.7308
126.8415,106.9164
126.8415,106.9164
127.0086,107.0835
127.1054,107.1513
127.2022,107.2190
127.2022,107.2190
127.2022,107.2190
127.4163,107.3189
127.6446,107.3801
127.8210,107.3955
127.8800,107.4007
127.8800,107.4007
127.8800,107.4007
127.9390,107.3955
128.1154,107.3801
128.3437,107.3189
128.5578,107.2190
128.7514,107.0835
128.9185,106.9164
129.0484,106.7308
129.1030,106.6872
129.1725,106.6800
129.2349,106.7115
129.2516,106.7308
129.3815,106.9164
129.3815,106.9164
129.5486,107.0835
129.6454,107.1513
129.7422,107.2190
129.7422,107.2190
129.7422,107.2190
129.9563,107.3189
130.1846,107.3801
130.3610,107.3955
130.4200,107.4007
130.4200,107.4007
130.4200,107.4007
130.4790,107.3955
130.6554,107.3801
130.8837,107.3189
131.0978,107.2190
131.2914,107.0835
131.4585,106.9164
131.5887,106.7304
131.6433,106.6868
131.7128,106.6796
131.7752,106.7111
131.7919,106.7304
131.9219,106.9161
132.0889,107.0831
132.2824,107.2186
132.4965,107.3184
132.4965,107.3184
132.7100,107.3756
132.7100,106.4780
132.7670,106.5109
132.8942,106.5450
133.0258,106.5450
133.1530,106.5109
133.2100,106.4780
133.2100,107.3756
133.4235,107.3184
133.4235,107.3184
133.6376,107.2186
133.8311,107.0831
133.9981,106.9161
134.1281,106.7304
134.1827,106.6868
134.2522,106.6796
134.3145,106.7111
134.3313,106.7304
134.4615,106.9164
134.6286,107.0835
134.7254,107.1513
134.8222,107.2190
134.8222,107.2190
134.8222,107.2190
135.0363,107.3189
135.2646,107.3801
135.4410,107.3955
135.5000,107.4007
135.5000,107.4007
135.5000,107.4007
135.5590,107.3955
135.7354,107.3801
135.9637,107.3189
136.1778,107.2190
136.3714,107.0835
136.5385,106.9164
136.6740,106.7228
136.7739,106.5087
136.8351,106.2804
136.8557,106.0450
136.8351,105.8096
136.7739,105.5813
136.6740,105.3672
136.6687,105.3596
136.5385,105.1736
136.3714,105.0065
136.3714,105.0065
136.1778,104.8710
136.1778,104.8710
136.1778,104.8710
135.9637,104.7711
135.9637,104.7711
135.9637,104.7711
135.7354,104.7099
135.7354,104.7099
135.5000,104.6893
135.5000,104.6893
135.2646,104.7099
135.2646,104.7099
135.0363,104.7711
135.0363,104.7711
134.8222,104.8710
134.8222,104.8710
134.6286,105.0065
134.4615,105.1736
134.3313,105.3596
134.2767,105.4032
134.2072,105.4104
134.1448,105.3789
134.1281,105.3596
133.9981,105.1739
133.9981,105.1739
133.8311,105.0069
133.6376,104.8714
133.4235,104.7716
133.4235,104.7716
133.2100,104.7144
133.2100,105.6120
133.1530,105.5791
133.0258,105.5450
132.8942,105.5450
132.7670,105.5791
132.7100,105.6120
132.7100,104.7144
132.7100,104.7144
132.4965,104.7716
132.4965,104.7716
132.2824,104.8714
132.2824,104.8714
132.0889,105.0069
132.0889,105.0069
131.9219,105.1739
131.9219,105.1739
131.7919,105.3596
131.7373,105.4032
131.6678,105.4104
131.6054,105.3789
131.5887,105.3596
131.4585,105.1736
131.2914,105.0065
131.2914,105.0065
131.0978,104.8710
131.0978,104.8710
131.0978,104.8710
130.8837,104.7711
130.8837,104.7711
130.8837,104.7711
130.6554,104.7099
130.6554,104.7099
130.4200,104.6893
130.4200,104.6893
130.1846,104.7099
130.1846,104.7099
129.9563,104.7711
129.9563,104.7711
129.7422,104.8710
129.7422,104.8710
129.5486,105.0065
129.3815,105.1736
129.2516,105.3592
129.1970,105.4028
129.1275,105.4100
129.0651,105.3785
129.0484,105.3592
128.9185,105.1736
128.7514,105.0065
128.7514,105.0065
128.5578,104.8710
128.5578,104.8710
128.5578,104.8710
128.3437,104.7711
128.3437,104.7711
128.3437,104.7711
128.1154,104.7099
128.1154,104.7099
127.8800,104.6893
127.8800,104.6893
127.6446,104.7099
127.6446,104.7099
127.4163,104.7711
127.4163,104.7711
127.2022,104.8710
127.2022,104.8710
127.0086,105.0065
126.8415,105.1736
126.7116,105.3592
126.6570,105.4028
126.5875,105.4100
126.5251,105.3785
126.5084,105.3592
126.3785,105.1736
126.2114,105.0065
126.2114,105.0065
126.0178,104.8710
126.0178,104.8710
126.0178,104.8710
125.8037,104.7711
125.8037,104.7711
125.8037,104.7711
125.5754,104.7099
125.5754,104.7099
125.3400,104.6893
125.3400,104.6893
125.1046,104.7099
125.1046,104.7099
124.8763,104.7711
124.8763,104.7711
124.6622,104.8710
124.6622,104.8710
124.4686,105.0065
124.3015,105.1736
124.1716,105.3592
124.1170,105.4028
124.0475,105.4100
123.9851,105.3785
123.9684,105.3592
123.8385,105.1736
123.6714,105.0065
123.6714,105.0065
123.4778,104.8710
123.4778,104.8710
123.4778,104.8710
123.2637,104.7711
123.2637,104.7711
123.2637,104.7711
123.0354,104.7099
123.0354,104.7099
122.8000,104.6893
122.8000,104.6893
122.5646,104.7099
122.5646,104.7099
122.3363,104.7711
122.3363,104.7711
122.1222,104.8710
122.1222,104.8710
121.9286,105.0065
121.7615,105.1736
121.6316,105.3592
121.5770,105.4028
121.5075,105.4100
121.4451,105.3785
121.4284,105.3592
121.2985,105.1736
121.1314,105.0065
121.1314,105.0065
120.9378,104.8710
120.9378,104.8710
120.9378,104.8710
120.7237,104.7711
120.7237,104.7711
120.7237,104.7711
120.4954,104.7099
120.4954,104.7099
120.2600,104.6893
120.2600,104.6893
120.0246,104.7099
120.0246,104.7099
119.7963,104.7711
119.7963,104.7711
119.5822,104.8710
119.5822,104.8710
119.3886,105.0065
119.2215,105.1736
119.0916,105.3592
119.0370,105.4028
118.9675,105.4100
118.9051,105.3785
118.8884,105.3592
118.7585,105.1736
118.5914,105.0065
118.5914,105.0065
118.3978,104.8710
118.3978,104.8710
118.3978,104.8710
118.1837,104.7711
118.1837,104.7711
118.1837,104.7711
117.9554,104.7099
117.9554,104.7099
117.7200,104.6893
117.7200,104.6893
117.4846,104.7099
117.4846,104.7099
117.2563,104.7711
117.2563,104.7711
117.0422,104.8710
117.0422,104.8710
116.8486,105.0065
116.7267,105.1284
116.6653,105.1619
116.5957,105.1569
116.5397,105.1151
116.5228,105.0841
116.4738,104.9527
116.4738,104.9527
116.3875,104.8375
116.3875,104.8375
116.2723,104.7512
116.2723,104.7512
116.1375,104.7009
116.1375,104.7009
116.0779,104.6945
116.0779,104.6945
116.0779,104.6945
116.0779,104.6945
114.2821,104.6945
114.2821,104.6945
114.2225,104.7009
114.0877,104.7512
114.0877,104.7512
113.9725,104.8375
113.9725,104.8375
113.8862,104.9527
113.8862,104.9527
113.8359,105.0875
113.8295,105.1471
113.8295,105.1471
97.0205,105.1471
97.0205,99.8000
105.5944,99.8000
105.5944,99.8000
105.6146,99.9792
105.6146,99.9793
105.6742,100.1495
105.7060,100.2001
105.7702,100.3023
105.8977,100.4298
105.9364,100.4541
106.0242,100.5093
106.0505,100.5258
106.2207,100.5854
106.2207,100.5854
106.4000,100.6056
106.4000,100.6056
106.4000,100.6056
106.5792,100.5854
106.5793,100.5854
106.5793,100.5854
106.7495,100.5258
106.9023,100.4298
107.0298,100.3023
107.1258,100.1495
107.1854,99.9793
107.1854,99.9792
107.2056,99.8000
107.2056,99.8000
107.1854,99.6208
107.1854,99.6207
107.1647,99.5617
107.1258,99.4505
107.0298,99.2977
107.0298,99.2977
107.0298,99.2977
107.0275,99.2949
107.0267,99.2927
107.0261,99.2918
107.0263,99.2917
107.0011,99.2302
107.0005,99.2176
107.0005,98.9163
107.0202,98.8493
107.0730,98.8035
107.1106,98.7931
107.1793,98.7854
107.3495,98.7258
107.5023,98.6298
107.6298,98.5023
107.7258,98.3495
107.7854,98.1793
107.7854,98.1792
107.8056,98.0000
107.8056,98.0000
107.7854,97.8207
107.7854,97.8207
107.7549,97.7336
107.7258,97.6505
107.6298,97.4977
107.5023,97.3702
107.3495,97.2742
107.1793,97.2146
107.1792,97.2146
107.0000,97.1944
107.0000,97.1944
106.8207,97.2146
106.8207,97.2146
106.6505,97.2742
106.4977,97.3702
106.3702,97.4977
106.2742,97.6505
106.2146,97.8207
106.2048,97.9077
106.1778,97.9721
106.1693,97.9815
106.0313,98.1195
105.9195,98.2313
105.9195,98.2313
105.8956,98.2727
105.8855,98.2902
105.8404,98.3682
105.7995,98.5209
105.7995,98.5209
105.7995,98.6890
105.7995,98.6891
105.7995,99.2176
105.7798,99.2846
105.7724,99.2949
105.7702,99.2977
105.6742,99.4505
105.6146,99.6207
105.6146,99.6208
105.5944,99.8000
97.0205,99.8000
97.0205,94.3356
104.6073,94.3356
104.6257,94.5219
104.6257,94.5219
104.6800,94.7011
104.7683,94.8662
104.7683,94.8662
104.8870,95.0110
105.0318,95.1297
105.0318,95.1297
105.1606,95.1986
105.1969,95.2180
105.3720,95.2711
105.3761,95.2723
105.3761,95.2723
105.3928,95.2740
105.5624,95.2907
105.7487,95.2723
105.9279,95.2180
106.0930,95.1297
106.2033,95.0392
106.2676,95.0119
106.2820,95.0111
106.5012,95.0111
106.5683,95.0308
106.5889,95.0474
107.4686,95.9271
107.4686,95.9271
107.5792,96.0010
107.5792,96.0010
107.5792,96.0010
107.7022,96.0519
107.7022,96.0519
107.7022,96.0519
107.8327,96.0779
107.8327,96.0779
107.9416,96.0779
108.0087,96.0976
108.0203,96.1060
108.1306,96.1965
108.1306,96.1965
108.1466,96.2051
108.2957,96.2848
108.4749,96.3391
108.4749,96.3391
108.4916,96.3408
108.6612,96.3575
108.8475,96.3391
109.0267,96.2848
109.1918,96.1965
109.3366,96.0778
109.4553,95.9330
109.5436,95.7679
109.5979,95.5887
109.6163,95.4024
109.5979,95.2161
109.5436,95.0369
109.5297,95.0110
109.4553,94.8718
109.4553,94.8718
109.3366,94.7270
109.1918,94.6083
109.1918,94.6083
109.0267,94.5200
108.8475,94.4657
108.8475,94.4657
108.6612,94.4473
108.4749,94.4657
108.4749,94.4657
108.2957,94.5200
108.1659,94.5894
108.0975,94.6036
108.0323,94.5786
108.0198,94.5677
107.2630,93.8109
107.2630,93.8109
107.1524,93.7370
107.1524,93.7370
107.0294,93.6861
107.0294,93.6861
106.8989,93.6601
106.8989,93.6601
106.2820,93.6601
106.2149,93.6404
106.2033,93.6320
106.0930,93.5415
106.0930,93.5415
105.9279,93.4532
105.7487,93.3989
105.7487,93.3989
105.5624,93.3805
105.3761,93.3989
105.3761,93.3989
105.1969,93.4532
105.0318,93.5415
105.0318,93.5415
104.8870,93.6602
104.7683,93.8050
104.7683,93.8050
104.6800,93.9701
104.6257,94.1493
104.6257,94.1493
104.6073,94.3356
97.0205,94.3356
97.0205,88.9508
107.1981,88.9508
107.2165,89.1371
107.2165,89.1371
107.2708,89.3163
107.3591,89.4814
107.3591,89.4814
107.4778,89.6262
107.6226,89.7449
107.6226,89.7449
107.7280,89.8013
107.7877,89.8332
107.9669,89.8875
107.9669,89.8875
107.9836,89.8892
108.1532,89.9059
108.3395,89.8875
108.5187,89.8332
108.6838,89.7449
108.8286,89.6262
108.8528,89.5966
108.9105,89.5573
108.9486,89.5513
109.4914,89.5513
109.5584,89.5710
109.5872,89.5966
109.6114,89.6262
109.7562,89.7449
109.7562,89.7449
109.8616,89.8013
109.9213,89.8332
110.1005,89.8875
110.1005,89.8875
110.1172,89.8892
110.2868,89.9059
110.4731,89.8875
110.6523,89.8332
110.8174,89.7449
110.9622,89.6262
111.0809,89.4814
111.1692,89.3163
111.2235,89.1371
111.2419,88.9508
111.2235,88.7645
111.1692,88.5853
111.0898,88.4367
111.0809,88.4202
111.0809,88.4202
110.9622,88.2754
110.8174,88.1567
110.8174,88.1567
110.6523,88.0684
110.4731,88.0141
110.4731,88.0141
110.2868,87.9957
110.1005,88.0141
110.1005,88.0141
109.9213,88.0684
109.7562,88.1567
109.7562,88.1567
109.6114,88.2754
109.5872,88.3050
109.5295,88.3443
109.4914,88.3503
108.9486,88.3503
108.8816,88.3306
108.8528,88.3050
108.8286,88.2754
108.6838,88.1567
108.6838,88.1567
108.5187,88.0684
108.3395,88.0141
108.3395,88.0141
108.1532,87.9957
107.9669,88.0141
107.9669,88.0141
107.7877,88.0684
107.6226,88.1567
107.6226,88.1567
107.4778,88.2754
107.3591,88.4202
107.3591,88.4202
107.2708,88.5853
107.2165,88.7645
107.2165,88.7645
107.1981,88.9508
97.0205,88.9508
97.0205,76.2611
96.9864,76.1338
96.9205,76.0197
96.8468,75.9460
111.1563,75.9460
111.1563,75.9460
111.1769,76.1814
111.1769,76.1814
111.2381,76.4097
111.2381,76.4097
111.2381,76.4097
111.3180,76.5810
111.3380,76.6238
111.3380,76.6238
111.4011,76.7140
111.4735,76.8174
111.6406,76.9845
111.7171,77.0381
111.8342,77.1200
111.8342,77.1200
111.8342,77.1200
111.8399,77.1227
111.8923,77.1689
111.9115,77.2351
111.9115,80.1673
111.9115,80.1673
111.9115,80.3331
111.9115,80.3331
111.9524,80.4858
111.9814,80.5359
111.9814,80.5359
111.9814,80.5359
112.0315,80.6227
112.0315,80.6227
112.1503,80.7416
112.1504,80.7416
116.3048,84.8960
116.3383,84.9573
116.3411,84.9837
116.3411,85.5236
116.3214,85.5906
116.3140,85.6009
116.3118,85.6037
116.2158,85.7565
116.2036,85.7913
116.1629,85.8481
116.0979,85.8739
116.0294,85.8604
115.9989,85.8381
115.5242,85.3634
115.5242,85.3634
115.4053,85.2445
115.4053,85.2445
115.3035,85.1857
115.3035,85.1857
115.2684,85.1654
115.2684,85.1654
115.2559,85.1621
115.1157,85.1245
114.9575,85.1245
114.9499,85.1245
114.9499,85.1245
114.7554,85.1245
114.6884,85.1048
114.6781,85.0974
114.6753,85.0952
114.6753,85.0952
114.5892,85.0411
114.5225,84.9992
114.3523,84.9396
114.3522,84.9396
114.1730,84.9194
114.1730,84.9194
113.9937,84.9396
113.9937,84.9396
113.8235,84.9992
113.6707,85.0952
113.5432,85.2227
113.4472,85.3755
113.3876,85.5457
113.3876,85.5457
113.3674,85.7250
113.3674,85.7250
113.3876,85.9042
113.3876,85.9043
113.4472,86.0745
113.5359,86.2157
113.5432,86.2273
113.6707,86.3548
113.6949,86.3700
113.8035,86.4382
113.8235,86.4508
113.9579,86.4978
113.9937,86.5104
113.9937,86.5104
114.1730,86.5306
114.1730,86.5306
114.1730,86.5306
114.3522,86.5104
114.3523,86.5104
114.3523,86.5104
114.5225,86.4508
114.6753,86.3548
114.6753,86.3548
114.6787,86.3527
114.7459,86.3337
114.8128,86.3540
114.8323,86.3700
115.1919,86.7295
115.2254,86.7908
115.2204,86.8605
115.1919,86.9049
113.5503,88.5465
113.4385,88.6583
113.4385,88.6583
113.4034,88.7190
113.4034,88.7190
113.3594,88.7952
113.3594,88.7952
113.3185,88.9479
113.3185,88.9479
113.3185,89.1160
113.3185,89.1161
113.3185,92.2546
113.2988,92.3216
113.2914,92.3319
113.2892,92.3347
113.1932,92.4875
113.1336,92.6577
113.1336,92.6577
113.1134,92.8370
113.1134,92.8370
113.1336,93.0162
113.1336,93.0163
113.1932,93.1865
113.1979,93.1941
113.2892,93.3393
113.4167,93.4668
113.5695,93.5628
113.7094,93.6117
113.7397,93.6224
113.7398,93.6224
113.9190,93.6426
113.9190,93.6426
113.9190,93.6426
114.0982,93.6224
114.0983,93.6224
114.0983,93.6224
114.2685,93.5628
114.4213,93.4668
114.5488,93.3393
114.6448,93.1865
114.7044,93.0163
114.7045,93.0148
114.7246,92.8370
114.7246,92.8370
114.7044,92.6577
114.7044,92.6577
114.6536,92.5125
114.6448,92.4875
114.5488,92.3347
114.5488,92.3347
114.5488,92.3347
114.5465,92.3319
114.5457,92.3297
114.5451,92.3288
114.5453,92.3287
114.5201,92.2672
114.5195,92.2546
114.5195,89.3271
114.5392,89.2601
114.5558,89.2394
116.2904,87.5048
116.3517,87.4713
116.3781,87.4685
118.1389,87.4685
118.2059,87.4882
118.2517,87.5410
118.2616,87.6101
118.2326,87.6737
118.2266,87.6802
117.1877,88.7190
116.2173,89.6895
116.1055,89.8013
116.1055,89.8013
116.0871,89.8332
116.0871,89.8332
116.0264,89.9382
115.9855,90.0909
115.9855,90.0909
115.9855,90.2590
115.9855,90.2591
115.9855,99.7476
115.9658,99.8146
115.9584,99.8249
115.9562,99.8277
115.8602,99.9805
115.8006,100.1507
115.8006,100.1508
115.7804,100.3300
115.7804,100.3300
115.8006,100.5092
115.8006,100.5093
115.8602,100.6795
115.9549,100.8302
115.9562,100.8323
116.0837,100.9598
116.0868,100.9617
116.1855,101.0238
116.2365,101.0558
116.3791,101.1057
116.4067,101.1154
116.4067,101.1154
116.5860,101.1356
116.5860,101.1356
116.5860,101.1356
116.7652,101.1154
116.7653,101.1154
116.7653,101.1154
116.7747,101.1121
116.7828,101.1092
116.8525,101.1057
116.9132,101.1404
116.9454,101.2024
116.9408,101.2672
116.9346,101.2847
116.9346,101.2848
116.9144,101.4640
116.9144,101.4640
116.9346,101.6432
116.9346,101.6433
116.9942,101.8135
117.0902,101.9663
117.2177,102.0938
117.3705,102.1898
117.5407,102.2494
117.5407,102.2494
117.7200,102.2696
117.7200,102.2696
117.7200,102.2696
117.8992,102.2494
117.8993,102.2494
117.8993,102.2494
118.0695,102.1898
118.2223,102.0938
118.3498,101.9663
118.4458,101.8135
118.5054,101.6433
118.5152,101.5563
118.5422,101.4919
118.5507,101.4825
118.5905,101.4427
118.5905,101.4427
118.5905,101.4427
118.6688,101.3072
118.6688,101.3072
118.6688,101.3072
118.6688,101.3072
118.6696,101.3058
118.7054,101.1721
118.7418,101.1124
118.8046,101.0819
118.8661,101.0872
118.8826,101.0929
118.9467,101.1154
118.9467,101.1154
119.1260,101.1356
119.1260,101.1356
119.1260,101.1356
119.3052,101.1154
119.3053,101.1154
119.3053,101.1154
119.4755,101.0558
119.6283,100.9598
119.7558,100.8323
119.8518,100.6795
119.9114,100.5093
119.9114,100.5092
119.9316,100.3300
119.9316,100.3300
119.9114,100.1508
119.9114,100.1507
119.8702,100.0330
119.8518,99.9805
119.7558,99.8277
119.7558,99.8277
119.7558,99.8277
119.7535,99.8249
119.7527,99.8227
119.7521,99.8218
119.7523,99.8217
119.7271,99.7602
119.7265,99.7476
119.7265,98.6819
136.5087,98.6819
136.5496,98.8346
136.5786,98.8847
136.5786,98.8847
136.5786,98.8847
136.6287,98.9715
136.7405,99.0833
136.7405,99.0833
137.2993,99.6421
137.2993,99.6421
137.2993,99.6421
137.4362,99.7212
137.4362,99.7212
137.5889,99.7621
137.5889,99.7621
137.6997,99.7621
137.7667,99.7818
137.8121,99.8337
137.8148,99.8394
137.8148,99.8394
137.8794,99.9318
137.9503,100.0330
137.9503,100.0330
138.1174,100.2001
138.1174,100.2001
138.3030,100.3300
138.3466,100.3846
138.3538,100.4541
138.3223,100.5165
138.3030,100.5332
138.1174,100.6631
137.9503,100.8302
137.8148,101.0238
137.8148,101.0238
137.7149,101.2379
137.7149,101.2379
137.6537,101.4662
137.6537,101.4662
137.6331,101.7016
137.6331,101.7016
137.6537,101.9370
137.6537,101.9370
137.7149,102.1653
137.7149,102.1653
137.7149,102.1653
137.7635,102.2696
137.8148,102.3794
137.8148,102.3794
137.9231,102.5341
137.9503,102.5730
138.1174,102.7401
138.2142,102.8079
138.3110,102.8756
138.3110,102.8756
138.3110,102.8756
138.5251,102.9755
138.7534,103.0367
138.9417,103.0531
138.9888,103.0573
138.9888,103.0573
138.9888,103.0573
139.0280,103.0538
139.2242,103.0367
139.4525,102.9755
139.6666,102.8756
139.8602,102.7401
140.0273,102.5730
140.1572,102.3874
140.2118,102.3438
140.2813,102.3366
140.3437,102.3681
140.3604,102.3874
140.4903,102.5730
140.4903,102.5730
140.6574,102.7401
140.7542,102.8079
140.8510,102.8756
140.8510,102.8756
140.8510,102.8756
141.0651,102.9755
141.2934,103.0367
141.4817,103.0531
141.5288,103.0573
141.5288,103.0573
141.5288,103.0573
141.5680,103.0538
141.7642,103.0367
141.9925,102.9755
142.2066,102.8756
142.4002,102.7401
142.5673,102.5730
142.7028,102.3794
142.8027,102.1653
142.8639,101.9370
142.8845,101.7016
142.8639,101.4662
142.8027,101.2379
142.7028,101.0238
142.6972,101.0158
142.5673,100.8302
142.4002,100.6631
142.4002,100.6631
142.2142,100.5329
142.1706,100.4783
142.1634,100.4088
142.1949,100.3464
142.2142,100.3297
142.3999,100.1997
142.5669,100.0327
142.7024,99.8392
142.8022,99.6251
142.8022,99.6251
142.8594,99.4116
141.9618,99.4116
141.9947,99.3546
142.0288,99.2274
142.0288,99.0958
141.9947,98.9686
141.9618,98.9116
142.8594,98.9116
142.8594,98.9116
142.8022,98.6981
142.8022,98.6981
142.7024,98.4840
142.7024,98.4840
142.5669,98.2905
142.5669,98.2905
142.3999,98.1235
142.2142,97.9935
142.1706,97.9389
142.1634,97.8694
142.1949,97.8070
142.2142,97.7903
142.2953,97.7336
142.4002,97.6601
142.5673,97.4930
142.7028,97.2994
142.8027,97.0853
142.8639,96.8570
142.8845,96.6216
142.8639,96.3862
142.8027,96.1579
142.7028,95.9438
142.6953,95.9330
142.5673,95.7502
142.4002,95.5831
142.4002,95.5831
142.2066,95.4476
142.2066,95.4476
142.1825,95.4363
141.9925,95.3477
141.9925,95.3477
141.9925,95.3477
141.7642,95.2865
141.7642,95.2865
141.5288,95.2659
141.5288,95.2659
141.2934,95.2865
141.2934,95.2865
141.0651,95.3477
141.0651,95.3477
140.8510,95.4476
140.8510,95.4476
140.6574,95.5831
140.5355,95.7050
140.4741,95.7385
140.4045,95.7335
140.3485,95.6917
140.3316,95.6607
140.2826,95.5293
140.2826,95.5293
140.1963,95.4141
140.1963,95.4141
140.0811,95.3278
140.0811,95.3278
139.9463,95.2775
139.9463,95.2775
139.8867,95.2711
139.8867,95.2711
139.8867,95.2711
139.8867,95.2711
138.9987,95.2711
138.9317,95.2514
138.8859,95.1986
138.8760,95.1295
138.9050,95.0659
138.9110,95.0594
139.2693,94.7011
139.7029,94.2675
139.7029,94.2675
139.7131,94.2573
139.7131,94.2573
139.8249,94.1455
139.8792,94.0515
139.9040,94.0086
139.9449,93.8559
139.9449,93.6977
139.9449,93.5972
139.9646,93.5302
139.9720,93.5199
139.9742,93.5171
139.9742,93.5171
140.0702,93.3643
140.1298,93.1941
140.1498,93.0163
140.1500,93.0148
140.1500,93.0148
140.1298,92.8355
140.1298,92.8355
140.0702,92.6653
139.9742,92.5125
139.8467,92.3850
139.6939,92.2890
139.5237,92.2294
139.5236,92.2294
139.3444,92.2092
139.3444,92.2092
139.1651,92.2294
139.1651,92.2294
138.9949,92.2890
138.8421,92.3850
138.7146,92.5125
138.6186,92.6653
138.5590,92.8355
138.5590,92.8355
138.5388,93.0148
138.5388,93.0148
138.5590,93.1940
138.5590,93.1941
138.6186,93.3643
138.6775,93.4581
138.6965,93.5253
138.6762,93.5922
138.6602,93.6117
136.7405,95.5315
136.6287,95.6433
136.6287,95.6433
136.5856,95.7179
136.5496,95.7802
136.5087,95.9329
136.5087,95.9329
136.5087,96.1010
136.5087,96.1011
136.5087,98.5161
136.5087,98.5161
136.5087,98.6819
136.5087,98.6819
119.7265,98.6819
119.7265,95.2500
121.9809,95.2500
121.9993,95.4363
121.9993,95.4363
122.0536,95.6155
122.1419,95.7806
122.1419,95.7806
122.2606,95.9254
122.4054,96.0441
122.4054,96.0441
122.5119,96.1011
122.5705,96.1324
122.7497,96.1867
122.7497,96.1867
122.7664,96.1884
122.9360,96.2051
123.1223,96.1867
123.3015,96.1324
123.4666,96.0441
123.6114,95.9254
123.7301,95.7806
123.8184,95.6155
123.8727,95.4363
123.8911,95.2500
123.8744,95.0804
123.8727,95.0637
123.8727,95.0637
123.8715,95.0594
123.8184,94.8845
123.8184,94.8845
123.7301,94.7194
123.7301,94.7194
123.6389,94.6083
123.6234,94.5893
123.5961,94.5250
123.6079,94.4562
123.6316,94.4230
125.9111,92.1435
125.9795,92.0411
126.0181,91.9480
126.0540,91.8996
126.1006,91.8614
126.1006,91.8614
126.1006,91.8614
126.1043,91.8568
126.1620,91.8175
126.2001,91.8115
127.5514,91.8115
127.6185,91.8312
127.6301,91.8396
127.7394,91.9293
127.7394,91.9293
127.9045,92.0176
127.9045,92.0176
127.9819,92.0411
128.0837,92.0719
128.0837,92.0719
128.1004,92.0736
128.2700,92.0903
128.4563,92.0719
128.6355,92.0176
128.8006,91.9293
128.9454,91.8106
129.0641,91.6658
129.1524,91.5007
129.2067,91.3215
129.2251,91.1352
129.2067,90.9489
129.1524,90.7697
129.0641,90.6046
129.0641,90.6046
128.9454,90.4598
128.8006,90.3411
128.8006,90.3411
128.6355,90.2528
128.4563,90.1985
128.4563,90.1985
128.2700,90.1801
128.0837,90.1985
128.0837,90.1985
127.9045,90.2528
127.7394,90.3411
127.7394,90.3411
127.5946,90.4598
127.5492,90.5152
127.4915,90.5545
127.4534,90.5605
126.2001,90.5605
126.1331,90.5408
126.1043,90.5152
126.1006,90.5106
126.1006,90.5106
126.1006,90.5106
125.9558,90.3919
125.9558,90.3919
125.7907,90.3036
125.6115,90.2493
125.6115,90.2493
125.4252,90.2309
125.2389,90.2493
125.2389,90.2493
125.0597,90.3036
124.8946,90.3919
124.8946,90.3919
124.7498,90.5106
124.6311,90.6554
124.6311,90.6554
124.5428,90.8205
124.4885,90.9997
124.4885,90.9997
124.4701,91.1860
124.4885,91.3723
124.4885,91.3723
124.5428,91.5515
124.5660,91.5949
124.5803,91.6633
124.5553,91.7286
124.5443,91.7411
122.4501,93.8353
122.4501,93.8353
122.3817,93.9377
122.3817,93.9377
122.3345,94.0515
122.3345,94.0515
122.3105,94.1724
122.3105,94.2956
122.3331,94.4093
122.3355,94.4335
122.3355,94.4546
122.3158,94.5216
122.2902,94.5504
122.2606,94.5746
122.1419,94.7194
122.1419,94.7194
122.0536,94.8845
121.9993,95.0637
121.9993,95.0637
121.9809,95.2500
119.7265,95.2500
119.7265,91.7401
119.7462,91.6731
119.7628,91.6524
121.7705,89.6447
121.7705,89.6447
121.7807,89.6345
121.7807,89.6345
121.8925,89.5227
121.9453,89.4313
121.9716,89.3858
122.0125,89.2331
122.0125,89.0749
122.0125,88.6696
122.0322,88.6026
122.0396,88.5923
122.0418,88.5895
122.0418,88.5895
122.1378,88.4367
122.1974,88.2665
122.1974,88.2664
122.2176,88.0872
122.2176,88.0872
122.1974,87.9079
122.1974,87.9079
122.1445,87.7570
122.1378,87.7377
122.1103,87.6939
122.0418,87.5849
121.9143,87.4574
121.7615,87.3614
121.5912,87.3018
121.5637,87.2987
121.4993,87.2717
121.4597,87.2141
121.4544,87.1894
121.4354,87.0207
121.4354,87.0207
121.3831,86.8715
121.3796,86.8017
121.4143,86.7410
121.4763,86.7088
121.5002,86.7065
122.9407,86.7065
123.0077,86.7262
123.0284,86.7428
123.5277,87.2421
123.5612,87.3035
123.5632,87.3159
123.5730,87.4028
123.6326,87.5731
123.6965,87.6747
123.7286,87.7259
123.8561,87.8534
123.9429,87.9079
124.0025,87.9454
124.0089,87.9494
124.1412,87.9957
124.1791,88.0090
124.1791,88.0090
124.3584,88.0292
124.3584,88.0292
124.3584,88.0292
124.5376,88.0090
124.5377,88.0090
124.5377,88.0090
124.7079,87.9494
124.8607,87.8534
124.9571,87.7570
125.8134,87.7570
125.8134,87.7570
125.8336,87.9362
125.8336,87.9363
125.8932,88.1065
125.9892,88.2593
126.1167,88.3868
126.2695,88.4828
126.4397,88.5424
126.4397,88.5424
126.6190,88.5626
126.6190,88.5626
126.6190,88.5626
126.7982,88.5424
126.7983,88.5424
126.7983,88.5424
126.9685,88.4828
127.1213,88.3868
127.1213,88.3868
127.1241,88.3846
127.1263,88.3837
127.1272,88.3831
127.1273,88.3833
127.1888,88.3581
127.2014,88.3575
129.3263,88.3575
129.3263,88.3575
129.3339,88.3575
129.4921,88.3575
129.4921,88.3575
129.6448,88.3166
129.6949,88.2876
129.7817,88.2375
129.8935,88.1257
129.8935,88.1257
129.9037,88.1155
129.9037,88.1155
132.6875,85.3317
132.7570,85.2114
132.8076,85.1632
132.8762,85.1499
132.9410,85.1759
132.9521,85.1857
135.4559,87.6896
135.4559,87.6896
135.4603,87.6939
135.4603,87.6939
135.5721,87.8057
135.5721,87.8057
135.5721,87.8057
135.6246,87.8361
135.6246,87.8361
135.7090,87.8848
135.7090,87.8848
135.7090,87.8848
135.7090,87.8848
135.8617,87.9257
135.8617,87.9257
136.0275,87.9257
136.0275,87.9257
136.3744,87.9257
136.4414,87.9454
136.4517,87.9528
136.4545,87.9550
136.4545,87.9550
136.6073,88.0510
136.7108,88.0872
136.7775,88.1106
136.7775,88.1106
136.9568,88.1308
136.9568,88.1308
136.9568,88.1308
137.1360,88.1106
137.1361,88.1106
137.1361,88.1106
137.3063,88.0510
137.4591,87.9550
137.5866,87.8275
137.6826,87.6747
137.7422,87.5045
137.7531,87.4075
137.7624,87.3252
137.7624,87.3252
137.7422,87.1459
137.7422,87.1459
137.7066,87.0443
137.6826,86.9757
137.6800,86.9716
137.6171,86.8715
137.5866,86.8229
137.4591,86.6954
137.4479,86.6884
137.3063,86.5994
137.1361,86.5398
137.1360,86.5398
136.9568,86.5196
136.9568,86.5196
136.7775,86.5398
136.7775,86.5398
136.6073,86.5994
136.4545,86.6954
136.4517,86.6976
136.4495,86.6985
136.4486,86.6991
136.4485,86.6989
136.3870,86.7241
136.3744,86.7247
136.2409,86.7247
136.1739,86.7050
136.1532,86.6884
133.4312,83.9664
133.4312,83.9664
133.3123,83.8475
133.3123,83.8475
133.2105,83.7887
133.2105,83.7887
133.1754,83.7684
133.1754,83.7684
133.1629,83.7651
133.0227,83.7275
132.8645,83.7275
132.8569,83.7275
132.8569,83.7275
132.7894,83.7275
132.7224,83.7078
132.7121,83.7004
132.7093,83.6982
132.7093,83.6982
132.6071,83.6340
132.5565,83.6022
132.3863,83.5426
132.3862,83.5426
132.2070,83.5224
132.2070,83.5224
132.0277,83.5426
132.0277,83.5426
131.8575,83.6022
131.7047,83.6982
131.5772,83.8257
131.4812,83.9785
131.4216,84.1487
131.4216,84.1487
131.4014,84.3280
131.4014,84.3280
131.4216,84.5072
131.4216,84.5073
131.4812,84.6775
131.4812,84.6775
131.4911,84.6933
131.5101,84.7605
131.4898,84.8274
131.4738,84.8470
129.2006,87.1202
129.1393,87.1537
129.1129,87.1565
127.2014,87.1565
127.1344,87.1368
127.1241,87.1294
127.1213,87.1272
127.1213,87.1272
126.9894,87.0443
126.9685,87.0312
126.7983,86.9716
126.7982,86.9716
126.6190,86.9514
126.6190,86.9514
126.4397,86.9716
126.4397,86.9716
126.2695,87.0312
126.1167,87.1272
125.9892,87.2547
125.8932,87.4075
125.8336,87.5777
125.8336,87.5777
125.8134,87.7570
124.9571,87.7570
124.9882,87.7259
125.0842,87.5731
125.1438,87.4029
125.1484,87.3614
125.1640,87.2236
125.1640,87.2236
125.1438,87.0443
125.1438,87.0443
125.1197,86.9757
125.0842,86.8741
124.9882,86.7213
124.8607,86.5938
124.7748,86.5398
124.7079,86.4978
124.5376,86.4382
124.4507,86.4284
124.3863,86.4014
124.3769,86.3929
123.7284,85.7444
123.7284,85.7444
123.6095,85.6255
123.6095,85.6255
123.5022,85.5635
123.5022,85.5635
123.4726,85.5464
123.4726,85.5464
123.4726,85.5464
123.3199,85.5055
123.1617,85.5055
123.1541,85.5055
123.1541,85.5055
120.8751,85.5055
120.8081,85.4858
120.7623,85.4330
120.7524,85.3639
120.7814,85.3003
120.7874,85.2938
121.9512,84.1300
123.2754,82.8058
123.3367,82.7723
123.3631,82.7695
127.0809,82.7695
127.1479,82.7892
127.1686,82.8058
127.3123,82.9495
127.3458,83.0109
127.3478,83.0233
127.3576,83.1102
127.4172,83.2805
127.5048,83.4199
127.5132,83.4333
127.6407,83.5608
127.7066,83.6022
127.7572,83.6340
127.7935,83.6568
127.9118,83.6982
127.9637,83.7164
127.9637,83.7164
128.1430,83.7366
128.1430,83.7366
128.1430,83.7366
128.3222,83.7164
128.3223,83.7164
128.3223,83.7164
128.4925,83.6568
128.6453,83.5608
128.7728,83.4333
128.8688,83.2805
128.9284,83.1103
128.9348,83.0533
128.9486,82.9310
128.9486,82.9310
128.9284,82.7518
128.9284,82.7517
128.9125,82.7064
128.8688,82.5815
128.7728,82.4287
128.6453,82.3012
128.5999,82.2727
128.4925,82.2052
128.3222,82.1456
128.2353,82.1358
128.1709,82.1088
128.1615,82.1003
127.8686,81.8074
127.8686,81.8074
127.7497,81.6885
127.7497,81.6885
127.6379,81.6239
127.6379,81.6239
127.6203,81.6137
127.6128,81.6094
127.4601,81.5685
127.3019,81.5685
127.2943,81.5685
127.2943,81.5685
123.1497,81.5685
123.1497,81.5685
123.1421,81.5685
122.9839,81.5685
122.9076,81.5890
122.8312,81.6094
122.8312,81.6094
122.6943,81.6885
122.6943,81.6885
118.9629,85.4199
118.9015,85.4534
118.8318,85.4484
118.7759,85.4065
118.7520,85.3461
118.7430,85.2664
118.7430,85.2663
118.7113,85.1759
118.6834,85.0961
118.6828,85.0952
118.5874,84.9433
118.5851,84.9405
118.5843,84.9383
118.5837,84.9374
118.5839,84.9373
118.5587,84.8758
118.5581,84.8632
118.5581,82.8423
118.5581,82.8422
118.5581,82.6741
118.5581,82.6741
118.5172,82.5214
118.4882,82.4713
118.4381,82.3845
118.3263,82.2727
118.3263,82.2727
118.3220,82.2683
118.3220,82.2683
115.8096,79.7560
125.5369,79.7560
125.5553,79.9423
125.5553,79.9423
125.6096,80.1215
125.6979,80.2866
125.6979,80.2866
125.8166,80.4314
125.9614,80.5501
125.9614,80.5501
126.0972,80.6227
126.1265,80.6384
126.3057,80.6927
126.3057,80.6927
126.3224,80.6944
126.4920,80.7111
126.6783,80.6927
126.8575,80.6384
127.0226,80.5501
127.1329,80.4596
127.1972,80.4323
127.2116,80.4315
127.8885,80.4315
127.8885,80.4315
128.0190,80.4055
128.1420,80.3546
128.2526,80.2807
128.5135,80.0198
128.5748,79.9863
128.6012,79.9835
128.8804,79.9835
128.9475,80.0032
128.9591,80.0116
129.0694,80.1021
129.0694,80.1021
129.1056,80.1215
129.2345,80.1904
129.4137,80.2447
129.4137,80.2447
129.4304,80.2464
129.6000,80.2631
129.7863,80.2447
129.9655,80.1904
130.1306,80.1021
130.2754,79.9834
130.3941,79.8386
130.4824,79.6735
130.5294,79.5185
139.7719,79.5185
139.7719,81.3143
139.7719,81.3143
139.7783,81.3739
139.8286,81.5087
139.8286,81.5087
139.9149,81.6239
139.9149,81.6239
140.0301,81.7102
140.0301,81.7102
140.0301,81.7102
140.1620,81.7594
140.2179,81.8013
140.2423,81.8667
140.2275,81.9350
140.2063,81.9633
140.0843,82.0853
139.9488,82.2788
139.9488,82.2788
139.8490,82.4929
139.8490,82.4929
139.7918,82.7064
139.7918,82.7064
140.6894,82.7064
140.6565,82.7634
140.6224,82.8906
140.6224,83.0222
140.6565,83.1494
140.6894,83.2064
139.7918,83.2064
139.8490,83.4199
139.8490,83.4199
139.9488,83.6340
140.0843,83.8275
140.2513,83.9945
140.4448,84.1300
140.6589,84.2298
140.6589,84.2298
140.8724,84.2870
140.8724,83.3894
140.9294,83.4223
141.0566,83.4564
141.1882,83.4564
141.3154,83.4223
141.3724,83.3894
141.3724,84.2870
141.5859,84.2298
141.5859,84.2298
141.8000,84.1300
141.9935,83.9945
142.1605,83.8275
142.2960,83.6340
142.3958,83.4199
142.3958,83.4199
142.4530,83.2064
141.5554,83.2064
141.5883,83.1494
141.6224,83.0222
141.6224,82.8906
141.5883,82.7634
141.5554,82.7064
142.4530,82.7064
142.4530,82.7064
142.3958,82.4929
142.3958,82.4929
142.2960,82.2788
142.2960,82.2788
142.1605,82.0853
142.1605,82.0853
142.0385,81.9633
142.0050,81.9019
142.0100,81.8323
142.0518,81.7763
142.0828,81.7594
142.2147,81.7102
142.3299,81.6239
142.4162,81.5087
142.4665,81.3739
142.4729,81.3143
142.4729,79.5185
142.4665,79.4589
142.4162,79.3241
142.4162,79.3241
142.4162,79.3241
142.3299,79.2089
142.3299,79.2089
142.2147,79.1226
142.2147,79.1226
142.0799,79.0723
142.0799,79.0723
142.0203,79.0659
142.0203,79.0659
142.0203,79.0659
142.0203,79.0659
140.2245,79.0659
140.2245,79.0659
140.1649,79.0723
140.0301,79.1226
140.0301,79.1226
139.9149,79.2089
139.9149,79.2089
139.8286,79.3241
139.8286,79.3241
139.7783,79.4589
139.7745,79.4943
139.7719,79.5185
139.7719,79.5185
130.5294,79.5185
130.5367,79.4943
130.5551,79.3080
130.5367,79.1217
130.4824,78.9425
130.3973,78.7833
130.3941,78.7774
130.3941,78.7774
130.2754,78.6326
130.1306,78.5139
130.1306,78.5139
129.9655,78.4256
129.7863,78.3713
129.7863,78.3713
129.6000,78.3529
129.4137,78.3713
129.4137,78.3713
129.2345,78.4256
129.0694,78.5139
129.0694,78.5139
128.9591,78.6044
128.8948,78.6317
128.8804,78.6325
128.2035,78.6325
128.0730,78.6585
128.0730,78.6585
128.0730,78.6585
128.0730,78.6585
128.0614,78.6632
127.9860,78.6945
127.9860,78.6945
127.9500,78.7094
127.9233,78.7273
127.9233,78.7273
127.8394,78.7833
127.8394,78.7833
127.5785,79.0442
127.5172,79.0777
127.4908,79.0805
127.2116,79.0805
127.1445,79.0608
127.1329,79.0524
127.0226,78.9619
127.0226,78.9619
126.8575,78.8736
126.6783,78.8193
126.6783,78.8193
126.4920,78.8009
126.3057,78.8193
126.3057,78.8193
126.1265,78.8736
125.9614,78.9619
125.9614,78.9619
125.8166,79.0806
125.6979,79.2254
125.6979,79.2254
125.6096,79.3905
125.5553,79.5697
125.5553,79.5697
125.5369,79.7560
115.8096,79.7560
115.6888,79.6352
115.6553,79.5739
115.6525,79.5475
115.6525,77.2351
115.6722,77.1681
115.7241,77.1227
115.7298,77.1200
115.9234,76.9845
116.0905,76.8174
116.2204,76.6318
116.2750,76.5882
116.3445,76.5810
116.4069,76.6125
116.4236,76.6318
116.5535,76.8174
116.5535,76.8174
116.7206,76.9845
116.7971,77.0381
116.9142,77.1200
116.9142,77.1200
116.9142,77.1200
117.1283,77.2199
117.3566,77.2811
117.5273,77.2960
117.5920,77.3017
117.5920,77.3017
117.5920,77.3017
117.6567,77.2960
117.8274,77.2811
118.0557,77.2199
118.2698,77.1200
118.4634,76.9845
118.5857,76.8622
118.6470,76.8287
118.7167,76.8337
118.7727,76.8756
118.7896,76.9065
118.8386,77.0381
118.8386,77.0381
118.9248,77.1532
118.9248,77.1532
119.0399,77.2394
119.0399,77.2394
119.1746,77.2896
119.1746,77.2896
119.2342,77.2960
119.2342,77.2960
119.8820,77.2960
119.8820,76.3790
119.9390,76.4119
120.0662,76.4460
120.1978,76.4460
120.3250,76.4119
120.3820,76.3790
120.3820,77.2960
121.0298,77.2960
121.0298,77.2960
121.0894,77.2896
121.0894,77.2896
121.2241,77.2394
121.2241,77.2394
121.3392,77.1532
121.3392,77.1532
121.4253,77.0381
121.4254,77.0381
121.4756,76.9034
121.4756,76.9034
121.4820,76.8438
121.4820,76.8438
121.4820,76.1960
120.5650,76.1960
120.5979,76.1390
120.6320,76.0118
120.6320,75.9460
124.1203,75.9460
124.1203,75.9460
124.1409,76.1814
124.1409,76.1814
124.2021,76.4097
124.2021,76.4097
124.2021,76.4097
124.2820,76.5810
124.3020,76.6238
124.3020,76.6238
124.3651,76.7140
124.4375,76.8174
124.6046,76.9845
124.6811,77.0381
124.7982,77.1200
124.7982,77.1200
124.7982,77.1200
125.0123,77.2199
125.2406,77.2811
125.4113,77.2960
125.4760,77.3017
125.4760,77.3017
125.4760,77.3017
125.5407,77.2960
125.7114,77.2811
125.9397,77.2199
126.1538,77.1200
126.3474,76.9845
126.5145,76.8174
126.6444,76.6318
126.6990,76.5882
126.7685,76.5810
126.8309,76.6125
126.8476,76.6318
126.9775,76.8174
126.9775,76.8174
127.1446,76.9845
127.2211,77.0381
127.3382,77.1200
127.3382,77.1200
127.3382,77.1200
127.5523,77.2199
127.7806,77.2811
127.9513,77.2960
128.0160,77.3017
128.0160,77.3017
128.0160,77.3017
128.0807,77.2960
128.2514,77.2811
128.4797,77.2199
128.6938,77.1200
128.8874,76.9845
129.0545,76.8174
129.1844,76.6318
129.2390,76.5882
129.3085,76.5810
129.3709,76.6125
129.3876,76.6318
129.5175,76.8174
129.5175,76.8174
129.6846,76.9845
129.7611,77.0381
129.8782,77.1200
129.8782,77.1200
129.8782,77.1200
130.0923,77.2199
130.3206,77.2811
130.4913,77.2960
130.5560,77.3017
130.5560,77.3017
130.5560,77.3017
130.6207,77.2960
130.7914,77.2811
131.0197,77.2199
131.2338,77.1200
131.4274,76.9845
131.5497,76.8622
131.6110,76.8287
131.6807,76.8337
131.7367,76.8756
131.7536,76.9065
131.8026,77.0381
131.8026,77.0381
131.8888,77.1532
131.8888,77.1532
132.0039,77.2394
132.0039,77.2394
132.1386,77.2896
132.1386,77.2896
132.1982,77.2960
132.1982,77.2960
132.8460,77.2960
132.8460,76.3790
132.9030,76.4119
133.0302,76.4460
133.1618,76.4460
133.2890,76.4119
133.3460,76.3790
133.3460,77.2960
133.9938,77.2960
133.9938,77.2960
134.0534,77.2896
134.0534,77.2896
134.1881,77.2394
134.1881,77.2394
134.3032,77.1532
134.3032,77.1532
134.3894,77.0381
134.3894,77.0381
134.4396,76.9034
134.4396,76.9034
134.4460,76.8438
134.4460,76.8438
134.4460,76.1960
133.5290,76.1960
133.5619,76.1390
133.5960,76.0118
133.5960,75.8802
133.5619,75.7530
133.5290,75.6960
134.4460,75.6960
134.4460,75.0482
134.4460,75.0482
134.4396,74.9886
134.4396,74.9886
134.3894,74.8539
134.3894,74.8539
134.3032,74.7388
134.3032,74.7388
134.1881,74.6526
134.1881,74.6526
134.0534,74.6024
134.0534,74.6024
133.9938,74.5960
133.3460,74.5960
133.3460,75.5130
133.2890,75.4801
133.1618,75.4460
133.0302,75.4460
132.9030,75.4801
132.8460,75.5130
132.8460,74.5960
132.1982,74.5960
132.1386,74.6024
132.1386,74.6024
132.0039,74.6526
132.0039,74.6526
131.8888,74.7388
131.8888,74.7388
131.8026,74.8539
131.8026,74.8539
131.7536,74.9855
131.7117,75.0414
131.6462,75.0658
131.5780,75.0510
131.5497,75.0298
131.4920,74.9721
131.4274,74.9075
131.4274,74.9075
131.4274,74.9075
131.2338,74.7720
131.2338,74.7720
131.1867,74.7500
131.0197,74.6721
131.0197,74.6721
131.0197,74.6721
130.7914,74.6109
130.7914,74.6109
130.5560,74.5903
130.5560,74.5903
130.3206,74.6109
130.3206,74.6109
130.0923,74.6721
130.0923,74.6721
129.8782,74.7720
129.8782,74.7720
129.6846,74.9075
129.5175,75.0746
129.3876,75.2602
129.3330,75.3038
129.2635,75.3110
129.2011,75.2795
129.1844,75.2602
129.0545,75.0746
128.8874,74.9075
128.8874,74.9075
128.6938,74.7720
128.6938,74.7720
128.6467,74.7500
128.4797,74.6721
128.4797,74.6721
128.4797,74.6721
128.2514,74.6109
128.2514,74.6109
128.0160,74.5903
128.0160,74.5903
127.7806,74.6109
127.7806,74.6109
127.5523,74.6721
127.5523,74.6721
127.3382,74.7720
127.3382,74.7720
127.1446,74.9075
126.9775,75.0746
126.8476,75.2602
126.7930,75.3038
126.7235,75.3110
126.6611,75.2795
126.6444,75.2602
126.5145,75.0746
126.3474,74.9075
126.3474,74.9075
126.1538,74.7720
126.1538,74.7720
126.1067,74.7500
125.9397,74.6721
125.9397,74.6721
125.9397,74.6721
125.7114,74.6109
125.7114,74.6109
125.4760,74.5903
125.4760,74.5903
125.2406,74.6109
125.2406,74.6109
125.0123,74.6721
125.0123,74.6721
124.7982,74.7720
124.7982,74.7720
124.6046,74.9075
124.4375,75.0746
124.3020,75.2682
124.3020,75.2682
124.2021,75.4823
124.2021,75.4823
124.1409,75.7106
124.1409,75.7106
124.1203,75.9460
120.6320,75.9460
120.6320,75.8802
120.5979,75.7530
120.5650,75.6960
121.4820,75.6960
121.4820,75.0482
121.4820,75.0482
121.4756,74.9886
121.4756,74.9886
121.4254,74.8539
121.4253,74.8539
121.3392,74.7388
121.3392,74.7388
121.2241,74.6526
121.2241,74.6526
121.0894,74.6024
121.0894,74.6024
121.0298,74.5960
120.3820,74.5960
120.3820,75.5130
120.3250,75.4801
120.1978,75.4460
120.0662,75.4460
119.9390,75.4801
119.8820,75.5130
119.8820,74.5960
119.2342,74.5960
119.1746,74.6024
119.1746,74.6024
119.0399,74.6526
119.0399,74.6526
118.9248,74.7388
118.9248,74.7388
118.8386,74.8539
118.8386,74.8539
118.7896,74.9855
118.7477,75.0414
118.6822,75.0658
118.6140,75.0510
118.5857,75.0298
118.5280,74.9721
118.4634,74.9075
118.4634,74.9075
118.4634,74.9075
118.2698,74.7720
118.2698,74.7720
118.2227,74.7500
118.0557,74.6721
118.0557,74.6721
118.0557,74.6721
117.8274,74.6109
117.8274,74.6109
117.5920,74.5903
117.5920,74.5903
117.3566,74.6109
117.3566,74.6109
117.1283,74.6721
117.1283,74.6721
116.9142,74.7720
116.9142,74.7720
116.7206,74.9075
116.5535,75.0746
116.4236,75.2602
116.3690,75.3038
116.2995,75.3110
116.2371,75.2795
116.2204,75.2602
116.0905,75.0746
115.9234,74.9075
115.9234,74.9075
115.7298,74.7720
115.7298,74.7720
115.6827,74.7500
115.5157,74.6721
115.5157,74.6721
115.5157,74.6721
115.2874,74.6109
115.2874,74.6109
115.0520,74.5903
115.0520,74.5903
114.8166,74.6109
114.8166,74.6109
114.5883,74.6721
114.5883,74.6721
114.3742,74.7720
114.3742,74.7720
114.1806,74.9075
114.0135,75.0746
113.8836,75.2602
113.8290,75.3038
113.7595,75.3110
113.6971,75.2795
113.6804,75.2602
113.5505,75.0746
113.3834,74.9075
113.3834,74.9075
113.1898,74.7720
113.1898,74.7720
113.1427,74.7500
112.9757,74.6721
112.9757,74.6721
112.9757,74.6721
112.7474,74.6109
112.7474,74.6109
112.5120,74.5903
112.5120,74.5903
112.2766,74.6109
112.2766,74.6109
112.0483,74.6721
112.0483,74.6721
111.8342,74.7720
111.8342,74.7720
111.6406,74.9075
111.4735,75.0746
111.3380,75.2682
111.3380,75.2682
111.2381,75.4823
111.2381,75.4823
111.1769,75.7106
111.1769,75.7106
111.1563,75.9460
96.8468,75.9460
96.8273,75.9265
96.7702,75.8936
96.7132,75.8606
96.6495,75.8436
96.5859,75.8265
96.5859,75.8265
96.5241,75.8265
96.5159,75.8262
96.2453,75.8085
96.2292,75.8064
95.9672,75.7543
95.9516,75.7501
95.6986,75.6642
95.6836,75.6580
95.4440,75.5398
95.4300,75.5317
95.2079,75.3833
95.1950,75.3734
94.9942,75.1973
94.9827,75.1858
94.9151,75.1087
94.8066,74.9850
94.7967,74.9721
94.6483,74.7500
94.6402,74.7360
94.5711,74.5960
94.5220,74.4964
94.5158,74.4814
94.4299,74.2284
94.4257,74.2128
94.4189,74.1784
94.3736,73.9507
94.3715,73.9347
94.3662,73.8532
94.3540,73.6681
94.3540,73.6519
94.3605,73.5537
95.1695,73.5537
95.1695,73.7663
95.2013,73.9673
95.2028,73.9762
95.2515,74.1264
95.2684,74.1784
95.3650,74.3678
95.4899,74.5398
95.6402,74.6901
95.8122,74.8150
95.8122,74.8150
95.8122,74.8151
96.0016,74.9116
96.2038,74.9772
96.4137,75.0105
96.4137,75.0105
96.6263,75.0105
96.6263,75.0105
96.8362,74.9772
97.0384,74.9116
97.2278,74.8151
97.2498,74.7991
97.3998,74.6901
97.3998,74.6901
97.3998,74.6901
97.5501,74.5398
97.5501,74.5398
97.5501,74.5398
97.6750,74.3678
97.6750,74.3678
97.6751,74.3678
97.7716,74.1784
97.8372,73.9762
97.8705,73.7663
97.8705,73.5537
97.8372,73.3438
97.7716,73.1416
97.6751,72.9522
97.6750,72.9522
97.6750,72.9522
97.5501,72.7802
97.3998,72.6299
97.2278,72.5050
97.0384,72.4084
97.0384,72.4084
97.0384,72.4084
96.8362,72.3428
96.8362,72.3428
96.8362,72.3428
96.6750,72.3172
96.6263,72.3095
96.4137,72.3095
96.3650,72.3172
96.2038,72.3428
96.0016,72.4084
95.8122,72.5050
95.6402,72.6299
95.4899,72.7802
95.3650,72.9522
95.2684,73.1416
95.2028,73.3438
95.1695,73.5537
94.3605,73.5537
94.3715,73.3853
94.3736,73.3693
94.4257,73.1072
94.4299,73.0916
94.5158,72.8386
94.5220,72.8236
94.6402,72.5840
94.6483,72.5700
94.7967,72.3479
94.8065,72.3350
94.9827,72.1342
94.9942,72.1227
95.1950,71.9465
95.2079,71.9367
95.4300,71.7883
95.4440,71.7802
95.6836,71.6620
95.6986,71.6558
95.9516,71.5699
95.9672,71.5657
96.2293,71.5136
96.2453,71.5115
96.5119,71.4940
96.5281,71.4940
Z" /> 
</g> 
</svg>
