<?xml version="1.0" standalone="no"?>
 <!DOCTYPE svg PUBLIC "-//W3C//DTD SVG 1.1//EN" 
 "http://www.w3.org/Graphics/SVG/1.1/DTD/svg11.dtd"> 
<svg
  xmlns:svg="http://www.w3.org/2000/svg"
  xmlns="http://www.w3.org/2000/svg"
  xmlns:xlink="http://www.w3.org/1999/xlink"
  version="1.1"
  width="297.0022mm" height="210.0072mm" viewBox="0.0000 0.0000 297.0022 210.0072">
<title>SVG Image created as MCU_Data_Logger-F_Paste.svg date 2025/03/12 12:30:11 </title>
  <desc>Image generated by PCBNEW </desc>
<g style="fill:#000000; fill-opacity:1.0000;stroke:#000000; stroke-opacity:1.0000;
stroke-linecap:round; stroke-linejoin:round;"
 transform="translate(0 0) scale(1 1)">
<path style="fill:#000000; fill-opacity:1.0000; stroke:none;fill-rule:evenodd;"
d="M 106.9500,105.4250
106.8543,105.4060
106.7732,105.3518
106.7190,105.2707
106.7000,105.1750
106.7000,104.6500
106.7190,104.5543
106.7732,104.4732
106.8543,104.4190
106.9500,104.4000
107.8500,104.4000
107.9457,104.4190
108.0268,104.4732
108.0810,104.5543
108.1000,104.6500
108.1000,105.1750
108.0810,105.2707
108.0268,105.3518
107.9457,105.4060
107.8500,105.4250
Z" /> 
<path style="fill:#000000; fill-opacity:1.0000; stroke:none;fill-rule:evenodd;"
d="M 106.9500,103.6000
106.8543,103.5810
106.7732,103.5268
106.7190,103.4457
106.7000,103.3500
106.7000,102.8250
106.7190,102.7293
106.7732,102.6482
106.8543,102.5940
106.9500,102.5750
107.8500,102.5750
107.9457,102.5940
108.0268,102.6482
108.0810,102.7293
108.1000,102.8250
108.1000,103.3500
108.0810,103.4457
108.0268,103.5268
107.9457,103.5810
107.8500,103.6000
Z" /> 
<path style="fill:#000000; fill-opacity:1.0000; stroke:none;fill-rule:evenodd;"
d="M 141.9788,87.3226
142.0745,87.3416
142.1556,87.3958
142.2098,87.4769
142.2288,87.5726
142.2288,88.0976
142.2098,88.1933
142.1556,88.2744
142.0745,88.3286
141.9788,88.3476
141.0788,88.3476
140.9831,88.3286
140.9020,88.2744
140.8478,88.1933
140.8288,88.0976
140.8288,87.5726
140.8478,87.4769
140.9020,87.3958
140.9831,87.3416
141.0788,87.3226
Z" /> 
<path style="fill:#000000; fill-opacity:1.0000; stroke:none;fill-rule:evenodd;"
d="M 141.9788,89.1476
142.0745,89.1666
142.1556,89.2208
142.2098,89.3019
142.2288,89.3976
142.2288,89.9226
142.2098,90.0183
142.1556,90.0994
142.0745,90.1536
141.9788,90.1726
141.0788,90.1726
140.9831,90.1536
140.9020,90.0994
140.8478,90.0183
140.8288,89.9226
140.8288,89.3976
140.8478,89.3019
140.9020,89.2208
140.9831,89.1666
141.0788,89.1476
Z" /> 
<path style="fill:#000000; fill-opacity:1.0000; stroke:none;fill-rule:evenodd;"
d="M 100.6664,101.9368
98.2664,101.9368
98.2664,98.4368
100.6664,98.4368
Z" /> 
<path style="fill:#000000; fill-opacity:1.0000; stroke:none;fill-rule:evenodd;"
d="M 100.6664,96.7368
98.2664,96.7368
98.2664,93.2368
100.6664,93.2368
Z" /> 
<path style="fill:#000000; fill-opacity:1.0000; stroke:none;fill-rule:evenodd;"
d="M 127.4140,100.5100
127.3183,100.4910
127.2372,100.4368
127.1830,100.3557
127.1640,100.2600
127.1640,99.7600
127.1830,99.6643
127.2372,99.5832
127.3183,99.5290
127.4140,99.5100
128.3640,99.5100
128.4597,99.5290
128.5408,99.5832
128.5950,99.6643
128.6140,99.7600
128.6140,100.2600
128.5950,100.3557
128.5408,100.4368
128.4597,100.4910
128.3640,100.5100
Z" /> 
<path style="fill:#000000; fill-opacity:1.0000; stroke:none;fill-rule:evenodd;"
d="M 127.4140,98.6100
127.3183,98.5910
127.2372,98.5368
127.1830,98.4557
127.1640,98.3600
127.1640,97.8600
127.1830,97.7643
127.2372,97.6832
127.3183,97.6290
127.4140,97.6100
128.3640,97.6100
128.4597,97.6290
128.5408,97.6832
128.5950,97.7643
128.6140,97.8600
128.6140,98.3600
128.5950,98.4557
128.5408,98.5368
128.4597,98.5910
128.3640,98.6100
Z" /> 
<path style="fill:#000000; fill-opacity:1.0000; stroke:none;fill-rule:evenodd;"
d="M 104.2000,81.7950
104.2114,81.7376
104.2439,81.6889
104.2926,81.6564
104.3500,81.6450
105.6500,81.6450
105.7074,81.6564
105.7561,81.6889
105.7886,81.7376
105.8000,81.7950
105.8000,82.0950
105.7886,82.1524
105.7561,82.2011
105.7074,82.2336
105.6500,82.2450
104.3500,82.2450
104.2926,82.2336
104.2439,82.2011
104.2114,82.1524
104.2000,82.0950
Z" /> 
<path style="fill:#000000; fill-opacity:1.0000; stroke:none;fill-rule:evenodd;"
d="M 104.2000,83.0650
104.2114,83.0076
104.2439,82.9589
104.2926,82.9264
104.3500,82.9150
105.6500,82.9150
105.7074,82.9264
105.7561,82.9589
105.7886,83.0076
105.8000,83.0650
105.8000,83.3650
105.7886,83.4224
105.7561,83.4711
105.7074,83.5036
105.6500,83.5150
104.3500,83.5150
104.2926,83.5036
104.2439,83.4711
104.2114,83.4224
104.2000,83.3650
Z" /> 
<path style="fill:#000000; fill-opacity:1.0000; stroke:none;fill-rule:evenodd;"
d="M 104.2000,84.3350
104.2114,84.2776
104.2439,84.2289
104.2926,84.1964
104.3500,84.1850
105.6500,84.1850
105.7074,84.1964
105.7561,84.2289
105.7886,84.2776
105.8000,84.3350
105.8000,84.6350
105.7886,84.6924
105.7561,84.7411
105.7074,84.7736
105.6500,84.7850
104.3500,84.7850
104.2926,84.7736
104.2439,84.7411
104.2114,84.6924
104.2000,84.6350
Z" /> 
<path style="fill:#000000; fill-opacity:1.0000; stroke:none;fill-rule:evenodd;"
d="M 104.2000,85.6050
104.2114,85.5476
104.2439,85.4989
104.2926,85.4664
104.3500,85.4550
105.6500,85.4550
105.7074,85.4664
105.7561,85.4989
105.7886,85.5476
105.8000,85.6050
105.8000,85.9050
105.7886,85.9624
105.7561,86.0111
105.7074,86.0436
105.6500,86.0550
104.3500,86.0550
104.2926,86.0436
104.2439,86.0111
104.2114,85.9624
104.2000,85.9050
Z" /> 
<path style="fill:#000000; fill-opacity:1.0000; stroke:none;fill-rule:evenodd;"
d="M 111.4000,85.6050
111.4114,85.5476
111.4439,85.4989
111.4926,85.4664
111.5500,85.4550
112.8500,85.4550
112.9074,85.4664
112.9561,85.4989
112.9886,85.5476
113.0000,85.6050
113.0000,85.9050
112.9886,85.9624
112.9561,86.0111
112.9074,86.0436
112.8500,86.0550
111.5500,86.0550
111.4926,86.0436
111.4439,86.0111
111.4114,85.9624
111.4000,85.9050
Z" /> 
<path style="fill:#000000; fill-opacity:1.0000; stroke:none;fill-rule:evenodd;"
d="M 111.4000,84.3350
111.4114,84.2776
111.4439,84.2289
111.4926,84.1964
111.5500,84.1850
112.8500,84.1850
112.9074,84.1964
112.9561,84.2289
112.9886,84.2776
113.0000,84.3350
113.0000,84.6350
112.9886,84.6924
112.9561,84.7411
112.9074,84.7736
112.8500,84.7850
111.5500,84.7850
111.4926,84.7736
111.4439,84.7411
111.4114,84.6924
111.4000,84.6350
Z" /> 
<path style="fill:#000000; fill-opacity:1.0000; stroke:none;fill-rule:evenodd;"
d="M 111.4000,83.0650
111.4114,83.0076
111.4439,82.9589
111.4926,82.9264
111.5500,82.9150
112.8500,82.9150
112.9074,82.9264
112.9561,82.9589
112.9886,83.0076
113.0000,83.0650
113.0000,83.3650
112.9886,83.4224
112.9561,83.4711
112.9074,83.5036
112.8500,83.5150
111.5500,83.5150
111.4926,83.5036
111.4439,83.4711
111.4114,83.4224
111.4000,83.3650
Z" /> 
<path style="fill:#000000; fill-opacity:1.0000; stroke:none;fill-rule:evenodd;"
d="M 111.4000,81.7950
111.4114,81.7376
111.4439,81.6889
111.4926,81.6564
111.5500,81.6450
112.8500,81.6450
112.9074,81.6564
112.9561,81.6889
112.9886,81.7376
113.0000,81.7950
113.0000,82.0950
112.9886,82.1524
112.9561,82.2011
112.9074,82.2336
112.8500,82.2450
111.5500,82.2450
111.4926,82.2336
111.4439,82.2011
111.4114,82.1524
111.4000,82.0950
Z" /> 
<path style="fill:#000000; fill-opacity:1.0000; stroke:none;fill-rule:evenodd;"
d="M 102.7450,96.4237
102.7506,96.3955
102.7666,96.3716
102.7905,96.3556
102.8187,96.3500
104.6412,96.3500
104.6695,96.3556
104.6934,96.3716
104.7094,96.3955
104.7150,96.4237
104.7150,96.8662
104.7094,96.8945
104.6934,96.9184
104.6695,96.9344
104.6412,96.9400
102.8187,96.9400
102.7905,96.9344
102.7666,96.9184
102.7506,96.8945
102.7450,96.8662
Z" /> 
<path style="fill:#000000; fill-opacity:1.0000; stroke:none;fill-rule:evenodd;"
d="M 102.7450,97.6937
102.7506,97.6655
102.7666,97.6416
102.7905,97.6256
102.8187,97.6200
104.6412,97.6200
104.6695,97.6256
104.6934,97.6416
104.7094,97.6655
104.7150,97.6937
104.7150,98.1362
104.7094,98.1645
104.6934,98.1884
104.6695,98.2044
104.6412,98.2100
102.8187,98.2100
102.7905,98.2044
102.7666,98.1884
102.7506,98.1645
102.7450,98.1362
Z" /> 
<path style="fill:#000000; fill-opacity:1.0000; stroke:none;fill-rule:evenodd;"
d="M 102.7450,98.9637
102.7506,98.9355
102.7666,98.9116
102.7905,98.8956
102.8187,98.8900
104.6412,98.8900
104.6695,98.8956
104.6934,98.9116
104.7094,98.9355
104.7150,98.9637
104.7150,99.4062
104.7094,99.4345
104.6934,99.4584
104.6695,99.4744
104.6412,99.4800
102.8187,99.4800
102.7905,99.4744
102.7666,99.4584
102.7506,99.4345
102.7450,99.4062
Z" /> 
<path style="fill:#000000; fill-opacity:1.0000; stroke:none;fill-rule:evenodd;"
d="M 102.7450,100.2338
102.7506,100.2055
102.7666,100.1816
102.7905,100.1656
102.8187,100.1600
104.6412,100.1600
104.6695,100.1656
104.6934,100.1816
104.7094,100.2055
104.7150,100.2338
104.7150,100.6762
104.7094,100.7045
104.6934,100.7284
104.6695,100.7444
104.6412,100.7500
102.8187,100.7500
102.7905,100.7444
102.7666,100.7284
102.7506,100.7045
102.7450,100.6762
Z" /> 
<path style="fill:#000000; fill-opacity:1.0000; stroke:none;fill-rule:evenodd;"
d="M 107.6950,100.2338
107.7006,100.2055
107.7166,100.1816
107.7405,100.1656
107.7687,100.1600
109.5912,100.1600
109.6195,100.1656
109.6434,100.1816
109.6594,100.2055
109.6650,100.2338
109.6650,100.6762
109.6594,100.7045
109.6434,100.7284
109.6195,100.7444
109.5912,100.7500
107.7687,100.7500
107.7405,100.7444
107.7166,100.7284
107.7006,100.7045
107.6950,100.6762
Z" /> 
<path style="fill:#000000; fill-opacity:1.0000; stroke:none;fill-rule:evenodd;"
d="M 107.6950,98.9637
107.7006,98.9355
107.7166,98.9116
107.7405,98.8956
107.7687,98.8900
109.5912,98.8900
109.6195,98.8956
109.6434,98.9116
109.6594,98.9355
109.6650,98.9637
109.6650,99.4062
109.6594,99.4345
109.6434,99.4584
109.6195,99.4744
109.5912,99.4800
107.7687,99.4800
107.7405,99.4744
107.7166,99.4584
107.7006,99.4345
107.6950,99.4062
Z" /> 
<path style="fill:#000000; fill-opacity:1.0000; stroke:none;fill-rule:evenodd;"
d="M 107.6950,97.6937
107.7006,97.6655
107.7166,97.6416
107.7405,97.6256
107.7687,97.6200
109.5912,97.6200
109.6195,97.6256
109.6434,97.6416
109.6594,97.6655
109.6650,97.6937
109.6650,98.1362
109.6594,98.1645
109.6434,98.1884
109.6195,98.2044
109.5912,98.2100
107.7687,98.2100
107.7405,98.2044
107.7166,98.1884
107.7006,98.1645
107.6950,98.1362
Z" /> 
<path style="fill:#000000; fill-opacity:1.0000; stroke:none;fill-rule:evenodd;"
d="M 107.6950,96.4237
107.7006,96.3955
107.7166,96.3716
107.7405,96.3556
107.7687,96.3500
109.5912,96.3500
109.6195,96.3556
109.6434,96.3716
109.6594,96.3955
109.6650,96.4237
109.6650,96.8662
109.6594,96.8945
109.6434,96.9184
109.6195,96.9344
109.5912,96.9400
107.7687,96.9400
107.7405,96.9344
107.7166,96.9184
107.7006,96.8945
107.6950,96.8662
Z" /> 
<path style="fill:#000000; fill-opacity:1.0000; stroke:none;fill-rule:evenodd;"
d="M 130.1170,80.5750
130.2127,80.5940
130.2938,80.6482
130.3480,80.7293
130.3670,80.8250
130.3670,81.3500
130.3480,81.4457
130.2938,81.5268
130.2127,81.5810
130.1170,81.6000
129.2170,81.6000
129.1213,81.5810
129.0402,81.5268
128.9860,81.4457
128.9670,81.3500
128.9670,80.8250
128.9860,80.7293
129.0402,80.6482
129.1213,80.5940
129.2170,80.5750
Z" /> 
<path style="fill:#000000; fill-opacity:1.0000; stroke:none;fill-rule:evenodd;"
d="M 130.1170,82.4000
130.2127,82.4190
130.2938,82.4732
130.3480,82.5543
130.3670,82.6500
130.3670,83.1750
130.3480,83.2707
130.2938,83.3518
130.2127,83.4060
130.1170,83.4250
129.2170,83.4250
129.1213,83.4060
129.0402,83.3518
128.9860,83.2707
128.9670,83.1750
128.9670,82.6500
128.9860,82.5543
129.0402,82.4732
129.1213,82.4190
129.2170,82.4000
Z" /> 
<path style="fill:#000000; fill-opacity:1.0000; stroke:none;fill-rule:evenodd;"
d="M 104.7060,104.8030
104.6103,104.7840
104.5292,104.7298
104.4750,104.6487
104.4560,104.5530
104.4560,104.0280
104.4750,103.9323
104.5292,103.8512
104.6103,103.7970
104.7060,103.7780
105.6060,103.7780
105.7017,103.7970
105.7828,103.8512
105.8370,103.9323
105.8560,104.0280
105.8560,104.5530
105.8370,104.6487
105.7828,104.7298
105.7017,104.7840
105.6060,104.8030
Z" /> 
<path style="fill:#000000; fill-opacity:1.0000; stroke:none;fill-rule:evenodd;"
d="M 104.7060,102.9780
104.6103,102.9590
104.5292,102.9048
104.4750,102.8237
104.4560,102.7280
104.4560,102.2030
104.4750,102.1073
104.5292,102.0262
104.6103,101.9720
104.7060,101.9530
105.6060,101.9530
105.7017,101.9720
105.7828,102.0262
105.8370,102.1073
105.8560,102.2030
105.8560,102.7280
105.8370,102.8237
105.7828,102.9048
105.7017,102.9590
105.6060,102.9780
Z" /> 
<path style="fill:#000000; fill-opacity:1.0000; stroke:none;fill-rule:evenodd;"
d="M 122.9877,98.7855
122.8945,98.7669
122.8154,98.7141
122.7626,98.6350
122.7440,98.5417
122.7440,98.0542
122.7626,97.9610
122.8154,97.8819
122.8945,97.8291
122.9877,97.8105
123.9002,97.8105
123.9935,97.8291
124.0726,97.8819
124.1254,97.9610
124.1440,98.0542
124.1440,98.5417
124.1254,98.6350
124.0726,98.7141
123.9935,98.7669
123.9002,98.7855
Z" /> 
<path style="fill:#000000; fill-opacity:1.0000; stroke:none;fill-rule:evenodd;"
d="M 122.9877,96.9105
122.8945,96.8919
122.8154,96.8391
122.7626,96.7600
122.7440,96.6667
122.7440,96.1792
122.7626,96.0860
122.8154,96.0069
122.8945,95.9541
122.9877,95.9355
123.9002,95.9355
123.9935,95.9541
124.0726,96.0069
124.1254,96.0860
124.1440,96.1792
124.1440,96.6667
124.1254,96.7600
124.0726,96.8391
123.9935,96.8919
123.9002,96.9105
Z" /> 
<path style="fill:#000000; fill-opacity:1.0000; stroke:none;fill-rule:evenodd;"
d="M 123.8940,99.8175
123.9897,99.8365
124.0708,99.8907
124.1250,99.9718
124.1440,100.0675
124.1440,100.5925
124.1250,100.6882
124.0708,100.7693
123.9897,100.8235
123.8940,100.8425
122.9940,100.8425
122.8983,100.8235
122.8172,100.7693
122.7630,100.6882
122.7440,100.5925
122.7440,100.0675
122.7630,99.9718
122.8172,99.8907
122.8983,99.8365
122.9940,99.8175
Z" /> 
<path style="fill:#000000; fill-opacity:1.0000; stroke:none;fill-rule:evenodd;"
d="M 123.8940,101.6425
123.9897,101.6615
124.0708,101.7157
124.1250,101.7968
124.1440,101.8925
124.1440,102.4175
124.1250,102.5132
124.0708,102.5943
123.9897,102.6485
123.8940,102.6675
122.9940,102.6675
122.8983,102.6485
122.8172,102.5943
122.7630,102.5132
122.7440,102.4175
122.7440,101.8925
122.7630,101.7968
122.8172,101.7157
122.8983,101.6615
122.9940,101.6425
Z" /> 
<path style="fill:#000000; fill-opacity:1.0000; stroke:none;fill-rule:evenodd;"
d="M 115.0750,92.8900
114.9793,92.8710
114.8982,92.8168
114.8440,92.7357
114.8250,92.6400
114.8250,92.1400
114.8440,92.0443
114.8982,91.9632
114.9793,91.9090
115.0750,91.8900
116.0250,91.8900
116.1207,91.9090
116.2018,91.9632
116.2560,92.0443
116.2750,92.1400
116.2750,92.6400
116.2560,92.7357
116.2018,92.8168
116.1207,92.8710
116.0250,92.8900
Z" /> 
<path style="fill:#000000; fill-opacity:1.0000; stroke:none;fill-rule:evenodd;"
d="M 115.0750,90.9900
114.9793,90.9710
114.8982,90.9168
114.8440,90.8357
114.8250,90.7400
114.8250,90.2400
114.8440,90.1443
114.8982,90.0632
114.9793,90.0090
115.0750,89.9900
116.0250,89.9900
116.1207,90.0090
116.2018,90.0632
116.2560,90.1443
116.2750,90.2400
116.2750,90.7400
116.2560,90.8357
116.2018,90.9168
116.1207,90.9710
116.0250,90.9900
Z" /> 
<path style="fill:#000000; fill-opacity:1.0000; stroke:none;fill-rule:evenodd;"
d="M 116.0250,96.0000
116.1207,96.0190
116.2018,96.0732
116.2560,96.1543
116.2750,96.2500
116.2750,96.7500
116.2560,96.8457
116.2018,96.9268
116.1207,96.9810
116.0250,97.0000
115.0750,97.0000
114.9793,96.9810
114.8982,96.9268
114.8440,96.8457
114.8250,96.7500
114.8250,96.2500
114.8440,96.1543
114.8982,96.0732
114.9793,96.0190
115.0750,96.0000
Z" /> 
<path style="fill:#000000; fill-opacity:1.0000; stroke:none;fill-rule:evenodd;"
d="M 116.0250,97.9000
116.1207,97.9190
116.2018,97.9732
116.2560,98.0543
116.2750,98.1500
116.2750,98.6500
116.2560,98.7457
116.2018,98.8268
116.1207,98.8810
116.0250,98.9000
115.0750,98.9000
114.9793,98.8810
114.8982,98.8268
114.8440,98.7457
114.8250,98.6500
114.8250,98.1500
114.8440,98.0543
114.8982,97.9732
114.9793,97.9190
115.0750,97.9000
Z" /> 
<path style="fill:#000000; fill-opacity:1.0000; stroke:none;fill-rule:evenodd;"
d="M 104.2580,88.8770
104.2694,88.8196
104.3019,88.7709
104.3506,88.7384
104.4080,88.7270
105.7080,88.7270
105.7654,88.7384
105.8141,88.7709
105.8466,88.8196
105.8580,88.8770
105.8580,89.1770
105.8466,89.2344
105.8141,89.2831
105.7654,89.3156
105.7080,89.3270
104.4080,89.3270
104.3506,89.3156
104.3019,89.2831
104.2694,89.2344
104.2580,89.1770
Z" /> 
<path style="fill:#000000; fill-opacity:1.0000; stroke:none;fill-rule:evenodd;"
d="M 104.2580,90.1470
104.2694,90.0896
104.3019,90.0409
104.3506,90.0084
104.4080,89.9970
105.7080,89.9970
105.7654,90.0084
105.8141,90.0409
105.8466,90.0896
105.8580,90.1470
105.8580,90.4470
105.8466,90.5044
105.8141,90.5531
105.7654,90.5856
105.7080,90.5970
104.4080,90.5970
104.3506,90.5856
104.3019,90.5531
104.2694,90.5044
104.2580,90.4470
Z" /> 
<path style="fill:#000000; fill-opacity:1.0000; stroke:none;fill-rule:evenodd;"
d="M 104.2580,91.4170
104.2694,91.3596
104.3019,91.3109
104.3506,91.2784
104.4080,91.2670
105.7080,91.2670
105.7654,91.2784
105.8141,91.3109
105.8466,91.3596
105.8580,91.4170
105.8580,91.7170
105.8466,91.7744
105.8141,91.8231
105.7654,91.8556
105.7080,91.8670
104.4080,91.8670
104.3506,91.8556
104.3019,91.8231
104.2694,91.7744
104.2580,91.7170
Z" /> 
<path style="fill:#000000; fill-opacity:1.0000; stroke:none;fill-rule:evenodd;"
d="M 104.2580,92.6870
104.2694,92.6296
104.3019,92.5809
104.3506,92.5484
104.4080,92.5370
105.7080,92.5370
105.7654,92.5484
105.8141,92.5809
105.8466,92.6296
105.8580,92.6870
105.8580,92.9870
105.8466,93.0444
105.8141,93.0931
105.7654,93.1256
105.7080,93.1370
104.4080,93.1370
104.3506,93.1256
104.3019,93.0931
104.2694,93.0444
104.2580,92.9870
Z" /> 
<path style="fill:#000000; fill-opacity:1.0000; stroke:none;fill-rule:evenodd;"
d="M 111.4580,92.6870
111.4694,92.6296
111.5019,92.5809
111.5506,92.5484
111.6080,92.5370
112.9080,92.5370
112.9654,92.5484
113.0141,92.5809
113.0466,92.6296
113.0580,92.6870
113.0580,92.9870
113.0466,93.0444
113.0141,93.0931
112.9654,93.1256
112.9080,93.1370
111.6080,93.1370
111.5506,93.1256
111.5019,93.0931
111.4694,93.0444
111.4580,92.9870
Z" /> 
<path style="fill:#000000; fill-opacity:1.0000; stroke:none;fill-rule:evenodd;"
d="M 111.4580,91.4170
111.4694,91.3596
111.5019,91.3109
111.5506,91.2784
111.6080,91.2670
112.9080,91.2670
112.9654,91.2784
113.0141,91.3109
113.0466,91.3596
113.0580,91.4170
113.0580,91.7170
113.0466,91.7744
113.0141,91.8231
112.9654,91.8556
112.9080,91.8670
111.6080,91.8670
111.5506,91.8556
111.5019,91.8231
111.4694,91.7744
111.4580,91.7170
Z" /> 
<path style="fill:#000000; fill-opacity:1.0000; stroke:none;fill-rule:evenodd;"
d="M 111.4580,90.1470
111.4694,90.0896
111.5019,90.0409
111.5506,90.0084
111.6080,89.9970
112.9080,89.9970
112.9654,90.0084
113.0141,90.0409
113.0466,90.0896
113.0580,90.1470
113.0580,90.4470
113.0466,90.5044
113.0141,90.5531
112.9654,90.5856
112.9080,90.5970
111.6080,90.5970
111.5506,90.5856
111.5019,90.5531
111.4694,90.5044
111.4580,90.4470
Z" /> 
<path style="fill:#000000; fill-opacity:1.0000; stroke:none;fill-rule:evenodd;"
d="M 111.4580,88.8770
111.4694,88.8196
111.5019,88.7709
111.5506,88.7384
111.6080,88.7270
112.9080,88.7270
112.9654,88.7384
113.0141,88.7709
113.0466,88.8196
113.0580,88.8770
113.0580,89.1770
113.0466,89.2344
113.0141,89.2831
112.9654,89.3156
112.9080,89.3270
111.6080,89.3270
111.5506,89.3156
111.5019,89.2831
111.4694,89.2344
111.4580,89.1770
Z" /> 
<path style="fill:#000000; fill-opacity:1.0000; stroke:none;fill-rule:evenodd;"
d="M 127.0000,80.5750
127.0957,80.5940
127.1768,80.6482
127.2310,80.7293
127.2500,80.8250
127.2500,81.3500
127.2310,81.4457
127.1768,81.5268
127.0957,81.5810
127.0000,81.6000
126.1000,81.6000
126.0043,81.5810
125.9232,81.5268
125.8690,81.4457
125.8500,81.3500
125.8500,80.8250
125.8690,80.7293
125.9232,80.6482
126.0043,80.5940
126.1000,80.5750
Z" /> 
<path style="fill:#000000; fill-opacity:1.0000; stroke:none;fill-rule:evenodd;"
d="M 127.0000,82.4000
127.0957,82.4190
127.1768,82.4732
127.2310,82.5543
127.2500,82.6500
127.2500,83.1750
127.2310,83.2707
127.1768,83.3518
127.0957,83.4060
127.0000,83.4250
126.1000,83.4250
126.0043,83.4060
125.9232,83.3518
125.8690,83.2707
125.8500,83.1750
125.8500,82.6500
125.8690,82.5543
125.9232,82.4732
126.0043,82.4190
126.1000,82.4000
Z" /> 
<path style="fill:#000000; fill-opacity:1.0000; stroke:none;fill-rule:evenodd;"
d="M 112.7250,96.1500
112.8207,96.1690
112.9018,96.2232
112.9560,96.3043
112.9750,96.4000
112.9750,96.9000
112.9560,96.9957
112.9018,97.0768
112.8207,97.1310
112.7250,97.1500
111.7750,97.1500
111.6793,97.1310
111.5982,97.0768
111.5440,96.9957
111.5250,96.9000
111.5250,96.4000
111.5440,96.3043
111.5982,96.2232
111.6793,96.1690
111.7750,96.1500
Z" /> 
<path style="fill:#000000; fill-opacity:1.0000; stroke:none;fill-rule:evenodd;"
d="M 112.7250,98.0500
112.8207,98.0690
112.9018,98.1232
112.9560,98.2043
112.9750,98.3000
112.9750,98.8000
112.9560,98.8957
112.9018,98.9768
112.8207,99.0310
112.7250,99.0500
111.7750,99.0500
111.6793,99.0310
111.5982,98.9768
111.5440,98.8957
111.5250,98.8000
111.5250,98.3000
111.5440,98.2043
111.5982,98.1232
111.6793,98.0690
111.7750,98.0500
Z" /> 
<path style="fill:#000000; fill-opacity:1.0000; stroke:none;fill-rule:evenodd;"
d="M 122.0950,86.9937
122.1002,86.9674
122.1151,86.9451
122.1374,86.9302
122.1637,86.9250
123.4962,86.9250
123.5226,86.9302
123.5449,86.9451
123.5598,86.9674
123.5650,86.9937
123.5650,87.4062
123.5598,87.4326
123.5449,87.4549
123.5226,87.4698
123.4962,87.4750
122.1637,87.4750
122.1374,87.4698
122.1151,87.4549
122.1002,87.4326
122.0950,87.4062
Z" /> 
<path style="fill:#000000; fill-opacity:1.0000; stroke:none;fill-rule:evenodd;"
d="M 122.0950,87.7938
122.1002,87.7674
122.1151,87.7451
122.1374,87.7302
122.1637,87.7250
123.4962,87.7250
123.5226,87.7302
123.5449,87.7451
123.5598,87.7674
123.5650,87.7938
123.5650,88.2062
123.5598,88.2326
123.5449,88.2549
123.5226,88.2698
123.4962,88.2750
122.1637,88.2750
122.1374,88.2698
122.1151,88.2549
122.1002,88.2326
122.0950,88.2062
Z" /> 
<path style="fill:#000000; fill-opacity:1.0000; stroke:none;fill-rule:evenodd;"
d="M 122.0950,88.5938
122.1002,88.5674
122.1151,88.5451
122.1374,88.5302
122.1637,88.5250
123.4962,88.5250
123.5226,88.5302
123.5449,88.5451
123.5598,88.5674
123.5650,88.5938
123.5650,89.0062
123.5598,89.0326
123.5449,89.0549
123.5226,89.0698
123.4962,89.0750
122.1637,89.0750
122.1374,89.0698
122.1151,89.0549
122.1002,89.0326
122.0950,89.0062
Z" /> 
<path style="fill:#000000; fill-opacity:1.0000; stroke:none;fill-rule:evenodd;"
d="M 122.0950,89.3937
122.1002,89.3674
122.1151,89.3451
122.1374,89.3302
122.1637,89.3250
123.4962,89.3250
123.5226,89.3302
123.5449,89.3451
123.5598,89.3674
123.5650,89.3937
123.5650,89.8062
123.5598,89.8326
123.5449,89.8549
123.5226,89.8698
123.4962,89.8750
122.1637,89.8750
122.1374,89.8698
122.1151,89.8549
122.1002,89.8326
122.0950,89.8062
Z" /> 
<path style="fill:#000000; fill-opacity:1.0000; stroke:none;fill-rule:evenodd;"
d="M 122.0950,90.1937
122.1002,90.1674
122.1151,90.1451
122.1374,90.1302
122.1637,90.1250
123.4962,90.1250
123.5226,90.1302
123.5449,90.1451
123.5598,90.1674
123.5650,90.1937
123.5650,90.6063
123.5598,90.6326
123.5449,90.6549
123.5226,90.6698
123.4962,90.6750
122.1637,90.6750
122.1374,90.6698
122.1151,90.6549
122.1002,90.6326
122.0950,90.6063
Z" /> 
<path style="fill:#000000; fill-opacity:1.0000; stroke:none;fill-rule:evenodd;"
d="M 122.0950,90.9937
122.1002,90.9674
122.1151,90.9451
122.1374,90.9302
122.1637,90.9250
123.4962,90.9250
123.5226,90.9302
123.5449,90.9451
123.5598,90.9674
123.5650,90.9937
123.5650,91.4062
123.5598,91.4326
123.5449,91.4549
123.5226,91.4698
123.4962,91.4750
122.1637,91.4750
122.1374,91.4698
122.1151,91.4549
122.1002,91.4326
122.0950,91.4062
Z" /> 
<path style="fill:#000000; fill-opacity:1.0000; stroke:none;fill-rule:evenodd;"
d="M 122.0950,91.7938
122.1002,91.7674
122.1151,91.7451
122.1374,91.7302
122.1637,91.7250
123.4962,91.7250
123.5226,91.7302
123.5449,91.7451
123.5598,91.7674
123.5650,91.7938
123.5650,92.2062
123.5598,92.2326
123.5449,92.2549
123.5226,92.2698
123.4962,92.2750
122.1637,92.2750
122.1374,92.2698
122.1151,92.2549
122.1002,92.2326
122.0950,92.2062
Z" /> 
<path style="fill:#000000; fill-opacity:1.0000; stroke:none;fill-rule:evenodd;"
d="M 122.0950,92.5938
122.1002,92.5674
122.1151,92.5451
122.1374,92.5302
122.1637,92.5250
123.4962,92.5250
123.5226,92.5302
123.5449,92.5451
123.5598,92.5674
123.5650,92.5938
123.5650,93.0062
123.5598,93.0326
123.5449,93.0549
123.5226,93.0698
123.4962,93.0750
122.1637,93.0750
122.1374,93.0698
122.1151,93.0549
122.1002,93.0326
122.0950,93.0062
Z" /> 
<path style="fill:#000000; fill-opacity:1.0000; stroke:none;fill-rule:evenodd;"
d="M 123.9250,93.5037
123.9302,93.4774
123.9451,93.4551
123.9674,93.4402
123.9937,93.4350
124.4062,93.4350
124.4326,93.4402
124.4549,93.4551
124.4698,93.4774
124.4750,93.5037
124.4750,94.8362
124.4698,94.8626
124.4549,94.8849
124.4326,94.8998
124.4062,94.9050
123.9937,94.9050
123.9674,94.8998
123.9451,94.8849
123.9302,94.8626
123.9250,94.8362
Z" /> 
<path style="fill:#000000; fill-opacity:1.0000; stroke:none;fill-rule:evenodd;"
d="M 124.7250,93.5037
124.7302,93.4774
124.7451,93.4551
124.7674,93.4402
124.7937,93.4350
125.2062,93.4350
125.2326,93.4402
125.2549,93.4551
125.2698,93.4774
125.2750,93.5037
125.2750,94.8362
125.2698,94.8626
125.2549,94.8849
125.2326,94.8998
125.2062,94.9050
124.7937,94.9050
124.7674,94.8998
124.7451,94.8849
124.7302,94.8626
124.7250,94.8362
Z" /> 
<path style="fill:#000000; fill-opacity:1.0000; stroke:none;fill-rule:evenodd;"
d="M 125.5250,93.5037
125.5302,93.4774
125.5451,93.4551
125.5674,93.4402
125.5938,93.4350
126.0062,93.4350
126.0326,93.4402
126.0549,93.4551
126.0698,93.4774
126.0750,93.5037
126.0750,94.8362
126.0698,94.8626
126.0549,94.8849
126.0326,94.8998
126.0062,94.9050
125.5938,94.9050
125.5674,94.8998
125.5451,94.8849
125.5302,94.8626
125.5250,94.8362
Z" /> 
<path style="fill:#000000; fill-opacity:1.0000; stroke:none;fill-rule:evenodd;"
d="M 126.3250,93.5037
126.3302,93.4774
126.3451,93.4551
126.3674,93.4402
126.3937,93.4350
126.8062,93.4350
126.8326,93.4402
126.8549,93.4551
126.8698,93.4774
126.8750,93.5037
126.8750,94.8362
126.8698,94.8626
126.8549,94.8849
126.8326,94.8998
126.8062,94.9050
126.3937,94.9050
126.3674,94.8998
126.3451,94.8849
126.3302,94.8626
126.3250,94.8362
Z" /> 
<path style="fill:#000000; fill-opacity:1.0000; stroke:none;fill-rule:evenodd;"
d="M 127.1250,93.5037
127.1302,93.4774
127.1451,93.4551
127.1674,93.4402
127.1937,93.4350
127.6062,93.4350
127.6326,93.4402
127.6549,93.4551
127.6698,93.4774
127.6750,93.5037
127.6750,94.8362
127.6698,94.8626
127.6549,94.8849
127.6326,94.8998
127.6062,94.9050
127.1937,94.9050
127.1674,94.8998
127.1451,94.8849
127.1302,94.8626
127.1250,94.8362
Z" /> 
<path style="fill:#000000; fill-opacity:1.0000; stroke:none;fill-rule:evenodd;"
d="M 127.9250,93.5037
127.9302,93.4774
127.9451,93.4551
127.9674,93.4402
127.9937,93.4350
128.4062,93.4350
128.4326,93.4402
128.4549,93.4551
128.4698,93.4774
128.4750,93.5037
128.4750,94.8362
128.4698,94.8626
128.4549,94.8849
128.4326,94.8998
128.4062,94.9050
127.9937,94.9050
127.9674,94.8998
127.9451,94.8849
127.9302,94.8626
127.9250,94.8362
Z" /> 
<path style="fill:#000000; fill-opacity:1.0000; stroke:none;fill-rule:evenodd;"
d="M 128.7250,93.5037
128.7302,93.4774
128.7451,93.4551
128.7674,93.4402
128.7937,93.4350
129.2062,93.4350
129.2326,93.4402
129.2549,93.4551
129.2698,93.4774
129.2750,93.5037
129.2750,94.8362
129.2698,94.8626
129.2549,94.8849
129.2326,94.8998
129.2062,94.9050
128.7937,94.9050
128.7674,94.8998
128.7451,94.8849
128.7302,94.8626
128.7250,94.8362
Z" /> 
<path style="fill:#000000; fill-opacity:1.0000; stroke:none;fill-rule:evenodd;"
d="M 129.5250,93.5037
129.5302,93.4774
129.5451,93.4551
129.5674,93.4402
129.5938,93.4350
130.0062,93.4350
130.0326,93.4402
130.0549,93.4551
130.0698,93.4774
130.0750,93.5037
130.0750,94.8362
130.0698,94.8626
130.0549,94.8849
130.0326,94.8998
130.0062,94.9050
129.5938,94.9050
129.5674,94.8998
129.5451,94.8849
129.5302,94.8626
129.5250,94.8362
Z" /> 
<path style="fill:#000000; fill-opacity:1.0000; stroke:none;fill-rule:evenodd;"
d="M 130.4350,92.5938
130.4402,92.5674
130.4551,92.5451
130.4774,92.5302
130.5037,92.5250
131.8363,92.5250
131.8626,92.5302
131.8849,92.5451
131.8998,92.5674
131.9050,92.5938
131.9050,93.0062
131.8998,93.0326
131.8849,93.0549
131.8626,93.0698
131.8363,93.0750
130.5037,93.0750
130.4774,93.0698
130.4551,93.0549
130.4402,93.0326
130.4350,93.0062
Z" /> 
<path style="fill:#000000; fill-opacity:1.0000; stroke:none;fill-rule:evenodd;"
d="M 130.4350,91.7938
130.4402,91.7674
130.4551,91.7451
130.4774,91.7302
130.5037,91.7250
131.8363,91.7250
131.8626,91.7302
131.8849,91.7451
131.8998,91.7674
131.9050,91.7938
131.9050,92.2062
131.8998,92.2326
131.8849,92.2549
131.8626,92.2698
131.8363,92.2750
130.5037,92.2750
130.4774,92.2698
130.4551,92.2549
130.4402,92.2326
130.4350,92.2062
Z" /> 
<path style="fill:#000000; fill-opacity:1.0000; stroke:none;fill-rule:evenodd;"
d="M 130.4350,90.9937
130.4402,90.9674
130.4551,90.9451
130.4774,90.9302
130.5037,90.9250
131.8363,90.9250
131.8626,90.9302
131.8849,90.9451
131.8998,90.9674
131.9050,90.9937
131.9050,91.4062
131.8998,91.4326
131.8849,91.4549
131.8626,91.4698
131.8363,91.4750
130.5037,91.4750
130.4774,91.4698
130.4551,91.4549
130.4402,91.4326
130.4350,91.4062
Z" /> 
<path style="fill:#000000; fill-opacity:1.0000; stroke:none;fill-rule:evenodd;"
d="M 130.4350,90.1937
130.4402,90.1674
130.4551,90.1451
130.4774,90.1302
130.5037,90.1250
131.8363,90.1250
131.8626,90.1302
131.8849,90.1451
131.8998,90.1674
131.9050,90.1937
131.9050,90.6063
131.8998,90.6326
131.8849,90.6549
131.8626,90.6698
131.8363,90.6750
130.5037,90.6750
130.4774,90.6698
130.4551,90.6549
130.4402,90.6326
130.4350,90.6063
Z" /> 
<path style="fill:#000000; fill-opacity:1.0000; stroke:none;fill-rule:evenodd;"
d="M 130.4350,89.3937
130.4402,89.3674
130.4551,89.3451
130.4774,89.3302
130.5037,89.3250
131.8363,89.3250
131.8626,89.3302
131.8849,89.3451
131.8998,89.3674
131.9050,89.3937
131.9050,89.8062
131.8998,89.8326
131.8849,89.8549
131.8626,89.8698
131.8363,89.8750
130.5037,89.8750
130.4774,89.8698
130.4551,89.8549
130.4402,89.8326
130.4350,89.8062
Z" /> 
<path style="fill:#000000; fill-opacity:1.0000; stroke:none;fill-rule:evenodd;"
d="M 130.4350,88.5938
130.4402,88.5674
130.4551,88.5451
130.4774,88.5302
130.5037,88.5250
131.8363,88.5250
131.8626,88.5302
131.8849,88.5451
131.8998,88.5674
131.9050,88.5938
131.9050,89.0062
131.8998,89.0326
131.8849,89.0549
131.8626,89.0698
131.8363,89.0750
130.5037,89.0750
130.4774,89.0698
130.4551,89.0549
130.4402,89.0326
130.4350,89.0062
Z" /> 
<path style="fill:#000000; fill-opacity:1.0000; stroke:none;fill-rule:evenodd;"
d="M 130.4350,87.7938
130.4402,87.7674
130.4551,87.7451
130.4774,87.7302
130.5037,87.7250
131.8363,87.7250
131.8626,87.7302
131.8849,87.7451
131.8998,87.7674
131.9050,87.7938
131.9050,88.2062
131.8998,88.2326
131.8849,88.2549
131.8626,88.2698
131.8363,88.2750
130.5037,88.2750
130.4774,88.2698
130.4551,88.2549
130.4402,88.2326
130.4350,88.2062
Z" /> 
<path style="fill:#000000; fill-opacity:1.0000; stroke:none;fill-rule:evenodd;"
d="M 130.4350,86.9937
130.4402,86.9674
130.4551,86.9451
130.4774,86.9302
130.5037,86.9250
131.8363,86.9250
131.8626,86.9302
131.8849,86.9451
131.8998,86.9674
131.9050,86.9937
131.9050,87.4062
131.8998,87.4326
131.8849,87.4549
131.8626,87.4698
131.8363,87.4750
130.5037,87.4750
130.4774,87.4698
130.4551,87.4549
130.4402,87.4326
130.4350,87.4062
Z" /> 
<path style="fill:#000000; fill-opacity:1.0000; stroke:none;fill-rule:evenodd;"
d="M 129.5250,85.1637
129.5302,85.1374
129.5451,85.1151
129.5674,85.1002
129.5938,85.0950
130.0062,85.0950
130.0326,85.1002
130.0549,85.1151
130.0698,85.1374
130.0750,85.1637
130.0750,86.4962
130.0698,86.5226
130.0549,86.5449
130.0326,86.5598
130.0062,86.5650
129.5938,86.5650
129.5674,86.5598
129.5451,86.5449
129.5302,86.5226
129.5250,86.4962
Z" /> 
<path style="fill:#000000; fill-opacity:1.0000; stroke:none;fill-rule:evenodd;"
d="M 128.7250,85.1637
128.7302,85.1374
128.7451,85.1151
128.7674,85.1002
128.7937,85.0950
129.2062,85.0950
129.2326,85.1002
129.2549,85.1151
129.2698,85.1374
129.2750,85.1637
129.2750,86.4962
129.2698,86.5226
129.2549,86.5449
129.2326,86.5598
129.2062,86.5650
128.7937,86.5650
128.7674,86.5598
128.7451,86.5449
128.7302,86.5226
128.7250,86.4962
Z" /> 
<path style="fill:#000000; fill-opacity:1.0000; stroke:none;fill-rule:evenodd;"
d="M 127.9250,85.1637
127.9302,85.1374
127.9451,85.1151
127.9674,85.1002
127.9937,85.0950
128.4062,85.0950
128.4326,85.1002
128.4549,85.1151
128.4698,85.1374
128.4750,85.1637
128.4750,86.4962
128.4698,86.5226
128.4549,86.5449
128.4326,86.5598
128.4062,86.5650
127.9937,86.5650
127.9674,86.5598
127.9451,86.5449
127.9302,86.5226
127.9250,86.4962
Z" /> 
<path style="fill:#000000; fill-opacity:1.0000; stroke:none;fill-rule:evenodd;"
d="M 127.1250,85.1637
127.1302,85.1374
127.1451,85.1151
127.1674,85.1002
127.1937,85.0950
127.6062,85.0950
127.6326,85.1002
127.6549,85.1151
127.6698,85.1374
127.6750,85.1637
127.6750,86.4962
127.6698,86.5226
127.6549,86.5449
127.6326,86.5598
127.6062,86.5650
127.1937,86.5650
127.1674,86.5598
127.1451,86.5449
127.1302,86.5226
127.1250,86.4962
Z" /> 
<path style="fill:#000000; fill-opacity:1.0000; stroke:none;fill-rule:evenodd;"
d="M 126.3250,85.1637
126.3302,85.1374
126.3451,85.1151
126.3674,85.1002
126.3937,85.0950
126.8062,85.0950
126.8326,85.1002
126.8549,85.1151
126.8698,85.1374
126.8750,85.1637
126.8750,86.4962
126.8698,86.5226
126.8549,86.5449
126.8326,86.5598
126.8062,86.5650
126.3937,86.5650
126.3674,86.5598
126.3451,86.5449
126.3302,86.5226
126.3250,86.4962
Z" /> 
<path style="fill:#000000; fill-opacity:1.0000; stroke:none;fill-rule:evenodd;"
d="M 125.5250,85.1637
125.5302,85.1374
125.5451,85.1151
125.5674,85.1002
125.5938,85.0950
126.0062,85.0950
126.0326,85.1002
126.0549,85.1151
126.0698,85.1374
126.0750,85.1637
126.0750,86.4962
126.0698,86.5226
126.0549,86.5449
126.0326,86.5598
126.0062,86.5650
125.5938,86.5650
125.5674,86.5598
125.5451,86.5449
125.5302,86.5226
125.5250,86.4962
Z" /> 
<path style="fill:#000000; fill-opacity:1.0000; stroke:none;fill-rule:evenodd;"
d="M 124.7250,85.1637
124.7302,85.1374
124.7451,85.1151
124.7674,85.1002
124.7937,85.0950
125.2062,85.0950
125.2326,85.1002
125.2549,85.1151
125.2698,85.1374
125.2750,85.1637
125.2750,86.4962
125.2698,86.5226
125.2549,86.5449
125.2326,86.5598
125.2062,86.5650
124.7937,86.5650
124.7674,86.5598
124.7451,86.5449
124.7302,86.5226
124.7250,86.4962
Z" /> 
<path style="fill:#000000; fill-opacity:1.0000; stroke:none;fill-rule:evenodd;"
d="M 123.9250,85.1637
123.9302,85.1374
123.9451,85.1151
123.9674,85.1002
123.9937,85.0950
124.4062,85.0950
124.4326,85.1002
124.4549,85.1151
124.4698,85.1374
124.4750,85.1637
124.4750,86.4962
124.4698,86.5226
124.4549,86.5449
124.4326,86.5598
124.4062,86.5650
123.9937,86.5650
123.9674,86.5598
123.9451,86.5449
123.9302,86.5226
123.9250,86.4962
Z" /> 
<path style="fill:#000000; fill-opacity:1.0000; stroke:none;fill-rule:evenodd;"
d="M 141.9851,91.1834
142.0783,91.2020
142.1574,91.2548
142.2102,91.3339
142.2288,91.4271
142.2288,91.9146
142.2102,92.0079
142.1574,92.0870
142.0783,92.1398
141.9851,92.1584
141.0726,92.1584
140.9793,92.1398
140.9002,92.0870
140.8474,92.0079
140.8288,91.9146
140.8288,91.4271
140.8474,91.3339
140.9002,91.2548
140.9793,91.2020
141.0726,91.1834
Z" /> 
<path style="fill:#000000; fill-opacity:1.0000; stroke:none;fill-rule:evenodd;"
d="M 141.9851,93.0584
142.0783,93.0770
142.1574,93.1298
142.2102,93.2089
142.2288,93.3021
142.2288,93.7896
142.2102,93.8829
142.1574,93.9620
142.0783,94.0148
141.9851,94.0334
141.0726,94.0334
140.9793,94.0148
140.9002,93.9620
140.8474,93.8829
140.8288,93.7896
140.8288,93.3021
140.8474,93.2089
140.9002,93.1298
140.9793,93.0770
141.0726,93.0584
Z" /> 
<path style="fill:#000000; fill-opacity:1.0000; stroke:none;fill-rule:evenodd;"
d="M 132.6570,80.5750
132.7527,80.5940
132.8338,80.6482
132.8880,80.7293
132.9070,80.8250
132.9070,81.3500
132.8880,81.4457
132.8338,81.5268
132.7527,81.5810
132.6570,81.6000
131.7570,81.6000
131.6613,81.5810
131.5802,81.5268
131.5260,81.4457
131.5070,81.3500
131.5070,80.8250
131.5260,80.7293
131.5802,80.6482
131.6613,80.5940
131.7570,80.5750
Z" /> 
<path style="fill:#000000; fill-opacity:1.0000; stroke:none;fill-rule:evenodd;"
d="M 132.6570,82.4000
132.7527,82.4190
132.8338,82.4732
132.8880,82.5543
132.9070,82.6500
132.9070,83.1750
132.8880,83.2707
132.8338,83.3518
132.7527,83.4060
132.6570,83.4250
131.7570,83.4250
131.6613,83.4060
131.5802,83.3518
131.5260,83.2707
131.5070,83.1750
131.5070,82.6500
131.5260,82.5543
131.5802,82.4732
131.6613,82.4190
131.7570,82.4000
Z" /> 
<path style="fill:#000000; fill-opacity:1.0000; stroke:none;fill-rule:evenodd;"
d="M 117.8000,90.2500
120.2000,90.2500
120.2000,93.7500
117.8000,93.7500
Z" /> 
<path style="fill:#000000; fill-opacity:1.0000; stroke:none;fill-rule:evenodd;"
d="M 117.8000,95.4500
120.2000,95.4500
120.2000,98.9500
117.8000,98.9500
Z" /> 
<path style="fill:#000000; fill-opacity:1.0000; stroke:none;fill-rule:evenodd;"
d="M 134.5924,88.4758
134.6114,88.3801
134.6656,88.2990
134.7467,88.2448
134.8424,88.2258
135.3424,88.2258
135.4381,88.2448
135.5192,88.2990
135.5734,88.3801
135.5924,88.4758
135.5924,89.4258
135.5734,89.5215
135.5192,89.6026
135.4381,89.6568
135.3424,89.6758
134.8424,89.6758
134.7467,89.6568
134.6656,89.6026
134.6114,89.5215
134.5924,89.4258
Z" /> 
<path style="fill:#000000; fill-opacity:1.0000; stroke:none;fill-rule:evenodd;"
d="M 136.4924,88.4758
136.5114,88.3801
136.5656,88.2990
136.6467,88.2448
136.7424,88.2258
137.2424,88.2258
137.3381,88.2448
137.4192,88.2990
137.4734,88.3801
137.4924,88.4758
137.4924,89.4258
137.4734,89.5215
137.4192,89.6026
137.3381,89.6568
137.2424,89.6758
136.7424,89.6758
136.6467,89.6568
136.5656,89.6026
136.5114,89.5215
136.4924,89.4258
Z" /> 
</g> 
</svg>
