<?xml version="1.0" standalone="no"?>
 <!DOCTYPE svg PUBLIC "-//W3C//DTD SVG 1.1//EN" 
 "http://www.w3.org/Graphics/SVG/1.1/DTD/svg11.dtd"> 
<svg
  xmlns:svg="http://www.w3.org/2000/svg"
  xmlns="http://www.w3.org/2000/svg"
  xmlns:xlink="http://www.w3.org/1999/xlink"
  version="1.1"
  width="297.0022mm" height="210.0072mm" viewBox="0.0000 0.0000 297.0022 210.0072">
<title>SVG Image created as MCU_Data_Logger-In1_Cu.svg date 2025/03/12 12:21:20 </title>
  <desc>Image generated by PCBNEW </desc>
<g style="fill:#000000; fill-opacity:1.0000;stroke:#000000; stroke-opacity:1.0000;
stroke-linecap:round; stroke-linejoin:round;"
 transform="translate(0 0) scale(1 1)">
<path style="fill:#000000; fill-opacity:1.0000; stroke:none;fill-rule:evenodd;"
d="M 138.1388,97.4716
138.1388,95.7716
139.8388,95.7716
139.8388,97.4716
Z" /> 
</g>
<g style="fill:#000000; fill-opacity:1.0000; stroke:none;">
<circle cx="141.5288" cy="96.6216" r="0.8500" /> 
<circle cx="138.9888" cy="99.1616" r="0.8500" /> 
<circle cx="141.5288" cy="99.1616" r="0.8500" /> 
<circle cx="138.9888" cy="101.7016" r="0.8500" /> 
<circle cx="141.5288" cy="101.7016" r="0.8500" /> 
<path style="fill:#000000; fill-opacity:1.0000; stroke:none;fill-rule:evenodd;"
d="M 119.2820,75.0960
120.9820,75.0960
120.9820,76.7960
119.2820,76.7960
Z" /> 
<circle cx="117.5920" cy="75.9460" r="0.8500" /> 
<circle cx="115.0520" cy="75.9460" r="0.8500" /> 
<circle cx="112.5120" cy="75.9460" r="0.8500" /> 
<path style="fill:#000000; fill-opacity:1.0000; stroke:none;fill-rule:evenodd;"
d="M 116.0300,106.8950
114.3300,106.8950
114.3300,105.1950
116.0300,105.1950
Z" /> 
<circle cx="117.7200" cy="106.0450" r="0.8500" /> 
<circle cx="120.2600" cy="106.0450" r="0.8500" /> 
<circle cx="122.8000" cy="106.0450" r="0.8500" /> 
<circle cx="125.3400" cy="106.0450" r="0.8500" /> 
<circle cx="127.8800" cy="106.0450" r="0.8500" /> 
<circle cx="130.4200" cy="106.0450" r="0.8500" /> 
<circle cx="132.9600" cy="106.0450" r="0.8500" /> 
<circle cx="135.5000" cy="106.0450" r="0.8500" /> 
<path style="fill:#000000; fill-opacity:1.0000; stroke:none;fill-rule:evenodd;"
d="M 140.2724,81.2664
140.2724,79.5664
141.9724,79.5664
141.9724,81.2664
Z" /> 
<circle cx="141.1224" cy="82.9564" r="0.8500" /> 
<path style="fill:#000000; fill-opacity:1.0000; stroke:none;fill-rule:evenodd;"
d="M 132.2460,75.0960
133.9460,75.0960
133.9460,76.7960
132.2460,76.7960
Z" /> 
<circle cx="130.5560" cy="75.9460" r="0.8500" /> 
<circle cx="128.0160" cy="75.9460" r="0.8500" /> 
<circle cx="125.4760" cy="75.9460" r="0.8500" /> 
<circle cx="127.8890" cy="101.0920" r="0.3000" /> 
</g>
<g style="fill:#000000; fill-opacity:1.0000; stroke:none;">
<circle cx="112.2000" cy="99.7000" r="0.2500" /> 
</g>
<g style="fill:#000000; fill-opacity:1.0000; stroke:none;">
<circle cx="134.6200" cy="88.8492" r="0.3000" /> 
</g>
<g style="fill:#000000; fill-opacity:1.0000; stroke:none;">
<circle cx="113.7000" cy="83.2000" r="0.2500" /> 
</g>
<g style="fill:#000000; fill-opacity:1.0000; stroke:none;">
<circle cx="129.8000" cy="89.6000" r="0.2500" /> 
</g>
<g style="fill:#000000; fill-opacity:1.0000; stroke:none;">
<circle cx="114.3000" cy="92.4560" r="0.2500" /> 
</g>
<g style="fill:#000000; fill-opacity:1.0000; stroke:none;">
<circle cx="121.5390" cy="102.1080" r="0.3000" /> 
</g>
<g style="fill:#000000; fill-opacity:1.0000; stroke:none;">
<circle cx="103.5000" cy="85.8000" r="0.2500" /> 
</g>
<g style="fill:#000000; fill-opacity:1.0000; stroke:none;">
<circle cx="105.0000" cy="93.6000" r="0.2500" /> 
</g>
<g style="fill:#000000; fill-opacity:1.0000; stroke:none;">
<circle cx="103.4000" cy="83.2000" r="0.2500" /> 
</g>
<g style="fill:#000000; fill-opacity:1.0000; stroke:none;">
<circle cx="138.5316" cy="89.9160" r="0.3000" /> 
</g>
<g style="fill:#000000; fill-opacity:1.0000; stroke:none;">
<circle cx="111.0000" cy="90.3000" r="0.2500" /> 
</g>
<g style="fill:#000000; fill-opacity:1.0000; stroke:none;">
<circle cx="124.3000" cy="90.4000" r="0.2500" /> 
</g>
<g style="fill:#000000; fill-opacity:1.0000; stroke:none;">
<circle cx="124.3000" cy="88.8000" r="0.2500" /> 
</g>
<g style="fill:#000000; fill-opacity:1.0000; stroke:none;">
<circle cx="114.3000" cy="96.5000" r="0.2500" /> 
</g>
<g style="fill:#000000; fill-opacity:1.0000; stroke:none;">
<circle cx="103.7000" cy="101.2000" r="0.2500" /> 
</g>
<g style="fill:#000000; fill-opacity:1.0000; stroke:none;">
<circle cx="129.7940" cy="91.9480" r="0.2500" /> 
</g>
<g style="fill:#000000; fill-opacity:1.0000; stroke:none;">
<circle cx="106.9340" cy="89.0270" r="0.4500" /> 
</g>
<g style="fill:#000000; fill-opacity:1.0000; stroke:none;">
<circle cx="112.2680" cy="95.5040" r="0.4500" /> 
</g>
<g style="fill:#000000; fill-opacity:1.0000; stroke:none;">
<circle cx="108.7120" cy="95.5040" r="0.4500" /> 
</g>
<g style="fill:#000000; fill-opacity:1.0000; stroke:none;">
<circle cx="129.5400" cy="79.3750" r="0.4500" /> 
</g>
<g style="fill:#000000; fill-opacity:1.0000; stroke:none;">
<circle cx="112.2680" cy="87.6300" r="0.4500" /> 
</g>
<g style="fill:#000000; fill-opacity:1.0000; stroke:none;">
<circle cx="124.5870" cy="91.3130" r="0.2500" /> 
</g>
<g style="fill:#000000; fill-opacity:1.0000; stroke:none;">
<circle cx="127.2160" cy="79.7507" r="0.4500" /> 
</g>
<g style="fill:#000000; fill-opacity:1.0000; stroke:none;">
<circle cx="122.8090" cy="95.1230" r="0.4500" /> 
</g>
<g style="fill:#000000; fill-opacity:1.0000; stroke:none;">
<circle cx="107.1880" cy="91.5670" r="0.4500" /> 
</g>
<g style="fill:#000000; fill-opacity:1.0000; stroke:none;">
<circle cx="114.5000" cy="85.7000" r="0.2500" /> 
</g>
<g style="fill:#000000; fill-opacity:1.0000; stroke:none;">
<circle cx="125.0000" cy="87.5000" r="0.2500" /> 
</g>
<g style="fill:#000000; fill-opacity:1.0000; stroke:none;">
<circle cx="118.1000" cy="83.7000" r="0.2500" /> 
</g>
<g style="fill:#000000; fill-opacity:1.0000; stroke:none;">
<circle cx="125.8000" cy="84.5000" r="0.3000" /> 
</g>
<g style="fill:#000000; fill-opacity:1.0000; stroke:none;">
<circle cx="119.7000" cy="83.5000" r="0.2500" /> 
</g>
<g style="fill:#000000; fill-opacity:1.0000; stroke:none;">
<circle cx="120.3000" cy="89.1000" r="0.2500" /> 
</g>
<g style="fill:#000000; fill-opacity:1.0000; stroke:none;">
<circle cx="122.4280" cy="85.8520" r="0.2500" /> 
</g>
<g style="fill:#000000; fill-opacity:1.0000; stroke:none;">
<circle cx="117.6000" cy="88.8000" r="0.2500" /> 
</g>
<g style="fill:#000000; fill-opacity:1.0000; stroke:none;">
<circle cx="131.7000" cy="84.2000" r="0.2500" /> 
</g>
<g style="fill:#000000; fill-opacity:1.0000; stroke:none;">
<circle cx="135.4000" cy="98.9000" r="0.2500" /> 
</g>
<g style="fill:#000000; fill-opacity:1.0000; stroke:none;">
<circle cx="134.2000" cy="82.9000" r="0.2500" /> 
</g>
<g style="fill:#000000; fill-opacity:1.0000; stroke:none;">
<circle cx="126.6000" cy="84.5000" r="0.2500" /> 
</g>
<g style="fill:#000000; fill-opacity:1.0000; stroke:none;">
<circle cx="106.4000" cy="99.6000" r="0.2500" /> 
</g>
<g style="fill:#000000; fill-opacity:1.0000; stroke:none;">
<circle cx="107.1500" cy="97.9000" r="0.2500" /> 
</g>
<g style="fill:none; 
stroke:#000000; stroke-width:0.2500; stroke-opacity:1; 
stroke-linecap:round; stroke-linejoin:round;">
<path d="M125.2220 91.3130
L124.5870 91.3130
" />
</g>
<g style="fill:none; 
stroke:#000000; stroke-width:0.3500; stroke-opacity:1; 
stroke-linecap:round; stroke-linejoin:round;">
<path d="M122.8090 95.1230
L122.8090 94.1070
" />
<path d="M128.3970 79.3750
L129.5400 79.3750
" />
<path d="M128.0213 79.7507
L128.3970 79.3750
" />
</g>
<g style="fill:none; 
stroke:#000000; stroke-width:0.2500; stroke-opacity:1; 
stroke-linecap:round; stroke-linejoin:round;">
<path d="M129.7940 91.9480
L125.8570 91.9480
" />
</g>
<g style="fill:none; 
stroke:#000000; stroke-width:0.3500; stroke-opacity:1; 
stroke-linecap:round; stroke-linejoin:round;">
<path d="M108.7120 93.0910
L107.1880 91.5670
" />
<path d="M112.2680 95.5040
L108.7120 95.5040
" />
<path d="M108.2040 89.0270
L106.9340 89.0270
" />
</g>
<g style="fill:none; 
stroke:#000000; stroke-width:0.2500; stroke-opacity:1; 
stroke-linecap:round; stroke-linejoin:round;">
<path d="M125.8570 91.9480
L125.2220 91.3130
" />
</g>
<g style="fill:none; 
stroke:#000000; stroke-width:0.3500; stroke-opacity:1; 
stroke-linecap:round; stroke-linejoin:round;">
<path d="M122.8090 94.1070
L124.5870 92.3290
" />
<path d="M112.2680 87.6300
L109.6010 87.6300
" />
<path d="M108.7120 95.5040
L108.7120 93.0910
" />
<path d="M109.6010 87.6300
L108.2040 89.0270
" />
<path d="M124.5870 92.3290
L124.5870 91.3130
" />
<path d="M127.2160 79.7507
L128.0213 79.7507
" />
</g>
<g style="fill:none; 
stroke:#000000; stroke-width:0.2500; stroke-opacity:1; 
stroke-linecap:round; stroke-linejoin:round;">
<path d="M118.1000 83.7000
L121.9000 87.5000
" />
<path d="M121.9000 87.5000
L125.0000 87.5000
" />
<path d="M119.7000 83.5000
L120.7000 84.5000
" />
<path d="M120.7000 84.5000
L125.8000 84.5000
" />
<path d="M135.4000 98.9000
L135.4000 84.1000
" />
<path d="M135.4000 84.1000
L134.2000 82.9000
" />
<path d="M126.9000 84.2000
L126.6000 84.5000
" />
<path d="M131.7000 84.2000
L126.9000 84.2000
" />
<path d="M106.4000 98.6500
L107.1500 97.9000
" />
<path d="M106.4000 99.6000
L106.4000 98.6500
" />
</g> 
</svg>
