<?xml version="1.0" standalone="no"?>
 <!DOCTYPE svg PUBLIC "-//W3C//DTD SVG 1.1//EN" 
 "http://www.w3.org/Graphics/SVG/1.1/DTD/svg11.dtd"> 
<svg
  xmlns:svg="http://www.w3.org/2000/svg"
  xmlns="http://www.w3.org/2000/svg"
  xmlns:xlink="http://www.w3.org/1999/xlink"
  version="1.1"
  width="297.0022mm" height="210.0072mm" viewBox="0.0000 0.0000 297.0022 210.0072">
<title>SVG Image created as MCU_Data_Logger-F_Mask.svg date 2025/03/12 12:30:11 </title>
  <desc>Image generated by PCBNEW </desc>
<g style="fill:#000000; fill-opacity:1.0000;stroke:#000000; stroke-opacity:1.0000;
stroke-linecap:round; stroke-linejoin:round;"
 transform="translate(0 0) scale(1 1)">
<path style="fill:#000000; fill-opacity:1.0000; stroke:none;fill-rule:evenodd;"
d="M 138.1388,97.4716
138.1388,95.7716
139.8388,95.7716
139.8388,97.4716
Z" /> 
</g>
<g style="fill:#000000; fill-opacity:1.0000; stroke:none;">
<circle cx="141.5288" cy="96.6216" r="0.8500" /> 
<circle cx="138.9888" cy="99.1616" r="0.8500" /> 
<circle cx="141.5288" cy="99.1616" r="0.8500" /> 
<circle cx="138.9888" cy="101.7016" r="0.8500" /> 
<circle cx="141.5288" cy="101.7016" r="0.8500" /> 
<path style="fill:#000000; fill-opacity:1.0000; stroke:none;fill-rule:evenodd;"
d="M 106.9500,105.4250
106.8543,105.4060
106.7732,105.3518
106.7190,105.2707
106.7000,105.1750
106.7000,104.6500
106.7190,104.5543
106.7732,104.4732
106.8543,104.4190
106.9500,104.4000
107.8500,104.4000
107.9457,104.4190
108.0268,104.4732
108.0810,104.5543
108.1000,104.6500
108.1000,105.1750
108.0810,105.2707
108.0268,105.3518
107.9457,105.4060
107.8500,105.4250
Z" /> 
<path style="fill:#000000; fill-opacity:1.0000; stroke:none;fill-rule:evenodd;"
d="M 106.9500,103.6000
106.8543,103.5810
106.7732,103.5268
106.7190,103.4457
106.7000,103.3500
106.7000,102.8250
106.7190,102.7293
106.7732,102.6482
106.8543,102.5940
106.9500,102.5750
107.8500,102.5750
107.9457,102.5940
108.0268,102.6482
108.0810,102.7293
108.1000,102.8250
108.1000,103.3500
108.0810,103.4457
108.0268,103.5268
107.9457,103.5810
107.8500,103.6000
Z" /> 
<path style="fill:#000000; fill-opacity:1.0000; stroke:none;fill-rule:evenodd;"
d="M 141.9788,87.3226
142.0745,87.3416
142.1556,87.3958
142.2098,87.4769
142.2288,87.5726
142.2288,88.0976
142.2098,88.1933
142.1556,88.2744
142.0745,88.3286
141.9788,88.3476
141.0788,88.3476
140.9831,88.3286
140.9020,88.2744
140.8478,88.1933
140.8288,88.0976
140.8288,87.5726
140.8478,87.4769
140.9020,87.3958
140.9831,87.3416
141.0788,87.3226
Z" /> 
<path style="fill:#000000; fill-opacity:1.0000; stroke:none;fill-rule:evenodd;"
d="M 141.9788,89.1476
142.0745,89.1666
142.1556,89.2208
142.2098,89.3019
142.2288,89.3976
142.2288,89.9226
142.2098,90.0183
142.1556,90.0994
142.0745,90.1536
141.9788,90.1726
141.0788,90.1726
140.9831,90.1536
140.9020,90.0994
140.8478,90.0183
140.8288,89.9226
140.8288,89.3976
140.8478,89.3019
140.9020,89.2208
140.9831,89.1666
141.0788,89.1476
Z" /> 
<path style="fill:#000000; fill-opacity:1.0000; stroke:none;fill-rule:evenodd;"
d="M 100.6664,101.9368
98.2664,101.9368
98.2664,98.4368
100.6664,98.4368
Z" /> 
<path style="fill:#000000; fill-opacity:1.0000; stroke:none;fill-rule:evenodd;"
d="M 100.6664,96.7368
98.2664,96.7368
98.2664,93.2368
100.6664,93.2368
Z" /> 
<path style="fill:#000000; fill-opacity:1.0000; stroke:none;fill-rule:evenodd;"
d="M 127.4140,100.5100
127.3183,100.4910
127.2372,100.4368
127.1830,100.3557
127.1640,100.2600
127.1640,99.7600
127.1830,99.6643
127.2372,99.5832
127.3183,99.5290
127.4140,99.5100
128.3640,99.5100
128.4597,99.5290
128.5408,99.5832
128.5950,99.6643
128.6140,99.7600
128.6140,100.2600
128.5950,100.3557
128.5408,100.4368
128.4597,100.4910
128.3640,100.5100
Z" /> 
<path style="fill:#000000; fill-opacity:1.0000; stroke:none;fill-rule:evenodd;"
d="M 127.4140,98.6100
127.3183,98.5910
127.2372,98.5368
127.1830,98.4557
127.1640,98.3600
127.1640,97.8600
127.1830,97.7643
127.2372,97.6832
127.3183,97.6290
127.4140,97.6100
128.3640,97.6100
128.4597,97.6290
128.5408,97.6832
128.5950,97.7643
128.6140,97.8600
128.6140,98.3600
128.5950,98.4557
128.5408,98.5368
128.4597,98.5910
128.3640,98.6100
Z" /> 
<path style="fill:#000000; fill-opacity:1.0000; stroke:none;fill-rule:evenodd;"
d="M 104.2000,81.7950
104.2114,81.7376
104.2439,81.6889
104.2926,81.6564
104.3500,81.6450
105.6500,81.6450
105.7074,81.6564
105.7561,81.6889
105.7886,81.7376
105.8000,81.7950
105.8000,82.0950
105.7886,82.1524
105.7561,82.2011
105.7074,82.2336
105.6500,82.2450
104.3500,82.2450
104.2926,82.2336
104.2439,82.2011
104.2114,82.1524
104.2000,82.0950
Z" /> 
<path style="fill:#000000; fill-opacity:1.0000; stroke:none;fill-rule:evenodd;"
d="M 104.2000,83.0650
104.2114,83.0076
104.2439,82.9589
104.2926,82.9264
104.3500,82.9150
105.6500,82.9150
105.7074,82.9264
105.7561,82.9589
105.7886,83.0076
105.8000,83.0650
105.8000,83.3650
105.7886,83.4224
105.7561,83.4711
105.7074,83.5036
105.6500,83.5150
104.3500,83.5150
104.2926,83.5036
104.2439,83.4711
104.2114,83.4224
104.2000,83.3650
Z" /> 
<path style="fill:#000000; fill-opacity:1.0000; stroke:none;fill-rule:evenodd;"
d="M 104.2000,84.3350
104.2114,84.2776
104.2439,84.2289
104.2926,84.1964
104.3500,84.1850
105.6500,84.1850
105.7074,84.1964
105.7561,84.2289
105.7886,84.2776
105.8000,84.3350
105.8000,84.6350
105.7886,84.6924
105.7561,84.7411
105.7074,84.7736
105.6500,84.7850
104.3500,84.7850
104.2926,84.7736
104.2439,84.7411
104.2114,84.6924
104.2000,84.6350
Z" /> 
<path style="fill:#000000; fill-opacity:1.0000; stroke:none;fill-rule:evenodd;"
d="M 104.2000,85.6050
104.2114,85.5476
104.2439,85.4989
104.2926,85.4664
104.3500,85.4550
105.6500,85.4550
105.7074,85.4664
105.7561,85.4989
105.7886,85.5476
105.8000,85.6050
105.8000,85.9050
105.7886,85.9624
105.7561,86.0111
105.7074,86.0436
105.6500,86.0550
104.3500,86.0550
104.2926,86.0436
104.2439,86.0111
104.2114,85.9624
104.2000,85.9050
Z" /> 
<path style="fill:#000000; fill-opacity:1.0000; stroke:none;fill-rule:evenodd;"
d="M 111.4000,85.6050
111.4114,85.5476
111.4439,85.4989
111.4926,85.4664
111.5500,85.4550
112.8500,85.4550
112.9074,85.4664
112.9561,85.4989
112.9886,85.5476
113.0000,85.6050
113.0000,85.9050
112.9886,85.9624
112.9561,86.0111
112.9074,86.0436
112.8500,86.0550
111.5500,86.0550
111.4926,86.0436
111.4439,86.0111
111.4114,85.9624
111.4000,85.9050
Z" /> 
<path style="fill:#000000; fill-opacity:1.0000; stroke:none;fill-rule:evenodd;"
d="M 111.4000,84.3350
111.4114,84.2776
111.4439,84.2289
111.4926,84.1964
111.5500,84.1850
112.8500,84.1850
112.9074,84.1964
112.9561,84.2289
112.9886,84.2776
113.0000,84.3350
113.0000,84.6350
112.9886,84.6924
112.9561,84.7411
112.9074,84.7736
112.8500,84.7850
111.5500,84.7850
111.4926,84.7736
111.4439,84.7411
111.4114,84.6924
111.4000,84.6350
Z" /> 
<path style="fill:#000000; fill-opacity:1.0000; stroke:none;fill-rule:evenodd;"
d="M 111.4000,83.0650
111.4114,83.0076
111.4439,82.9589
111.4926,82.9264
111.5500,82.9150
112.8500,82.9150
112.9074,82.9264
112.9561,82.9589
112.9886,83.0076
113.0000,83.0650
113.0000,83.3650
112.9886,83.4224
112.9561,83.4711
112.9074,83.5036
112.8500,83.5150
111.5500,83.5150
111.4926,83.5036
111.4439,83.4711
111.4114,83.4224
111.4000,83.3650
Z" /> 
<path style="fill:#000000; fill-opacity:1.0000; stroke:none;fill-rule:evenodd;"
d="M 111.4000,81.7950
111.4114,81.7376
111.4439,81.6889
111.4926,81.6564
111.5500,81.6450
112.8500,81.6450
112.9074,81.6564
112.9561,81.6889
112.9886,81.7376
113.0000,81.7950
113.0000,82.0950
112.9886,82.1524
112.9561,82.2011
112.9074,82.2336
112.8500,82.2450
111.5500,82.2450
111.4926,82.2336
111.4439,82.2011
111.4114,82.1524
111.4000,82.0950
Z" /> 
<path style="fill:#000000; fill-opacity:1.0000; stroke:none;fill-rule:evenodd;"
d="M 102.6430,96.3473
102.6506,96.3093
102.6721,96.2771
102.7043,96.2556
102.7422,96.2480
104.7177,96.2480
104.7557,96.2556
104.7879,96.2771
104.8094,96.3093
104.8170,96.3473
104.8170,96.9427
104.8094,96.9807
104.7879,97.0129
104.7557,97.0344
104.7177,97.0420
102.7422,97.0420
102.7043,97.0344
102.6721,97.0129
102.6506,96.9807
102.6430,96.9427
Z" /> 
<path style="fill:#000000; fill-opacity:1.0000; stroke:none;fill-rule:evenodd;"
d="M 102.6430,97.6172
102.6506,97.5793
102.6721,97.5471
102.7043,97.5256
102.7422,97.5180
104.7177,97.5180
104.7557,97.5256
104.7879,97.5471
104.8094,97.5793
104.8170,97.6172
104.8170,98.2127
104.8094,98.2507
104.7879,98.2829
104.7557,98.3044
104.7177,98.3120
102.7422,98.3120
102.7043,98.3044
102.6721,98.2829
102.6506,98.2507
102.6430,98.2127
Z" /> 
<path style="fill:#000000; fill-opacity:1.0000; stroke:none;fill-rule:evenodd;"
d="M 102.6430,98.8872
102.6506,98.8493
102.6721,98.8171
102.7043,98.7956
102.7422,98.7880
104.7177,98.7880
104.7557,98.7956
104.7879,98.8171
104.8094,98.8493
104.8170,98.8872
104.8170,99.4827
104.8094,99.5207
104.7879,99.5529
104.7557,99.5744
104.7177,99.5820
102.7422,99.5820
102.7043,99.5744
102.6721,99.5529
102.6506,99.5207
102.6430,99.4827
Z" /> 
<path style="fill:#000000; fill-opacity:1.0000; stroke:none;fill-rule:evenodd;"
d="M 102.6430,100.1572
102.6506,100.1193
102.6721,100.0871
102.7043,100.0656
102.7422,100.0580
104.7177,100.0580
104.7557,100.0656
104.7879,100.0871
104.8094,100.1193
104.8170,100.1572
104.8170,100.7527
104.8094,100.7907
104.7879,100.8229
104.7557,100.8444
104.7177,100.8520
102.7422,100.8520
102.7043,100.8444
102.6721,100.8229
102.6506,100.7907
102.6430,100.7527
Z" /> 
<path style="fill:#000000; fill-opacity:1.0000; stroke:none;fill-rule:evenodd;"
d="M 107.5930,100.1572
107.6006,100.1193
107.6221,100.0871
107.6543,100.0656
107.6923,100.0580
109.6677,100.0580
109.7057,100.0656
109.7379,100.0871
109.7594,100.1193
109.7670,100.1572
109.7670,100.7527
109.7594,100.7907
109.7379,100.8229
109.7057,100.8444
109.6677,100.8520
107.6923,100.8520
107.6543,100.8444
107.6221,100.8229
107.6006,100.7907
107.5930,100.7527
Z" /> 
<path style="fill:#000000; fill-opacity:1.0000; stroke:none;fill-rule:evenodd;"
d="M 107.5930,98.8872
107.6006,98.8493
107.6221,98.8171
107.6543,98.7956
107.6923,98.7880
109.6677,98.7880
109.7057,98.7956
109.7379,98.8171
109.7594,98.8493
109.7670,98.8872
109.7670,99.4827
109.7594,99.5207
109.7379,99.5529
109.7057,99.5744
109.6677,99.5820
107.6923,99.5820
107.6543,99.5744
107.6221,99.5529
107.6006,99.5207
107.5930,99.4827
Z" /> 
<path style="fill:#000000; fill-opacity:1.0000; stroke:none;fill-rule:evenodd;"
d="M 107.5930,97.6172
107.6006,97.5793
107.6221,97.5471
107.6543,97.5256
107.6923,97.5180
109.6677,97.5180
109.7057,97.5256
109.7379,97.5471
109.7594,97.5793
109.7670,97.6172
109.7670,98.2127
109.7594,98.2507
109.7379,98.2829
109.7057,98.3044
109.6677,98.3120
107.6923,98.3120
107.6543,98.3044
107.6221,98.2829
107.6006,98.2507
107.5930,98.2127
Z" /> 
<path style="fill:#000000; fill-opacity:1.0000; stroke:none;fill-rule:evenodd;"
d="M 107.5930,96.3473
107.6006,96.3093
107.6221,96.2771
107.6543,96.2556
107.6923,96.2480
109.6677,96.2480
109.7057,96.2556
109.7379,96.2771
109.7594,96.3093
109.7670,96.3473
109.7670,96.9427
109.7594,96.9807
109.7379,97.0129
109.7057,97.0344
109.6677,97.0420
107.6923,97.0420
107.6543,97.0344
107.6221,97.0129
107.6006,96.9807
107.5930,96.9427
Z" /> 
<path style="fill:#000000; fill-opacity:1.0000; stroke:none;fill-rule:evenodd;"
d="M 130.1170,80.5750
130.2127,80.5940
130.2938,80.6482
130.3480,80.7293
130.3670,80.8250
130.3670,81.3500
130.3480,81.4457
130.2938,81.5268
130.2127,81.5810
130.1170,81.6000
129.2170,81.6000
129.1213,81.5810
129.0402,81.5268
128.9860,81.4457
128.9670,81.3500
128.9670,80.8250
128.9860,80.7293
129.0402,80.6482
129.1213,80.5940
129.2170,80.5750
Z" /> 
<path style="fill:#000000; fill-opacity:1.0000; stroke:none;fill-rule:evenodd;"
d="M 130.1170,82.4000
130.2127,82.4190
130.2938,82.4732
130.3480,82.5543
130.3670,82.6500
130.3670,83.1750
130.3480,83.2707
130.2938,83.3518
130.2127,83.4060
130.1170,83.4250
129.2170,83.4250
129.1213,83.4060
129.0402,83.3518
128.9860,83.2707
128.9670,83.1750
128.9670,82.6500
128.9860,82.5543
129.0402,82.4732
129.1213,82.4190
129.2170,82.4000
Z" /> 
<circle cx="96.5200" cy="108.5850" r="1.1000" /> 
<path style="fill:#000000; fill-opacity:1.0000; stroke:none;fill-rule:evenodd;"
d="M 104.7060,104.8030
104.6103,104.7840
104.5292,104.7298
104.4750,104.6487
104.4560,104.5530
104.4560,104.0280
104.4750,103.9323
104.5292,103.8512
104.6103,103.7970
104.7060,103.7780
105.6060,103.7780
105.7017,103.7970
105.7828,103.8512
105.8370,103.9323
105.8560,104.0280
105.8560,104.5530
105.8370,104.6487
105.7828,104.7298
105.7017,104.7840
105.6060,104.8030
Z" /> 
<path style="fill:#000000; fill-opacity:1.0000; stroke:none;fill-rule:evenodd;"
d="M 104.7060,102.9780
104.6103,102.9590
104.5292,102.9048
104.4750,102.8237
104.4560,102.7280
104.4560,102.2030
104.4750,102.1073
104.5292,102.0262
104.6103,101.9720
104.7060,101.9530
105.6060,101.9530
105.7017,101.9720
105.7828,102.0262
105.8370,102.1073
105.8560,102.2030
105.8560,102.7280
105.8370,102.8237
105.7828,102.9048
105.7017,102.9590
105.6060,102.9780
Z" /> 
</g>
<g style="fill:#000000; fill-opacity:1.0000; stroke:none;">
<circle cx="144.1450" cy="108.5850" r="1.1000" /> 
<path style="fill:#000000; fill-opacity:1.0000; stroke:none;fill-rule:evenodd;"
d="M 122.9877,98.7855
122.8945,98.7669
122.8154,98.7141
122.7626,98.6350
122.7440,98.5417
122.7440,98.0542
122.7626,97.9610
122.8154,97.8819
122.8945,97.8291
122.9877,97.8105
123.9002,97.8105
123.9935,97.8291
124.0726,97.8819
124.1254,97.9610
124.1440,98.0542
124.1440,98.5417
124.1254,98.6350
124.0726,98.7141
123.9935,98.7669
123.9002,98.7855
Z" /> 
<path style="fill:#000000; fill-opacity:1.0000; stroke:none;fill-rule:evenodd;"
d="M 122.9877,96.9105
122.8945,96.8919
122.8154,96.8391
122.7626,96.7600
122.7440,96.6667
122.7440,96.1792
122.7626,96.0860
122.8154,96.0069
122.8945,95.9541
122.9877,95.9355
123.9002,95.9355
123.9935,95.9541
124.0726,96.0069
124.1254,96.0860
124.1440,96.1792
124.1440,96.6667
124.1254,96.7600
124.0726,96.8391
123.9935,96.8919
123.9002,96.9105
Z" /> 
<path style="fill:#000000; fill-opacity:1.0000; stroke:none;fill-rule:evenodd;"
d="M 123.8940,99.8175
123.9897,99.8365
124.0708,99.8907
124.1250,99.9718
124.1440,100.0675
124.1440,100.5925
124.1250,100.6882
124.0708,100.7693
123.9897,100.8235
123.8940,100.8425
122.9940,100.8425
122.8983,100.8235
122.8172,100.7693
122.7630,100.6882
122.7440,100.5925
122.7440,100.0675
122.7630,99.9718
122.8172,99.8907
122.8983,99.8365
122.9940,99.8175
Z" /> 
<path style="fill:#000000; fill-opacity:1.0000; stroke:none;fill-rule:evenodd;"
d="M 123.8940,101.6425
123.9897,101.6615
124.0708,101.7157
124.1250,101.7968
124.1440,101.8925
124.1440,102.4175
124.1250,102.5132
124.0708,102.5943
123.9897,102.6485
123.8940,102.6675
122.9940,102.6675
122.8983,102.6485
122.8172,102.5943
122.7630,102.5132
122.7440,102.4175
122.7440,101.8925
122.7630,101.7968
122.8172,101.7157
122.8983,101.6615
122.9940,101.6425
Z" /> 
</g>
<g style="fill:#000000; fill-opacity:1.0000; stroke:none;">
<circle cx="96.5200" cy="73.6600" r="1.1000" /> 
<path style="fill:#000000; fill-opacity:1.0000; stroke:none;fill-rule:evenodd;"
d="M 115.0750,92.8900
114.9793,92.8710
114.8982,92.8168
114.8440,92.7357
114.8250,92.6400
114.8250,92.1400
114.8440,92.0443
114.8982,91.9632
114.9793,91.9090
115.0750,91.8900
116.0250,91.8900
116.1207,91.9090
116.2018,91.9632
116.2560,92.0443
116.2750,92.1400
116.2750,92.6400
116.2560,92.7357
116.2018,92.8168
116.1207,92.8710
116.0250,92.8900
Z" /> 
<path style="fill:#000000; fill-opacity:1.0000; stroke:none;fill-rule:evenodd;"
d="M 115.0750,90.9900
114.9793,90.9710
114.8982,90.9168
114.8440,90.8357
114.8250,90.7400
114.8250,90.2400
114.8440,90.1443
114.8982,90.0632
114.9793,90.0090
115.0750,89.9900
116.0250,89.9900
116.1207,90.0090
116.2018,90.0632
116.2560,90.1443
116.2750,90.2400
116.2750,90.7400
116.2560,90.8357
116.2018,90.9168
116.1207,90.9710
116.0250,90.9900
Z" /> 
<path style="fill:#000000; fill-opacity:1.0000; stroke:none;fill-rule:evenodd;"
d="M 119.2820,75.0960
120.9820,75.0960
120.9820,76.7960
119.2820,76.7960
Z" /> 
</g>
<g style="fill:#000000; fill-opacity:1.0000; stroke:none;">
<circle cx="117.5920" cy="75.9460" r="0.8500" /> 
<circle cx="115.0520" cy="75.9460" r="0.8500" /> 
<circle cx="112.5120" cy="75.9460" r="0.8500" /> 
<path style="fill:#000000; fill-opacity:1.0000; stroke:none;fill-rule:evenodd;"
d="M 116.0250,96.0000
116.1207,96.0190
116.2018,96.0732
116.2560,96.1543
116.2750,96.2500
116.2750,96.7500
116.2560,96.8457
116.2018,96.9268
116.1207,96.9810
116.0250,97.0000
115.0750,97.0000
114.9793,96.9810
114.8982,96.9268
114.8440,96.8457
114.8250,96.7500
114.8250,96.2500
114.8440,96.1543
114.8982,96.0732
114.9793,96.0190
115.0750,96.0000
Z" /> 
<path style="fill:#000000; fill-opacity:1.0000; stroke:none;fill-rule:evenodd;"
d="M 116.0250,97.9000
116.1207,97.9190
116.2018,97.9732
116.2560,98.0543
116.2750,98.1500
116.2750,98.6500
116.2560,98.7457
116.2018,98.8268
116.1207,98.8810
116.0250,98.9000
115.0750,98.9000
114.9793,98.8810
114.8982,98.8268
114.8440,98.7457
114.8250,98.6500
114.8250,98.1500
114.8440,98.0543
114.8982,97.9732
114.9793,97.9190
115.0750,97.9000
Z" /> 
<path style="fill:#000000; fill-opacity:1.0000; stroke:none;fill-rule:evenodd;"
d="M 116.0300,106.8950
114.3300,106.8950
114.3300,105.1950
116.0300,105.1950
Z" /> 
<circle cx="117.7200" cy="106.0450" r="0.8500" /> 
<circle cx="120.2600" cy="106.0450" r="0.8500" /> 
<circle cx="122.8000" cy="106.0450" r="0.8500" /> 
<circle cx="125.3400" cy="106.0450" r="0.8500" /> 
<circle cx="127.8800" cy="106.0450" r="0.8500" /> 
<circle cx="130.4200" cy="106.0450" r="0.8500" /> 
<circle cx="132.9600" cy="106.0450" r="0.8500" /> 
<circle cx="135.5000" cy="106.0450" r="0.8500" /> 
<path style="fill:#000000; fill-opacity:1.0000; stroke:none;fill-rule:evenodd;"
d="M 104.2580,88.8770
104.2694,88.8196
104.3019,88.7709
104.3506,88.7384
104.4080,88.7270
105.7080,88.7270
105.7654,88.7384
105.8141,88.7709
105.8466,88.8196
105.8580,88.8770
105.8580,89.1770
105.8466,89.2344
105.8141,89.2831
105.7654,89.3156
105.7080,89.3270
104.4080,89.3270
104.3506,89.3156
104.3019,89.2831
104.2694,89.2344
104.2580,89.1770
Z" /> 
<path style="fill:#000000; fill-opacity:1.0000; stroke:none;fill-rule:evenodd;"
d="M 104.2580,90.1470
104.2694,90.0896
104.3019,90.0409
104.3506,90.0084
104.4080,89.9970
105.7080,89.9970
105.7654,90.0084
105.8141,90.0409
105.8466,90.0896
105.8580,90.1470
105.8580,90.4470
105.8466,90.5044
105.8141,90.5531
105.7654,90.5856
105.7080,90.5970
104.4080,90.5970
104.3506,90.5856
104.3019,90.5531
104.2694,90.5044
104.2580,90.4470
Z" /> 
<path style="fill:#000000; fill-opacity:1.0000; stroke:none;fill-rule:evenodd;"
d="M 104.2580,91.4170
104.2694,91.3596
104.3019,91.3109
104.3506,91.2784
104.4080,91.2670
105.7080,91.2670
105.7654,91.2784
105.8141,91.3109
105.8466,91.3596
105.8580,91.4170
105.8580,91.7170
105.8466,91.7744
105.8141,91.8231
105.7654,91.8556
105.7080,91.8670
104.4080,91.8670
104.3506,91.8556
104.3019,91.8231
104.2694,91.7744
104.2580,91.7170
Z" /> 
<path style="fill:#000000; fill-opacity:1.0000; stroke:none;fill-rule:evenodd;"
d="M 104.2580,92.6870
104.2694,92.6296
104.3019,92.5809
104.3506,92.5484
104.4080,92.5370
105.7080,92.5370
105.7654,92.5484
105.8141,92.5809
105.8466,92.6296
105.8580,92.6870
105.8580,92.9870
105.8466,93.0444
105.8141,93.0931
105.7654,93.1256
105.7080,93.1370
104.4080,93.1370
104.3506,93.1256
104.3019,93.0931
104.2694,93.0444
104.2580,92.9870
Z" /> 
<path style="fill:#000000; fill-opacity:1.0000; stroke:none;fill-rule:evenodd;"
d="M 111.4580,92.6870
111.4694,92.6296
111.5019,92.5809
111.5506,92.5484
111.6080,92.5370
112.9080,92.5370
112.9654,92.5484
113.0141,92.5809
113.0466,92.6296
113.0580,92.6870
113.0580,92.9870
113.0466,93.0444
113.0141,93.0931
112.9654,93.1256
112.9080,93.1370
111.6080,93.1370
111.5506,93.1256
111.5019,93.0931
111.4694,93.0444
111.4580,92.9870
Z" /> 
<path style="fill:#000000; fill-opacity:1.0000; stroke:none;fill-rule:evenodd;"
d="M 111.4580,91.4170
111.4694,91.3596
111.5019,91.3109
111.5506,91.2784
111.6080,91.2670
112.9080,91.2670
112.9654,91.2784
113.0141,91.3109
113.0466,91.3596
113.0580,91.4170
113.0580,91.7170
113.0466,91.7744
113.0141,91.8231
112.9654,91.8556
112.9080,91.8670
111.6080,91.8670
111.5506,91.8556
111.5019,91.8231
111.4694,91.7744
111.4580,91.7170
Z" /> 
<path style="fill:#000000; fill-opacity:1.0000; stroke:none;fill-rule:evenodd;"
d="M 111.4580,90.1470
111.4694,90.0896
111.5019,90.0409
111.5506,90.0084
111.6080,89.9970
112.9080,89.9970
112.9654,90.0084
113.0141,90.0409
113.0466,90.0896
113.0580,90.1470
113.0580,90.4470
113.0466,90.5044
113.0141,90.5531
112.9654,90.5856
112.9080,90.5970
111.6080,90.5970
111.5506,90.5856
111.5019,90.5531
111.4694,90.5044
111.4580,90.4470
Z" /> 
<path style="fill:#000000; fill-opacity:1.0000; stroke:none;fill-rule:evenodd;"
d="M 111.4580,88.8770
111.4694,88.8196
111.5019,88.7709
111.5506,88.7384
111.6080,88.7270
112.9080,88.7270
112.9654,88.7384
113.0141,88.7709
113.0466,88.8196
113.0580,88.8770
113.0580,89.1770
113.0466,89.2344
113.0141,89.2831
112.9654,89.3156
112.9080,89.3270
111.6080,89.3270
111.5506,89.3156
111.5019,89.2831
111.4694,89.2344
111.4580,89.1770
Z" /> 
<path style="fill:#000000; fill-opacity:1.0000; stroke:none;fill-rule:evenodd;"
d="M 140.2724,81.2664
140.2724,79.5664
141.9724,79.5664
141.9724,81.2664
Z" /> 
<circle cx="141.1224" cy="82.9564" r="0.8500" /> 
<path style="fill:#000000; fill-opacity:1.0000; stroke:none;fill-rule:evenodd;"
d="M 127.0000,80.5750
127.0957,80.5940
127.1768,80.6482
127.2310,80.7293
127.2500,80.8250
127.2500,81.3500
127.2310,81.4457
127.1768,81.5268
127.0957,81.5810
127.0000,81.6000
126.1000,81.6000
126.0043,81.5810
125.9232,81.5268
125.8690,81.4457
125.8500,81.3500
125.8500,80.8250
125.8690,80.7293
125.9232,80.6482
126.0043,80.5940
126.1000,80.5750
Z" /> 
<path style="fill:#000000; fill-opacity:1.0000; stroke:none;fill-rule:evenodd;"
d="M 127.0000,82.4000
127.0957,82.4190
127.1768,82.4732
127.2310,82.5543
127.2500,82.6500
127.2500,83.1750
127.2310,83.2707
127.1768,83.3518
127.0957,83.4060
127.0000,83.4250
126.1000,83.4250
126.0043,83.4060
125.9232,83.3518
125.8690,83.2707
125.8500,83.1750
125.8500,82.6500
125.8690,82.5543
125.9232,82.4732
126.0043,82.4190
126.1000,82.4000
Z" /> 
<path style="fill:#000000; fill-opacity:1.0000; stroke:none;fill-rule:evenodd;"
d="M 112.7250,96.1500
112.8207,96.1690
112.9018,96.2232
112.9560,96.3043
112.9750,96.4000
112.9750,96.9000
112.9560,96.9957
112.9018,97.0768
112.8207,97.1310
112.7250,97.1500
111.7750,97.1500
111.6793,97.1310
111.5982,97.0768
111.5440,96.9957
111.5250,96.9000
111.5250,96.4000
111.5440,96.3043
111.5982,96.2232
111.6793,96.1690
111.7750,96.1500
Z" /> 
<path style="fill:#000000; fill-opacity:1.0000; stroke:none;fill-rule:evenodd;"
d="M 112.7250,98.0500
112.8207,98.0690
112.9018,98.1232
112.9560,98.2043
112.9750,98.3000
112.9750,98.8000
112.9560,98.8957
112.9018,98.9768
112.8207,99.0310
112.7250,99.0500
111.7750,99.0500
111.6793,99.0310
111.5982,98.9768
111.5440,98.8957
111.5250,98.8000
111.5250,98.3000
111.5440,98.2043
111.5982,98.1232
111.6793,98.0690
111.7750,98.0500
Z" /> 
<circle cx="144.1450" cy="73.6600" r="1.1000" /> 
<path style="fill:#000000; fill-opacity:1.0000; stroke:none;fill-rule:evenodd;"
d="M 121.9930,86.9172
122.0002,86.8812
122.0206,86.8506
122.0512,86.8302
122.0872,86.8230
123.5727,86.8230
123.6088,86.8302
123.6394,86.8506
123.6598,86.8812
123.6670,86.9172
123.6670,87.4827
123.6598,87.5188
123.6394,87.5494
123.6088,87.5698
123.5727,87.5770
122.0872,87.5770
122.0512,87.5698
122.0206,87.5494
122.0002,87.5188
121.9930,87.4827
Z" /> 
<path style="fill:#000000; fill-opacity:1.0000; stroke:none;fill-rule:evenodd;"
d="M 121.9930,87.7172
122.0002,87.6812
122.0206,87.6506
122.0512,87.6302
122.0872,87.6230
123.5727,87.6230
123.6088,87.6302
123.6394,87.6506
123.6598,87.6812
123.6670,87.7172
123.6670,88.2827
123.6598,88.3188
123.6394,88.3494
123.6088,88.3698
123.5727,88.3770
122.0872,88.3770
122.0512,88.3698
122.0206,88.3494
122.0002,88.3188
121.9930,88.2827
Z" /> 
<path style="fill:#000000; fill-opacity:1.0000; stroke:none;fill-rule:evenodd;"
d="M 121.9930,88.5172
122.0002,88.4812
122.0206,88.4506
122.0512,88.4302
122.0872,88.4230
123.5727,88.4230
123.6088,88.4302
123.6394,88.4506
123.6598,88.4812
123.6670,88.5172
123.6670,89.0827
123.6598,89.1188
123.6394,89.1494
123.6088,89.1698
123.5727,89.1770
122.0872,89.1770
122.0512,89.1698
122.0206,89.1494
122.0002,89.1188
121.9930,89.0827
Z" /> 
<path style="fill:#000000; fill-opacity:1.0000; stroke:none;fill-rule:evenodd;"
d="M 121.9930,89.3173
122.0002,89.2812
122.0206,89.2506
122.0512,89.2302
122.0872,89.2230
123.5727,89.2230
123.6088,89.2302
123.6394,89.2506
123.6598,89.2812
123.6670,89.3173
123.6670,89.8828
123.6598,89.9188
123.6394,89.9494
123.6088,89.9698
123.5727,89.9770
122.0872,89.9770
122.0512,89.9698
122.0206,89.9494
122.0002,89.9188
121.9930,89.8828
Z" /> 
<path style="fill:#000000; fill-opacity:1.0000; stroke:none;fill-rule:evenodd;"
d="M 121.9930,90.1172
122.0002,90.0812
122.0206,90.0506
122.0512,90.0302
122.0872,90.0230
123.5727,90.0230
123.6088,90.0302
123.6394,90.0506
123.6598,90.0812
123.6670,90.1172
123.6670,90.6827
123.6598,90.7188
123.6394,90.7494
123.6088,90.7698
123.5727,90.7770
122.0872,90.7770
122.0512,90.7698
122.0206,90.7494
122.0002,90.7188
121.9930,90.6827
Z" /> 
<path style="fill:#000000; fill-opacity:1.0000; stroke:none;fill-rule:evenodd;"
d="M 121.9930,90.9172
122.0002,90.8812
122.0206,90.8506
122.0512,90.8302
122.0872,90.8230
123.5727,90.8230
123.6088,90.8302
123.6394,90.8506
123.6598,90.8812
123.6670,90.9172
123.6670,91.4827
123.6598,91.5188
123.6394,91.5494
123.6088,91.5698
123.5727,91.5770
122.0872,91.5770
122.0512,91.5698
122.0206,91.5494
122.0002,91.5188
121.9930,91.4827
Z" /> 
<path style="fill:#000000; fill-opacity:1.0000; stroke:none;fill-rule:evenodd;"
d="M 121.9930,91.7172
122.0002,91.6812
122.0206,91.6506
122.0512,91.6302
122.0872,91.6230
123.5727,91.6230
123.6088,91.6302
123.6394,91.6506
123.6598,91.6812
123.6670,91.7172
123.6670,92.2827
123.6598,92.3188
123.6394,92.3494
123.6088,92.3698
123.5727,92.3770
122.0872,92.3770
122.0512,92.3698
122.0206,92.3494
122.0002,92.3188
121.9930,92.2827
Z" /> 
<path style="fill:#000000; fill-opacity:1.0000; stroke:none;fill-rule:evenodd;"
d="M 121.9930,92.5172
122.0002,92.4812
122.0206,92.4506
122.0512,92.4302
122.0872,92.4230
123.5727,92.4230
123.6088,92.4302
123.6394,92.4506
123.6598,92.4812
123.6670,92.5172
123.6670,93.0827
123.6598,93.1188
123.6394,93.1494
123.6088,93.1698
123.5727,93.1770
122.0872,93.1770
122.0512,93.1698
122.0206,93.1494
122.0002,93.1188
121.9930,93.0827
Z" /> 
<path style="fill:#000000; fill-opacity:1.0000; stroke:none;fill-rule:evenodd;"
d="M 123.8230,93.4273
123.8302,93.3912
123.8506,93.3606
123.8812,93.3402
123.9172,93.3330
124.4827,93.3330
124.5188,93.3402
124.5494,93.3606
124.5698,93.3912
124.5770,93.4273
124.5770,94.9128
124.5698,94.9488
124.5494,94.9794
124.5188,94.9998
124.4827,95.0070
123.9172,95.0070
123.8812,94.9998
123.8506,94.9794
123.8302,94.9488
123.8230,94.9128
Z" /> 
<path style="fill:#000000; fill-opacity:1.0000; stroke:none;fill-rule:evenodd;"
d="M 124.6230,93.4273
124.6302,93.3912
124.6506,93.3606
124.6812,93.3402
124.7172,93.3330
125.2827,93.3330
125.3188,93.3402
125.3494,93.3606
125.3698,93.3912
125.3770,93.4273
125.3770,94.9128
125.3698,94.9488
125.3494,94.9794
125.3188,94.9998
125.2827,95.0070
124.7172,95.0070
124.6812,94.9998
124.6506,94.9794
124.6302,94.9488
124.6230,94.9128
Z" /> 
<path style="fill:#000000; fill-opacity:1.0000; stroke:none;fill-rule:evenodd;"
d="M 125.4230,93.4273
125.4302,93.3912
125.4506,93.3606
125.4812,93.3402
125.5172,93.3330
126.0827,93.3330
126.1188,93.3402
126.1494,93.3606
126.1698,93.3912
126.1770,93.4273
126.1770,94.9128
126.1698,94.9488
126.1494,94.9794
126.1188,94.9998
126.0827,95.0070
125.5172,95.0070
125.4812,94.9998
125.4506,94.9794
125.4302,94.9488
125.4230,94.9128
Z" /> 
<path style="fill:#000000; fill-opacity:1.0000; stroke:none;fill-rule:evenodd;"
d="M 126.2230,93.4273
126.2302,93.3912
126.2506,93.3606
126.2812,93.3402
126.3173,93.3330
126.8827,93.3330
126.9188,93.3402
126.9494,93.3606
126.9698,93.3912
126.9770,93.4273
126.9770,94.9128
126.9698,94.9488
126.9494,94.9794
126.9188,94.9998
126.8827,95.0070
126.3173,95.0070
126.2812,94.9998
126.2506,94.9794
126.2302,94.9488
126.2230,94.9128
Z" /> 
<path style="fill:#000000; fill-opacity:1.0000; stroke:none;fill-rule:evenodd;"
d="M 127.0230,93.4273
127.0302,93.3912
127.0506,93.3606
127.0812,93.3402
127.1172,93.3330
127.6827,93.3330
127.7188,93.3402
127.7494,93.3606
127.7698,93.3912
127.7770,93.4273
127.7770,94.9128
127.7698,94.9488
127.7494,94.9794
127.7188,94.9998
127.6827,95.0070
127.1172,95.0070
127.0812,94.9998
127.0506,94.9794
127.0302,94.9488
127.0230,94.9128
Z" /> 
<path style="fill:#000000; fill-opacity:1.0000; stroke:none;fill-rule:evenodd;"
d="M 127.8230,93.4273
127.8302,93.3912
127.8506,93.3606
127.8812,93.3402
127.9172,93.3330
128.4827,93.3330
128.5188,93.3402
128.5494,93.3606
128.5698,93.3912
128.5770,93.4273
128.5770,94.9128
128.5698,94.9488
128.5494,94.9794
128.5188,94.9998
128.4827,95.0070
127.9172,95.0070
127.8812,94.9998
127.8506,94.9794
127.8302,94.9488
127.8230,94.9128
Z" /> 
<path style="fill:#000000; fill-opacity:1.0000; stroke:none;fill-rule:evenodd;"
d="M 128.6230,93.4273
128.6302,93.3912
128.6506,93.3606
128.6812,93.3402
128.7173,93.3330
129.2827,93.3330
129.3188,93.3402
129.3494,93.3606
129.3698,93.3912
129.3770,93.4273
129.3770,94.9128
129.3698,94.9488
129.3494,94.9794
129.3188,94.9998
129.2827,95.0070
128.7173,95.0070
128.6812,94.9998
128.6506,94.9794
128.6302,94.9488
128.6230,94.9128
Z" /> 
<path style="fill:#000000; fill-opacity:1.0000; stroke:none;fill-rule:evenodd;"
d="M 129.4230,93.4273
129.4302,93.3912
129.4506,93.3606
129.4812,93.3402
129.5172,93.3330
130.0828,93.3330
130.1188,93.3402
130.1494,93.3606
130.1698,93.3912
130.1770,93.4273
130.1770,94.9128
130.1698,94.9488
130.1494,94.9794
130.1188,94.9998
130.0828,95.0070
129.5172,95.0070
129.4812,94.9998
129.4506,94.9794
129.4302,94.9488
129.4230,94.9128
Z" /> 
<path style="fill:#000000; fill-opacity:1.0000; stroke:none;fill-rule:evenodd;"
d="M 130.3330,92.5172
130.3402,92.4812
130.3606,92.4506
130.3912,92.4302
130.4272,92.4230
131.9127,92.4230
131.9488,92.4302
131.9794,92.4506
131.9998,92.4812
132.0070,92.5172
132.0070,93.0827
131.9998,93.1188
131.9794,93.1494
131.9488,93.1698
131.9127,93.1770
130.4272,93.1770
130.3912,93.1698
130.3606,93.1494
130.3402,93.1188
130.3330,93.0827
Z" /> 
<path style="fill:#000000; fill-opacity:1.0000; stroke:none;fill-rule:evenodd;"
d="M 130.3330,91.7172
130.3402,91.6812
130.3606,91.6506
130.3912,91.6302
130.4272,91.6230
131.9127,91.6230
131.9488,91.6302
131.9794,91.6506
131.9998,91.6812
132.0070,91.7172
132.0070,92.2827
131.9998,92.3188
131.9794,92.3494
131.9488,92.3698
131.9127,92.3770
130.4272,92.3770
130.3912,92.3698
130.3606,92.3494
130.3402,92.3188
130.3330,92.2827
Z" /> 
<path style="fill:#000000; fill-opacity:1.0000; stroke:none;fill-rule:evenodd;"
d="M 130.3330,90.9172
130.3402,90.8812
130.3606,90.8506
130.3912,90.8302
130.4272,90.8230
131.9127,90.8230
131.9488,90.8302
131.9794,90.8506
131.9998,90.8812
132.0070,90.9172
132.0070,91.4827
131.9998,91.5188
131.9794,91.5494
131.9488,91.5698
131.9127,91.5770
130.4272,91.5770
130.3912,91.5698
130.3606,91.5494
130.3402,91.5188
130.3330,91.4827
Z" /> 
<path style="fill:#000000; fill-opacity:1.0000; stroke:none;fill-rule:evenodd;"
d="M 130.3330,90.1172
130.3402,90.0812
130.3606,90.0506
130.3912,90.0302
130.4272,90.0230
131.9127,90.0230
131.9488,90.0302
131.9794,90.0506
131.9998,90.0812
132.0070,90.1172
132.0070,90.6827
131.9998,90.7188
131.9794,90.7494
131.9488,90.7698
131.9127,90.7770
130.4272,90.7770
130.3912,90.7698
130.3606,90.7494
130.3402,90.7188
130.3330,90.6827
Z" /> 
<path style="fill:#000000; fill-opacity:1.0000; stroke:none;fill-rule:evenodd;"
d="M 130.3330,89.3173
130.3402,89.2812
130.3606,89.2506
130.3912,89.2302
130.4272,89.2230
131.9127,89.2230
131.9488,89.2302
131.9794,89.2506
131.9998,89.2812
132.0070,89.3173
132.0070,89.8828
131.9998,89.9188
131.9794,89.9494
131.9488,89.9698
131.9127,89.9770
130.4272,89.9770
130.3912,89.9698
130.3606,89.9494
130.3402,89.9188
130.3330,89.8828
Z" /> 
<path style="fill:#000000; fill-opacity:1.0000; stroke:none;fill-rule:evenodd;"
d="M 130.3330,88.5172
130.3402,88.4812
130.3606,88.4506
130.3912,88.4302
130.4272,88.4230
131.9127,88.4230
131.9488,88.4302
131.9794,88.4506
131.9998,88.4812
132.0070,88.5172
132.0070,89.0827
131.9998,89.1188
131.9794,89.1494
131.9488,89.1698
131.9127,89.1770
130.4272,89.1770
130.3912,89.1698
130.3606,89.1494
130.3402,89.1188
130.3330,89.0827
Z" /> 
<path style="fill:#000000; fill-opacity:1.0000; stroke:none;fill-rule:evenodd;"
d="M 130.3330,87.7172
130.3402,87.6812
130.3606,87.6506
130.3912,87.6302
130.4272,87.6230
131.9127,87.6230
131.9488,87.6302
131.9794,87.6506
131.9998,87.6812
132.0070,87.7172
132.0070,88.2827
131.9998,88.3188
131.9794,88.3494
131.9488,88.3698
131.9127,88.3770
130.4272,88.3770
130.3912,88.3698
130.3606,88.3494
130.3402,88.3188
130.3330,88.2827
Z" /> 
<path style="fill:#000000; fill-opacity:1.0000; stroke:none;fill-rule:evenodd;"
d="M 130.3330,86.9172
130.3402,86.8812
130.3606,86.8506
130.3912,86.8302
130.4272,86.8230
131.9127,86.8230
131.9488,86.8302
131.9794,86.8506
131.9998,86.8812
132.0070,86.9172
132.0070,87.4827
131.9998,87.5188
131.9794,87.5494
131.9488,87.5698
131.9127,87.5770
130.4272,87.5770
130.3912,87.5698
130.3606,87.5494
130.3402,87.5188
130.3330,87.4827
Z" /> 
<path style="fill:#000000; fill-opacity:1.0000; stroke:none;fill-rule:evenodd;"
d="M 129.4230,85.0872
129.4302,85.0512
129.4506,85.0206
129.4812,85.0002
129.5172,84.9930
130.0828,84.9930
130.1188,85.0002
130.1494,85.0206
130.1698,85.0512
130.1770,85.0872
130.1770,86.5727
130.1698,86.6088
130.1494,86.6394
130.1188,86.6598
130.0828,86.6670
129.5172,86.6670
129.4812,86.6598
129.4506,86.6394
129.4302,86.6088
129.4230,86.5727
Z" /> 
<path style="fill:#000000; fill-opacity:1.0000; stroke:none;fill-rule:evenodd;"
d="M 128.6230,85.0872
128.6302,85.0512
128.6506,85.0206
128.6812,85.0002
128.7173,84.9930
129.2827,84.9930
129.3188,85.0002
129.3494,85.0206
129.3698,85.0512
129.3770,85.0872
129.3770,86.5727
129.3698,86.6088
129.3494,86.6394
129.3188,86.6598
129.2827,86.6670
128.7173,86.6670
128.6812,86.6598
128.6506,86.6394
128.6302,86.6088
128.6230,86.5727
Z" /> 
<path style="fill:#000000; fill-opacity:1.0000; stroke:none;fill-rule:evenodd;"
d="M 127.8230,85.0872
127.8302,85.0512
127.8506,85.0206
127.8812,85.0002
127.9172,84.9930
128.4827,84.9930
128.5188,85.0002
128.5494,85.0206
128.5698,85.0512
128.5770,85.0872
128.5770,86.5727
128.5698,86.6088
128.5494,86.6394
128.5188,86.6598
128.4827,86.6670
127.9172,86.6670
127.8812,86.6598
127.8506,86.6394
127.8302,86.6088
127.8230,86.5727
Z" /> 
<path style="fill:#000000; fill-opacity:1.0000; stroke:none;fill-rule:evenodd;"
d="M 127.0230,85.0872
127.0302,85.0512
127.0506,85.0206
127.0812,85.0002
127.1172,84.9930
127.6827,84.9930
127.7188,85.0002
127.7494,85.0206
127.7698,85.0512
127.7770,85.0872
127.7770,86.5727
127.7698,86.6088
127.7494,86.6394
127.7188,86.6598
127.6827,86.6670
127.1172,86.6670
127.0812,86.6598
127.0506,86.6394
127.0302,86.6088
127.0230,86.5727
Z" /> 
<path style="fill:#000000; fill-opacity:1.0000; stroke:none;fill-rule:evenodd;"
d="M 126.2230,85.0872
126.2302,85.0512
126.2506,85.0206
126.2812,85.0002
126.3173,84.9930
126.8827,84.9930
126.9188,85.0002
126.9494,85.0206
126.9698,85.0512
126.9770,85.0872
126.9770,86.5727
126.9698,86.6088
126.9494,86.6394
126.9188,86.6598
126.8827,86.6670
126.3173,86.6670
126.2812,86.6598
126.2506,86.6394
126.2302,86.6088
126.2230,86.5727
Z" /> 
<path style="fill:#000000; fill-opacity:1.0000; stroke:none;fill-rule:evenodd;"
d="M 125.4230,85.0872
125.4302,85.0512
125.4506,85.0206
125.4812,85.0002
125.5172,84.9930
126.0827,84.9930
126.1188,85.0002
126.1494,85.0206
126.1698,85.0512
126.1770,85.0872
126.1770,86.5727
126.1698,86.6088
126.1494,86.6394
126.1188,86.6598
126.0827,86.6670
125.5172,86.6670
125.4812,86.6598
125.4506,86.6394
125.4302,86.6088
125.4230,86.5727
Z" /> 
<path style="fill:#000000; fill-opacity:1.0000; stroke:none;fill-rule:evenodd;"
d="M 124.6230,85.0872
124.6302,85.0512
124.6506,85.0206
124.6812,85.0002
124.7172,84.9930
125.2827,84.9930
125.3188,85.0002
125.3494,85.0206
125.3698,85.0512
125.3770,85.0872
125.3770,86.5727
125.3698,86.6088
125.3494,86.6394
125.3188,86.6598
125.2827,86.6670
124.7172,86.6670
124.6812,86.6598
124.6506,86.6394
124.6302,86.6088
124.6230,86.5727
Z" /> 
<path style="fill:#000000; fill-opacity:1.0000; stroke:none;fill-rule:evenodd;"
d="M 123.8230,85.0872
123.8302,85.0512
123.8506,85.0206
123.8812,85.0002
123.9172,84.9930
124.4827,84.9930
124.5188,85.0002
124.5494,85.0206
124.5698,85.0512
124.5770,85.0872
124.5770,86.5727
124.5698,86.6088
124.5494,86.6394
124.5188,86.6598
124.4827,86.6670
123.9172,86.6670
123.8812,86.6598
123.8506,86.6394
123.8302,86.6088
123.8230,86.5727
Z" /> 
<path style="fill:#000000; fill-opacity:1.0000; stroke:none;fill-rule:evenodd;"
d="M 141.9851,91.1834
142.0783,91.2020
142.1574,91.2548
142.2102,91.3339
142.2288,91.4271
142.2288,91.9146
142.2102,92.0079
142.1574,92.0870
142.0783,92.1398
141.9851,92.1584
141.0726,92.1584
140.9793,92.1398
140.9002,92.0870
140.8474,92.0079
140.8288,91.9146
140.8288,91.4271
140.8474,91.3339
140.9002,91.2548
140.9793,91.2020
141.0726,91.1834
Z" /> 
<path style="fill:#000000; fill-opacity:1.0000; stroke:none;fill-rule:evenodd;"
d="M 141.9851,93.0584
142.0783,93.0770
142.1574,93.1298
142.2102,93.2089
142.2288,93.3021
142.2288,93.7896
142.2102,93.8829
142.1574,93.9620
142.0783,94.0148
141.9851,94.0334
141.0726,94.0334
140.9793,94.0148
140.9002,93.9620
140.8474,93.8829
140.8288,93.7896
140.8288,93.3021
140.8474,93.2089
140.9002,93.1298
140.9793,93.0770
141.0726,93.0584
Z" /> 
<path style="fill:#000000; fill-opacity:1.0000; stroke:none;fill-rule:evenodd;"
d="M 132.6570,80.5750
132.7527,80.5940
132.8338,80.6482
132.8880,80.7293
132.9070,80.8250
132.9070,81.3500
132.8880,81.4457
132.8338,81.5268
132.7527,81.5810
132.6570,81.6000
131.7570,81.6000
131.6613,81.5810
131.5802,81.5268
131.5260,81.4457
131.5070,81.3500
131.5070,80.8250
131.5260,80.7293
131.5802,80.6482
131.6613,80.5940
131.7570,80.5750
Z" /> 
<path style="fill:#000000; fill-opacity:1.0000; stroke:none;fill-rule:evenodd;"
d="M 132.6570,82.4000
132.7527,82.4190
132.8338,82.4732
132.8880,82.5543
132.9070,82.6500
132.9070,83.1750
132.8880,83.2707
132.8338,83.3518
132.7527,83.4060
132.6570,83.4250
131.7570,83.4250
131.6613,83.4060
131.5802,83.3518
131.5260,83.2707
131.5070,83.1750
131.5070,82.6500
131.5260,82.5543
131.5802,82.4732
131.6613,82.4190
131.7570,82.4000
Z" /> 
<path style="fill:#000000; fill-opacity:1.0000; stroke:none;fill-rule:evenodd;"
d="M 117.8000,90.2500
120.2000,90.2500
120.2000,93.7500
117.8000,93.7500
Z" /> 
<path style="fill:#000000; fill-opacity:1.0000; stroke:none;fill-rule:evenodd;"
d="M 117.8000,95.4500
120.2000,95.4500
120.2000,98.9500
117.8000,98.9500
Z" /> 
<path style="fill:#000000; fill-opacity:1.0000; stroke:none;fill-rule:evenodd;"
d="M 134.5924,88.4758
134.6114,88.3801
134.6656,88.2990
134.7467,88.2448
134.8424,88.2258
135.3424,88.2258
135.4381,88.2448
135.5192,88.2990
135.5734,88.3801
135.5924,88.4758
135.5924,89.4258
135.5734,89.5215
135.5192,89.6026
135.4381,89.6568
135.3424,89.6758
134.8424,89.6758
134.7467,89.6568
134.6656,89.6026
134.6114,89.5215
134.5924,89.4258
Z" /> 
<path style="fill:#000000; fill-opacity:1.0000; stroke:none;fill-rule:evenodd;"
d="M 136.4924,88.4758
136.5114,88.3801
136.5656,88.2990
136.6467,88.2448
136.7424,88.2258
137.2424,88.2258
137.3381,88.2448
137.4192,88.2990
137.4734,88.3801
137.4924,88.4758
137.4924,89.4258
137.4734,89.5215
137.4192,89.6026
137.3381,89.6568
137.2424,89.6758
136.7424,89.6758
136.6467,89.6568
136.5656,89.6026
136.5114,89.5215
136.4924,89.4258
Z" /> 
<path style="fill:#000000; fill-opacity:1.0000; stroke:none;fill-rule:evenodd;"
d="M 132.2460,75.0960
133.9460,75.0960
133.9460,76.7960
132.2460,76.7960
Z" /> 
</g>
<g style="fill:#000000; fill-opacity:1.0000; stroke:none;">
<circle cx="130.5560" cy="75.9460" r="0.8500" /> 
<circle cx="128.0160" cy="75.9460" r="0.8500" /> 
<circle cx="125.4760" cy="75.9460" r="0.8500" /> 
</g> 
</svg>
